<?xml version="1.0" encoding="UTF-8" standalone="no"?><!DOCTYPE svg PUBLIC "-//W3C//DTD SVG 1.1//EN" "http://www.w3.org/Graphics/SVG/1.1/DTD/svg11.dtd"><svg width="100%" height="100%" viewBox="0 0 853 275" version="1.1" xmlns="http://www.w3.org/2000/svg" xmlns:xlink="http://www.w3.org/1999/xlink" xml:space="preserve" xmlns:serif="http://www.serif.com/" style="fill-rule:evenodd;clip-rule:evenodd;stroke-linejoin:round;stroke-miterlimit:2;"><g><rect x="0" y="0" width="852.508" height="274.966" style="fill:#745e2b;"/><g><path d="M241.584,81.95c-0,0.591 -0.312,0.886 -0.937,0.886c0.71,0 -2.837,-0.221 -10.64,-0.664c-0.114,5.197 -0.171,8.549 -0.171,10.055c0,3.633 0.149,9.082 0.447,16.347c0.298,7.265 0.447,12.699 0.447,16.302c0,0.886 -0.425,1.329 -1.277,1.329c-1.191,-0 -3.007,-0.067 -5.448,-0.2c-2.44,-0.133 -4.27,-0.199 -5.49,-0.199c-1.164,-0 -2.909,0.059 -5.235,0.177c-2.327,0.118 -4.072,0.177 -5.236,0.177c-0.936,0 -1.404,-0.428 -1.404,-1.284c-0,-3.603 0.149,-9.037 0.447,-16.302c0.298,-7.265 0.447,-12.714 0.447,-16.347c-0,-1.447 -0.057,-4.71 -0.171,-9.79c-2.497,0.178 -6.242,0.502 -11.236,0.975c-0.454,-0.207 -0.681,-0.34 -0.681,-0.399c-0,-0.325 0.241,-1.831 0.723,-4.518c0.539,-2.924 0.837,-4.637 0.894,-5.139c0.085,-2.717 0.369,-5.98 0.851,-9.79c0.085,-0.236 0.298,-0.354 0.639,-0.354c0.113,-0 0.34,0.029 0.681,0.088c5.675,0.65 12.655,0.975 20.941,0.975c2.525,-0 7.264,-0.34 14.216,-1.019c3.462,-0.354 5.32,-0.532 5.575,-0.532c0.852,0 1.277,0.222 1.277,0.665c0,1.063 -0.071,2.665 -0.212,4.806c-0.142,2.141 -0.213,3.743 -0.213,4.807c-0,1.004 0.127,2.495 0.383,4.474c0.255,1.979 0.383,3.47 0.383,4.474Z" style="fill:#202020;fill-rule:nonzero;stroke:#000;stroke-width:2.13px;"/><path d="M287.789,125.717c-0,0.296 -0.405,0.443 -1.216,0.443c-0.872,0 -2.189,-0.042 -3.952,-0.126c-1.764,-0.085 -3.081,-0.127 -3.953,-0.127c-0.871,0 -2.168,0.042 -3.891,0.127c-1.723,0.084 -3.02,0.126 -3.892,0.126c-0.527,0 -0.831,-0.316 -0.912,-0.949c0,0.021 0,-0.496 0,-1.55c0,-0.844 -0.385,-1.266 -1.155,-1.266c-4.722,-0 -7.489,0.132 -8.3,0.395c-0.81,0.264 -1.307,0.923 -1.489,1.978c-0.163,0.928 -0.487,1.392 -0.973,1.392c-0.831,0 -2.078,-0.042 -3.74,-0.126c-1.662,-0.085 -2.908,-0.127 -3.739,-0.127c-0.811,0 -2.042,0.042 -3.694,0.127c-1.652,0.084 -2.883,0.126 -3.694,0.126c-0.588,0 -0.882,-0.263 -0.882,-0.791c0,-0.633 4.794,-15.019 14.381,-43.16c0.182,-0.527 0.344,-0.849 0.486,-0.965c0.142,-0.116 0.456,-0.174 0.942,-0.174c0.71,0 1.759,0.095 3.147,0.285c1.388,0.19 2.437,0.285 3.147,0.285c2.857,-0 4.854,-0.148 5.989,-0.443c0.243,-0.084 0.415,-0.127 0.517,-0.127c0.344,0 0.75,0.359 1.216,1.076c0.202,0.317 1.033,2.205 2.493,5.664c1.155,2.658 2.797,6.677 4.925,12.056c1.013,2.805 2.376,7.056 4.089,12.751c1.713,5.696 3.066,9.926 4.059,12.689c0.06,0.19 0.091,0.327 0.091,0.411Zm-20.278,-20.409c-0,-1.666 -0.892,-3.059 -2.676,-4.177c-1.783,1.35 -2.675,2.743 -2.675,4.177c-0,0.738 0.269,1.387 0.806,1.946c0.537,0.559 1.16,0.839 1.869,0.839c0.73,-0 1.358,-0.28 1.885,-0.839c0.527,-0.559 0.791,-1.208 0.791,-1.946Z" style="fill:#202020;fill-rule:nonzero;stroke:#000;stroke-width:2.13px;"/><path d="M333.179,125.717c0,0.296 -0.405,0.443 -1.216,0.443c-0.871,0 -2.189,-0.042 -3.952,-0.126c-1.764,-0.085 -3.081,-0.127 -3.952,-0.127c-0.872,0 -2.169,0.042 -3.892,0.127c-1.723,0.084 -3.02,0.126 -3.891,0.126c-0.527,0 -0.831,-0.316 -0.912,-0.949c-0,0.021 -0,-0.496 -0,-1.55c-0,-0.844 -0.386,-1.266 -1.156,-1.266c-4.722,-0 -7.489,0.132 -8.3,0.395c-0.81,0.264 -1.307,0.923 -1.489,1.978c-0.162,0.928 -0.487,1.392 -0.973,1.392c-0.831,0 -2.078,-0.042 -3.74,-0.126c-1.662,-0.085 -2.908,-0.127 -3.739,-0.127c-0.811,0 -2.042,0.042 -3.694,0.127c-1.652,0.084 -2.883,0.126 -3.694,0.126c-0.587,0 -0.881,-0.263 -0.881,-0.791c-0,-0.633 4.793,-15.019 14.38,-43.16c0.182,-0.527 0.344,-0.849 0.486,-0.965c0.142,-0.116 0.456,-0.174 0.943,-0.174c0.709,0 1.758,0.095 3.146,0.285c1.389,0.19 2.438,0.285 3.147,0.285c2.858,-0 4.854,-0.148 5.989,-0.443c0.243,-0.084 0.416,-0.127 0.517,-0.127c0.345,0 0.75,0.359 1.216,1.076c0.203,0.317 1.034,2.205 2.493,5.664c1.155,2.658 2.797,6.677 4.925,12.056c1.014,2.805 2.377,7.056 4.089,12.751c1.713,5.696 3.066,9.926 4.059,12.689c0.061,0.19 0.091,0.327 0.091,0.411Zm-20.278,-20.409c-0,-1.666 -0.892,-3.059 -2.675,-4.177c-1.784,1.35 -2.676,2.743 -2.676,4.177c0,0.738 0.269,1.387 0.806,1.946c0.537,0.559 1.16,0.839 1.87,0.839c0.729,-0 1.358,-0.28 1.885,-0.839c0.526,-0.559 0.79,-1.208 0.79,-1.946Z" style="fill:#202020;fill-rule:nonzero;stroke:#000;stroke-width:2.13px;"/><path d="M374.313,82.526c0,1.582 -0.051,3.971 -0.152,7.167c-0.101,3.196 -0.152,5.585 -0.152,7.167c0,0.443 -0.892,2.869 -2.675,7.277c-1.439,3.608 -2.483,6.15 -3.132,7.626c-1.216,2.764 -2.624,5.77 -4.226,9.018c-0.527,0.992 -1.256,2.479 -2.189,4.462c-0.243,0.632 -0.547,0.949 -0.912,0.949c-0.891,-0 -2.229,-0.026 -4.013,-0.079c-1.783,-0.053 -3.121,-0.079 -4.013,-0.079c-0.588,-0 -1.484,0.021 -2.69,0.063c-1.206,0.042 -2.103,0.063 -2.691,0.063c-0.385,0 -0.719,-0.306 -1.003,-0.917c-1.48,-3.08 -3.638,-7.742 -6.476,-13.986c-3.405,-7.953 -5.107,-12.383 -5.107,-13.29c-0,-1.666 0.055,-4.171 0.167,-7.515c0.111,-3.343 0.167,-5.848 0.167,-7.515c0,-0.78 0.233,-1.17 0.699,-1.17c0.852,-0 2.134,0.042 3.846,0.126c1.713,0.084 2.995,0.127 3.846,0.127c0.872,-0 2.179,-0.048 3.922,-0.143c1.743,-0.095 3.04,-0.142 3.891,-0.142c0.325,-0 0.487,0.221 0.487,0.664c-0,1.793 -0.117,4.488 -0.35,8.085c-0.233,3.597 -0.349,6.291 -0.349,8.084c-0,0.971 0.374,2.331 1.124,4.082c0.629,1.308 1.247,2.627 1.855,3.955c0.567,-1.054 1.196,-2.52 1.885,-4.398c0.709,-2.046 1.125,-3.586 1.246,-4.619c0.021,-1.097 0.051,-2.732 0.092,-4.905c0.141,-6.434 0.212,-9.746 0.212,-9.936c0,-0.675 0.152,-1.012 0.456,-1.012c0.872,-0 2.174,0.047 3.907,0.142c1.733,0.095 3.035,0.143 3.907,0.143c0.851,-0 2.128,-0.043 3.83,-0.127c1.703,-0.084 2.98,-0.126 3.831,-0.126c0.507,-0 0.76,0.253 0.76,0.759Z" style="fill:#202020;fill-rule:nonzero;stroke:#000;stroke-width:2.13px;"/><path d="M395.595,125.243c-0,0.632 -0.294,0.949 -0.882,0.949c-0.872,-0 -2.184,-0.048 -3.937,-0.142c-1.753,-0.095 -3.076,-0.143 -3.968,-0.143c-0.831,0 -2.082,0.042 -3.754,0.127c-1.672,0.084 -2.924,0.126 -3.755,0.126c-0.669,0 -1.003,-0.306 -1.003,-0.917c-0,-2.574 0.101,-6.455 0.304,-11.645c0.202,-5.189 0.304,-9.081 0.304,-11.676c-0,-2.172 -0.096,-5.426 -0.289,-9.761c-0.193,-4.335 -0.289,-7.568 -0.289,-9.698c0,-0.464 0.243,-0.696 0.73,-0.696c0.892,-0 2.234,0.042 4.028,0.126c1.794,0.084 3.147,0.127 4.059,0.127c0.851,-0 2.128,-0.043 3.83,-0.127c1.703,-0.084 2.97,-0.126 3.801,-0.126c0.527,-0 0.79,0.253 0.79,0.759c0,2.152 -0.096,5.384 -0.289,9.698c-0.192,4.314 -0.289,7.547 -0.289,9.698c0,2.595 0.102,6.487 0.304,11.676c0.203,5.19 0.305,9.071 0.305,11.645Z" style="fill:#202020;fill-rule:nonzero;stroke:#000;stroke-width:2.13px;"/><path d="M478.744,125.673c0,0.325 -0.383,0.487 -1.149,0.487c-1.249,0 -3.1,-0.059 -5.555,-0.177c-2.454,-0.118 -4.291,-0.177 -5.511,-0.177c-1.192,-0 -2.959,0.059 -5.3,0.177c-2.34,0.118 -4.093,0.177 -5.256,0.177c-0.965,0 -1.603,-0.369 -1.915,-1.107c-0.511,-1.329 -1.249,-3.337 -2.214,-6.025c-0.936,-2.422 -2.27,-6.098 -4.001,-11.03c-0.397,-1.27 -0.766,-1.905 -1.106,-1.905c-0.256,-0 -0.383,0.487 -0.383,1.462c-0,2.008 0.191,5.02 0.574,9.037c0.383,4.016 0.575,6.969 0.575,8.859c-0,0.68 -0.284,1.019 -0.851,1.019c-0.199,0 -0.554,-0.044 -1.064,-0.133c-2.441,-0.354 -6.129,-0.531 -11.067,-0.531c-1.078,-0 -2.702,0.059 -4.873,0.177c-2.171,0.118 -3.795,0.177 -4.874,0.177c-0.936,0 -1.404,-0.428 -1.404,-1.284c-0,-3.308 0.17,-8.277 0.511,-14.907c0.34,-6.63 0.51,-11.599 0.51,-14.907c0,-8.446 -0.397,-18.251 -1.191,-29.414l-0.043,-0.62c-0.057,-0.591 0.213,-0.93 0.809,-1.019c-0.057,0 0.482,0 1.617,0c3.093,0 7.761,-0.044 14.003,-0.133c6.243,-0.088 10.925,-0.133 14.046,-0.133c6.64,0 12.116,1.462 16.429,4.386c5.023,3.455 7.534,8.461 7.534,15.017c-0,4.253 -0.603,7.679 -1.809,10.277c-1.206,2.599 -3.398,5.08 -6.576,7.443c-0.681,0.502 -1.021,0.989 -1.021,1.461c-0,0.355 1.759,4.253 5.277,11.695c3.519,7.443 5.278,11.326 5.278,11.651Zm-24.09,-39.337c-0,-3.338 -2.356,-5.006 -7.066,-5.006c-1.163,-0 -1.745,1.846 -1.745,5.537c0,0.443 0.028,1.108 0.085,1.994c0.057,0.886 0.085,1.55 0.085,1.993c0,0.443 0.582,0.665 1.745,0.665c4.597,-0 6.896,-1.728 6.896,-5.183Z" style="fill:#202020;fill-rule:nonzero;stroke:#000;stroke-width:2.13px;"/><path d="M524.566,125.717c0,0.296 -0.405,0.443 -1.216,0.443c-0.872,0 -2.189,-0.042 -3.952,-0.126c-1.764,-0.085 -3.081,-0.127 -3.953,-0.127c-0.871,0 -2.168,0.042 -3.891,0.127c-1.723,0.084 -3.02,0.126 -3.891,0.126c-0.527,0 -0.831,-0.316 -0.913,-0.949c0,0.021 0,-0.496 0,-1.55c0,-0.844 -0.385,-1.266 -1.155,-1.266c-4.722,-0 -7.489,0.132 -8.3,0.395c-0.81,0.264 -1.307,0.923 -1.489,1.978c-0.162,0.928 -0.487,1.392 -0.973,1.392c-0.831,0 -2.078,-0.042 -3.74,-0.126c-1.662,-0.085 -2.908,-0.127 -3.739,-0.127c-0.811,0 -2.042,0.042 -3.694,0.127c-1.652,0.084 -2.883,0.126 -3.694,0.126c-0.588,0 -0.881,-0.263 -0.881,-0.791c-0,-0.633 4.793,-15.019 14.38,-43.16c0.182,-0.527 0.344,-0.849 0.486,-0.965c0.142,-0.116 0.456,-0.174 0.943,-0.174c0.709,0 1.758,0.095 3.146,0.285c1.389,0.19 2.438,0.285 3.147,0.285c2.858,-0 4.854,-0.148 5.989,-0.443c0.243,-0.084 0.416,-0.127 0.517,-0.127c0.344,0 0.75,0.359 1.216,1.076c0.203,0.317 1.034,2.205 2.493,5.664c1.155,2.658 2.797,6.677 4.925,12.056c1.014,2.805 2.377,7.056 4.089,12.751c1.713,5.696 3.066,9.926 4.059,12.689c0.061,0.19 0.091,0.327 0.091,0.411Zm-20.278,-20.409c-0,-1.666 -0.892,-3.059 -2.675,-4.177c-1.784,1.35 -2.676,2.743 -2.676,4.177c0,0.738 0.269,1.387 0.806,1.946c0.537,0.559 1.16,0.839 1.87,0.839c0.729,-0 1.357,-0.28 1.884,-0.839c0.527,-0.559 0.791,-1.208 0.791,-1.946Z" style="fill:#202020;fill-rule:nonzero;stroke:#000;stroke-width:2.13px;"/><path d="M569.987,82.621c-0,2.405 -0.112,6.028 -0.335,10.869c-0.223,4.841 -0.334,8.475 -0.334,10.901l-0.061,21.042c0,0.485 -0.355,0.727 -1.064,0.727c-0.669,0 -1.667,-0.042 -2.995,-0.126c-1.327,-0.085 -2.325,-0.127 -2.994,-0.127c-0.689,0 -1.733,0.042 -3.132,0.127c-1.398,0.084 -2.452,0.126 -3.161,0.126c-0.345,0 -0.76,-0.348 -1.247,-1.044c-7.357,-10.589 -11.34,-15.884 -11.948,-15.884c-0.284,-0 -0.426,0.306 -0.426,0.917c0,1.646 0.061,4.119 0.183,7.42c0.121,3.302 0.182,5.775 0.182,7.421c0,0.78 -0.314,1.17 -0.942,1.17c-0.73,0 -1.829,-0.042 -3.299,-0.126c-1.469,-0.085 -2.569,-0.127 -3.298,-0.127c-0.791,0 -1.982,0.042 -3.573,0.127c-1.591,0.084 -2.781,0.126 -3.572,0.126c-0.669,0 -1.003,-0.306 -1.003,-0.917c-0,-2.3 0.101,-5.754 0.304,-10.363c0.203,-4.609 0.304,-8.064 0.304,-10.363c-0,-2.405 -0.096,-6.007 -0.289,-10.806c-0.193,-4.799 -0.289,-8.39 -0.289,-10.774c0,-0.464 0.416,-0.696 1.247,-0.696c0.912,0 2.888,-0.179 5.928,-0.538c0.405,-0.042 1.49,-0.221 3.253,-0.538c1.338,-0.253 2.412,-0.379 3.223,-0.379c0.283,-0 0.699,0.453 1.246,1.36c0.345,0.57 1.976,2.985 4.895,7.246c1.561,2.384 4.023,5.843 7.388,10.379c0.202,-0.148 0.304,-0.833 0.304,-2.057c-0,-1.624 -0.132,-4.076 -0.396,-7.357c-0.263,-3.28 -0.395,-5.732 -0.395,-7.356c0,-0.823 0.203,-1.234 0.608,-1.234c0.811,-0 2.027,0.031 3.648,0.094c1.622,0.064 2.838,0.095 3.649,0.095c0.871,0 2.179,-0.031 3.922,-0.095c1.743,-0.063 3.05,-0.094 3.921,-0.094c0.365,-0 0.548,0.284 0.548,0.854Z" style="fill:#202020;fill-rule:nonzero;stroke:#000;stroke-width:2.13px;"/><path d="M617.931,82.621c-0,2.405 -0.112,6.028 -0.335,10.869c-0.223,4.841 -0.334,8.475 -0.334,10.901l-0.061,21.042c0,0.485 -0.355,0.727 -1.064,0.727c-0.669,0 -1.667,-0.042 -2.995,-0.126c-1.327,-0.085 -2.325,-0.127 -2.994,-0.127c-0.689,0 -1.733,0.042 -3.132,0.127c-1.398,0.084 -2.452,0.126 -3.161,0.126c-0.345,0 -0.76,-0.348 -1.247,-1.044c-7.357,-10.589 -11.34,-15.884 -11.948,-15.884c-0.284,-0 -0.426,0.306 -0.426,0.917c0,1.646 0.061,4.119 0.183,7.42c0.121,3.302 0.182,5.775 0.182,7.421c0,0.78 -0.314,1.17 -0.942,1.17c-0.73,0 -1.829,-0.042 -3.299,-0.126c-1.469,-0.085 -2.569,-0.127 -3.298,-0.127c-0.791,0 -1.982,0.042 -3.573,0.127c-1.591,0.084 -2.781,0.126 -3.572,0.126c-0.669,0 -1.003,-0.306 -1.003,-0.917c-0,-2.3 0.101,-5.754 0.304,-10.363c0.203,-4.609 0.304,-8.064 0.304,-10.363c-0,-2.405 -0.096,-6.007 -0.289,-10.806c-0.192,-4.799 -0.289,-8.39 -0.289,-10.774c0,-0.464 0.416,-0.696 1.247,-0.696c0.912,0 2.888,-0.179 5.928,-0.538c0.405,-0.042 1.49,-0.221 3.253,-0.538c1.338,-0.253 2.412,-0.379 3.223,-0.379c0.284,-0 0.699,0.453 1.246,1.36c0.345,0.57 1.976,2.985 4.895,7.246c1.561,2.384 4.023,5.843 7.388,10.379c0.202,-0.148 0.304,-0.833 0.304,-2.057c-0,-1.624 -0.132,-4.076 -0.396,-7.357c-0.263,-3.28 -0.395,-5.732 -0.395,-7.356c0,-0.823 0.203,-1.234 0.608,-1.234c0.811,-0 2.027,0.031 3.649,0.094c1.621,0.064 2.837,0.095 3.648,0.095c0.871,0 2.179,-0.031 3.922,-0.095c1.743,-0.063 3.05,-0.094 3.921,-0.094c0.365,-0 0.548,0.284 0.548,0.854Z" style="fill:#202020;fill-rule:nonzero;stroke:#000;stroke-width:2.13px;"/><path d="M661.527,82.526c0,2.447 -0.096,6.112 -0.289,10.996c-0.192,4.883 -0.288,8.548 -0.288,10.995c-0,0.696 0.01,1.73 0.03,3.101c0.02,1.371 0.03,2.405 0.03,3.101c0,5.864 -0.81,9.777 -2.432,11.739c-2.452,3.038 -8.401,4.557 -17.846,4.557c-5.33,-0 -9.272,-0.559 -11.826,-1.677c-2.392,-1.055 -3.993,-2.806 -4.804,-5.253c-0.608,-1.877 -0.912,-4.968 -0.912,-9.271c0,-0.612 0.01,-1.614 0.031,-3.006l-0,-3.291c-0,-2.447 -0.097,-6.123 -0.289,-11.027c-0.193,-4.905 -0.289,-8.58 -0.289,-11.027c0,-0.464 0.243,-0.696 0.73,-0.696c1.5,-0 3.764,0.021 6.795,0.063c3.03,0.042 5.295,0.063 6.794,0.063c1.298,0 1.794,-0.01 1.49,-0.032c0.689,0.064 1.034,0.296 1.034,0.697c-0,2.425 -0.107,6.075 -0.319,10.948c-0.213,4.873 -0.32,8.522 -0.32,10.948c0,0.274 -0.01,0.749 -0.03,1.424c-0.02,0.675 -0.03,1.192 -0.03,1.55c-0,4.071 1.205,6.107 3.617,6.107c1.966,0 2.949,-1.571 2.949,-4.715c0,-2.868 -0.086,-7.182 -0.258,-12.941c-0.172,-5.759 -0.258,-10.073 -0.258,-12.942c-0,-0.633 0.172,-0.96 0.516,-0.981c0.73,-0.084 1.997,-0.095 3.801,-0.031c2.432,0.063 3.749,0.095 3.952,0.095c0.851,-0 2.128,-0.043 3.831,-0.127c1.702,-0.084 2.979,-0.126 3.83,-0.126c0.507,-0 0.76,0.253 0.76,0.759Z" style="fill:#202020;fill-rule:nonzero;stroke:#000;stroke-width:2.13px;"/></g></g></svg>