<?xml version="1.0" encoding="UTF-8" standalone="no"?><!DOCTYPE svg PUBLIC "-//W3C//DTD SVG 1.1//EN" "http://www.w3.org/Graphics/SVG/1.1/DTD/svg11.dtd"><svg width="100%" height="100%" viewBox="0 0 842 596" version="1.1" xmlns="http://www.w3.org/2000/svg" xmlns:xlink="http://www.w3.org/1999/xlink" xml:space="preserve" xmlns:serif="http://www.serif.com/" style="fill-rule:evenodd;clip-rule:evenodd;stroke-linejoin:round;stroke-miterlimit:2;"><g><path d="M-3.741,213.864l-0,196.3l854.135,-0l-0,-224.487c-5.303,0 -26.564,17.752 -43.193,23.215c-5.983,1.966 -15.029,6.465 -21.11,7.321c-7.332,1.032 -17.091,1.389 -23.831,4.698c-5.111,2.509 -9.733,6.348 -15.092,8.612c-3.308,1.398 -6.897,1.144 -10.327,1.566c-7.077,0.872 -13.348,4.66 -19.859,6.264c-5.116,1.261 -10.833,1.104 -15.887,2.349c-12.573,3.098 -25.89,9.175 -38.924,11.745c-13.464,2.654 -27.355,4.587 -40.512,7.829c-10.517,2.592 -23.974,-2.563 -34.157,0.783c-9.455,3.107 -26.765,2.349 -37.335,2.349c-34.243,0 -49.756,-6.388 -81.025,-14.093c-10.584,-2.608 -22.358,-4.364 -32.569,-9.396c-10.141,-4.998 -21.582,-3.198 -30.98,-7.83c-4.727,-2.329 -10.559,-3.647 -15.887,-4.698c-3.557,-0.701 -6.461,-2.905 -9.532,-3.914c-25.449,-8.362 -55.829,-10.32 -81.819,-3.915c-4.297,1.059 -9.085,-0.306 -13.504,0.783c-8.923,2.198 -28.152,1.738 -34.157,4.698c-30.009,14.789 -89.676,12.527 -125.509,12.527c-11.169,0 -25.865,2.631 -36.541,0c-12.499,-3.08 -25.464,-5.934 -38.923,-7.83c-9.367,-1.319 -21.4,-3.108 -29.391,-7.046c-10.489,-5.17 -19.144,-2.973 -24.071,-7.83Z" style="fill:#367739;"/><path d="M-2.139,212.239c2.15,2.119 5.165,2.559 8.735,3.174c4.272,0.735 9.265,1.534 14.742,4.234c7.801,3.844 19.558,5.546 28.701,6.834c13.538,1.906 26.579,4.775 39.151,7.873c10.517,2.592 24.993,-0.066 35.995,-0.066c35.541,0 94.735,2.377 124.5,-12.292c2.564,-1.264 7.372,-2.014 12.845,-2.525c7.575,-0.707 16.503,-1.043 21.775,-2.342c2.411,-0.594 4.921,-0.547 7.417,-0.468c2.075,0.066 4.137,0.165 6.087,-0.315c26.39,-6.503 57.237,-4.527 83.077,3.963c2.989,0.981 5.8,3.161 9.262,3.844c5.519,1.088 11.556,2.475 16.454,4.889c4.484,2.21 9.464,2.846 14.524,3.565c5.537,0.787 11.162,1.656 16.456,4.265c10.063,4.959 21.675,6.657 32.106,9.227c31.06,7.654 46.464,14.027 80.479,14.027c10.367,0 27.349,0.812 36.622,-2.235c5.37,-1.764 11.599,-1.355 17.875,-0.779c5.69,0.523 11.421,1.187 16.449,-0.052c13.191,-3.25 27.118,-5.191 40.617,-7.852c12.999,-2.563 26.279,-8.632 38.819,-11.722c5.054,-1.245 10.771,-1.088 15.887,-2.349c6.595,-1.625 12.957,-5.429 20.126,-6.313c3.224,-0.397 6.608,-0.089 9.718,-1.403c5.32,-2.247 9.901,-6.068 14.975,-8.559c6.938,-3.406 16.97,-3.846 24.518,-4.909c5.971,-0.841 14.84,-5.298 20.716,-7.229c11.487,-3.774 25.194,-13.523 34.191,-19.013c2.454,-1.497 4.579,-2.692 6.244,-3.413c1.429,-0.619 2.612,-0.903 3.47,-0.903c1.26,-0 2.282,1.022 2.282,2.282l-0,224.487c-0,1.26 -1.022,2.282 -2.282,2.282l-854.135,-0c-1.261,-0 -2.282,-1.022 -2.282,-2.282l-0,-196.3c-0,-0.92 0.552,-1.75 1.401,-2.105c0.848,-0.355 1.827,-0.166 2.483,0.48Zm-1.602,1.625l-0,196.3l854.135,-0l-0,-224.487c-5.303,0 -26.564,17.752 -43.193,23.215c-5.983,1.966 -15.029,6.465 -21.11,7.321c-7.332,1.032 -17.091,1.389 -23.831,4.698c-5.111,2.509 -9.733,6.348 -15.092,8.612c-3.308,1.398 -6.897,1.144 -10.327,1.566c-7.077,0.872 -13.348,4.66 -19.859,6.264c-5.116,1.261 -10.833,1.104 -15.887,2.349c-12.573,3.098 -25.89,9.175 -38.924,11.745c-13.464,2.654 -27.355,4.587 -40.512,7.829c-10.517,2.592 -23.974,-2.563 -34.157,0.783c-9.455,3.107 -26.765,2.349 -37.335,2.349c-34.243,0 -49.756,-6.388 -81.025,-14.093c-10.584,-2.608 -22.358,-4.364 -32.569,-9.396c-10.141,-4.998 -21.582,-3.198 -30.98,-7.83c-4.727,-2.329 -10.559,-3.647 -15.887,-4.698c-3.557,-0.701 -6.461,-2.905 -9.532,-3.914c-25.449,-8.362 -55.829,-10.32 -81.819,-3.915c-4.297,1.059 -9.085,-0.306 -13.504,0.783c-8.923,2.198 -28.152,1.738 -34.157,4.698c-30.009,14.789 -89.676,12.527 -125.509,12.527c-11.169,0 -25.865,2.631 -36.541,0c-12.499,-3.08 -25.464,-5.934 -38.923,-7.83c-9.367,-1.319 -21.4,-3.108 -29.391,-7.046c-10.489,-5.17 -19.144,-2.973 -24.071,-7.83Z"/><path d="M-5.25,235.912l0,196.3l854.135,0l0,-224.487c-5.303,0 -26.563,17.752 -43.192,23.216c-5.984,1.965 -15.03,6.464 -21.11,7.32c-7.332,1.033 -17.092,1.39 -23.831,4.698c-5.112,2.509 -9.733,6.349 -15.093,8.613c-3.308,1.397 -6.897,1.143 -10.327,1.566c-7.077,0.872 -13.347,4.659 -19.859,6.263c-5.116,1.261 -10.833,1.104 -15.887,2.349c-12.573,3.099 -25.89,9.176 -38.923,11.745c-13.464,2.654 -27.356,4.588 -40.513,7.83c-10.517,2.591 -23.973,-2.563 -34.157,0.783c-9.455,3.106 -26.765,2.349 -37.335,2.349c-34.243,-0 -49.755,-6.389 -81.024,-14.094c-10.585,-2.608 -22.359,-4.364 -32.569,-9.396c-10.141,-4.997 -21.583,-3.198 -30.98,-7.829c-4.727,-2.33 -10.56,-3.648 -15.887,-4.698c-3.557,-0.701 -6.461,-2.906 -9.533,-3.915c-25.449,-8.361 -55.828,-10.319 -81.819,-3.915c-4.296,1.059 -9.084,-0.306 -13.504,0.783c-8.922,2.199 -28.151,1.738 -34.157,4.698c-30.009,14.789 -89.675,12.528 -125.509,12.528c-11.169,-0 -25.864,2.63 -36.54,-0c-12.499,-3.08 -25.464,-5.935 -38.924,-7.83c-9.366,-1.319 -21.4,-3.108 -29.391,-7.047c-10.489,-5.169 -19.144,-2.973 -24.071,-7.83Z" style="fill:#326431;"/><path d="M-3.741,243.77l-0,196.3l854.135,0l-0,-224.487c-5.303,0 -26.564,17.752 -43.193,23.215c-5.983,1.966 -15.029,6.465 -21.11,7.321c-7.332,1.033 -17.091,1.39 -23.831,4.698c-5.111,2.509 -9.733,6.349 -15.092,8.613c-3.308,1.397 -6.897,1.143 -10.327,1.566c-7.077,0.872 -13.348,4.659 -19.859,6.263c-5.116,1.261 -10.833,1.104 -15.887,2.349c-12.573,3.099 -25.89,9.176 -38.924,11.745c-13.464,2.654 -27.355,4.588 -40.512,7.83c-10.517,2.591 -23.974,-2.563 -34.157,0.783c-9.455,3.106 -26.765,2.349 -37.335,2.349c-34.243,-0 -49.756,-6.389 -81.025,-14.094c-10.584,-2.608 -22.358,-4.364 -32.569,-9.396c-10.141,-4.997 -21.582,-3.198 -30.98,-7.829c-4.727,-2.33 -10.559,-3.648 -15.887,-4.698c-3.557,-0.701 -6.461,-2.906 -9.532,-3.915c-25.449,-8.362 -55.829,-10.319 -81.819,-3.915c-4.297,1.059 -9.085,-0.306 -13.504,0.783c-8.923,2.199 -28.152,1.738 -34.157,4.698c-30.009,14.789 -89.676,12.527 -125.509,12.527c-11.169,0 -25.865,2.631 -36.541,0c-12.499,-3.079 -25.464,-5.934 -38.923,-7.829c-9.367,-1.319 -21.4,-3.109 -29.391,-7.047c-10.489,-5.169 -19.144,-2.973 -24.071,-7.83Z" style="fill:#aa852e;"/><path d="M-2.139,242.145c2.15,2.119 5.165,2.56 8.735,3.174c4.272,0.736 9.265,1.535 14.742,4.234c7.801,3.845 19.558,5.547 28.701,6.834c13.538,1.906 26.579,4.776 39.151,7.874c10.517,2.591 24.993,-0.067 35.995,-0.067c35.541,0 94.735,2.377 124.5,-12.292c2.564,-1.264 7.372,-2.014 12.845,-2.524c7.575,-0.707 16.503,-1.043 21.775,-2.343c2.411,-0.594 4.921,-0.547 7.417,-0.468c2.075,0.066 4.137,0.166 6.087,-0.315c26.39,-6.502 57.237,-4.527 83.077,3.963c2.989,0.982 5.8,3.162 9.262,3.844c5.519,1.088 11.556,2.476 16.454,4.89c4.484,2.209 9.464,2.846 14.524,3.565c5.537,0.787 11.162,1.655 16.456,4.264c10.063,4.959 21.675,6.657 32.106,9.227c31.06,7.654 46.464,14.027 80.479,14.027c10.367,0 27.349,0.812 36.622,-2.234c5.37,-1.765 11.599,-1.355 17.875,-0.779c5.69,0.522 11.421,1.187 16.449,-0.052c13.191,-3.251 27.118,-5.192 40.617,-7.853c12.999,-2.563 26.279,-8.631 38.819,-11.721c5.054,-1.246 10.771,-1.089 15.887,-2.349c6.595,-1.626 12.957,-5.43 20.126,-6.313c3.224,-0.397 6.608,-0.09 9.718,-1.403c5.32,-2.248 9.901,-6.069 14.975,-8.559c6.938,-3.406 16.97,-3.847 24.518,-4.91c5.971,-0.84 14.84,-5.298 20.716,-7.229c11.487,-3.774 25.194,-13.523 34.191,-19.013c2.454,-1.497 4.579,-2.692 6.244,-3.413c1.429,-0.619 2.612,-0.903 3.47,-0.903c1.26,0 2.282,1.022 2.282,2.282l-0,224.487c-0,1.261 -1.022,2.282 -2.282,2.282l-854.135,0c-1.261,0 -2.282,-1.021 -2.282,-2.282l-0,-196.3c-0,-0.92 0.552,-1.75 1.401,-2.105c0.848,-0.355 1.827,-0.166 2.483,0.48Zm-1.602,1.625l-0,196.3l854.135,0l-0,-224.487c-5.303,0 -26.564,17.752 -43.193,23.215c-5.983,1.966 -15.029,6.465 -21.11,7.321c-7.332,1.033 -17.091,1.39 -23.831,4.698c-5.111,2.509 -9.733,6.349 -15.092,8.613c-3.308,1.397 -6.897,1.143 -10.327,1.566c-7.077,0.872 -13.348,4.659 -19.859,6.263c-5.116,1.261 -10.833,1.104 -15.887,2.349c-12.573,3.099 -25.89,9.176 -38.924,11.745c-13.464,2.654 -27.355,4.588 -40.512,7.83c-10.517,2.591 -23.974,-2.563 -34.157,0.783c-9.455,3.106 -26.765,2.349 -37.335,2.349c-34.243,-0 -49.756,-6.389 -81.025,-14.094c-10.584,-2.608 -22.358,-4.364 -32.569,-9.396c-10.141,-4.997 -21.582,-3.198 -30.98,-7.829c-4.727,-2.33 -10.559,-3.648 -15.887,-4.698c-3.557,-0.701 -6.461,-2.906 -9.532,-3.915c-25.449,-8.362 -55.829,-10.319 -81.819,-3.915c-4.297,1.059 -9.085,-0.306 -13.504,0.783c-8.923,2.199 -28.152,1.738 -34.157,4.698c-30.009,14.789 -89.676,12.527 -125.509,12.527c-11.169,0 -25.865,2.631 -36.541,0c-12.499,-3.079 -25.464,-5.934 -38.923,-7.829c-9.367,-1.319 -21.4,-3.109 -29.391,-7.047c-10.489,-5.169 -19.144,-2.973 -24.071,-7.83Z"/><path d="M-5.25,425.123l0,154.395l854.135,-0l1.509,-150.964c-5.303,0 -20.076,-16.539 -36.705,-11.075c-5.984,1.966 -19.394,-3.474 -25.474,-2.617c-7.332,1.032 -27.231,18.835 -32.838,20.413c-12.748,3.587 -15.901,-18.187 -29.353,-16.035c-5.206,0.833 -24.095,11.727 -29.149,12.972c-12.573,3.099 -23.179,-13.981 -36.212,-11.412c-13.464,2.655 -27.356,4.588 -40.513,7.83c-10.517,2.592 -23.973,-2.563 -34.157,0.783c-9.455,3.107 -26.765,2.349 -37.335,2.349c-34.243,0 -26.155,4.558 -57.424,-3.147c-10.584,-2.608 -34.159,8.629 -44.369,3.597c-10.141,-4.997 -23.351,4.632 -32.749,0c-4.727,-2.329 -17.825,-8.733 -26.146,-11.133c-8.086,-2.333 -17.917,-1.123 -25.963,1.539c-25.432,8.413 -35.682,-1.006 -61.603,5.664c-7.907,2.034 -18.157,-14.394 -36.584,-11.361c-11.976,1.971 -40.732,-17.505 -57.584,-14.972c-33.167,4.984 -37.616,23.217 -73.449,23.217c-11.17,0 -28.104,-5.921 -38.78,-8.552c-12.499,-3.08 -24.093,9.459 -37.552,7.564c-9.367,-1.319 -19.04,-8.135 -27.656,-10.467c-22.407,-6.066 -29.122,16.269 -34.049,11.412Z" style="fill:#94742b;"/><g><path d="M-6.877,537.451l0,154.395l854.135,-0l1.509,-150.963c-0.811,-0 -12.879,26.054 -63.021,11.649c-3.845,-1.104 -32.277,-20.798 -64.791,-23.41c-20.959,-1.684 -45.664,14.859 -59.728,10.901c-19.95,-5.615 -39.159,1.058 -50.579,5c-25.01,8.635 -47.942,-6.527 -57.693,-12.478c-19.16,-11.691 -39.806,2.3 -47.669,6.538c-40.205,21.665 -64.558,32.324 -82.714,30.331c-26.203,-2.875 -100.613,-32.265 -121.58,-21.018c-31.808,17.063 -72.108,-5.026 -103.559,-12.282c-16.35,-3.772 -41.938,9.542 -46.642,8.094c-16.917,-5.209 2.912,-18.797 -21.672,-17.974c-17.098,0.572 -33.252,9.633 -48.958,6.66c-11.964,-2.265 -24.575,-13.432 -30.263,-15.408c-23.609,-8.2 -56.139,20.592 -56.775,19.965Z" style="fill:#504e55;"/><path d="M-13.754,547.141l0,154.394l854.135,0l1.509,-150.963c-0.811,-0 -12.879,26.054 -63.021,11.65c-3.845,-1.105 -32.277,-20.799 -64.791,-23.411c-20.959,-1.684 -45.664,14.86 -59.727,10.901c-19.951,-5.615 -39.16,1.058 -50.58,5c-25.01,8.635 -47.942,-6.527 -57.693,-12.477c-19.16,-11.691 -39.806,2.299 -47.669,6.537c-40.205,21.665 -64.558,32.324 -82.714,30.331c-26.203,-2.875 -100.613,-32.265 -121.58,-21.018c-31.808,17.063 -72.108,-5.026 -103.559,-12.282c-16.35,-3.772 -41.938,9.542 -46.642,8.094c-16.917,-5.208 2.912,-18.797 -21.672,-17.974c-17.098,0.572 -33.252,9.633 -48.958,6.66c-11.964,-2.265 -24.575,-13.432 -30.263,-15.408c-23.609,-8.2 -56.139,20.592 -56.775,19.966Z" style="fill:#444348;"/></g><g><g><path d="M0.16,219.84c0.039,-0.093 0.066,-0.184 0.097,-0.253c0.13,-0.287 0.256,-0.533 0.382,-0.725c0.464,-0.704 1.463,-1.585 2.298,-1.951c0.849,-0.373 1.646,-0.341 2.228,-0.13c0.47,0.171 1.079,0.586 1.554,1.3c0.624,0.937 1.025,2.485 0.878,3.411c-0.075,0.473 -0.309,0.998 -0.703,1.509c0.156,0.053 0.297,0.114 0.424,0.181c1.218,0.646 2.013,1.965 2.168,2.875c0.194,1.137 -0.247,2.008 -0.899,2.544c-0.332,0.272 -0.917,0.579 -1.755,0.598c-0.362,0.008 -1.205,-0.068 -1.703,-0.117c-0.415,1 -0.904,1.742 -1.333,2.092c-0.696,0.568 -1.455,0.735 -2.274,0.555c-1.998,-0.44 -2.869,-2.592 -3.041,-3.073c-0.202,-0.247 -0.438,-0.536 -0.691,-0.81c-0.334,-0.025 -0.939,-0.075 -1.257,-0.137c-0.511,-0.098 -0.955,-0.278 -1.312,-0.515c-0.658,-0.436 -1.35,-1.121 -1.743,-1.849c-0.442,-0.821 -0.559,-1.702 -0.327,-2.537c0.194,-0.695 0.298,-1.603 1.057,-2.433c0.529,-0.578 1.386,-1.193 2.997,-1.512c0.654,-0.13 1.353,-0.034 2.049,0.338c0.236,0.125 0.594,0.393 0.906,0.639Zm-4.81,3.579c-0.194,0.697 0.514,1.463 1.132,1.874c0.619,0.41 2.054,0.085 2.578,0.588c0.495,0.476 0.967,1.061 1.315,1.487c0.486,0.594 0.22,1.82 1.637,2.132c0.413,0.091 0.695,-0.52 1.033,-1.35c0.184,-0.453 0.643,-1.144 1.232,-1.333c0.683,-0.219 2.533,0.289 2.862,0.02c0.328,-0.27 -0.123,-1.232 -0.89,-1.639c-0.726,-0.385 -3.037,0.468 -3.117,-1.177c-0.055,-1.124 2.073,-2.017 2.211,-2.888c0.111,-0.699 -0.491,-2.038 -0.957,-2.207c-0.467,-0.169 -1.463,0.617 -1.841,1.191c-0.354,0.539 -0.566,1.922 -2.298,2.35c-0.808,0.199 -1.783,-1.527 -2.599,-1.365c-2.322,0.46 -2.104,1.619 -2.298,2.317Z" style="fill:#326431;"/><path d="M-3.661,222.683c0.185,-0.699 -0.023,-1.858 2.191,-2.318c0.777,-0.162 1.707,1.565 2.476,1.365c1.652,-0.428 1.853,-1.811 2.191,-2.349c0.361,-0.575 1.31,-1.361 1.755,-1.192c0.444,0.17 1.018,1.508 0.912,2.208c-0.132,0.871 -2.16,1.763 -2.107,2.887c0.076,1.645 2.279,0.793 2.971,1.178c0.731,0.406 1.161,1.368 0.848,1.638c-0.313,0.27 -2.077,-0.239 -2.728,-0.02c-0.561,0.189 -0.999,0.88 -1.175,1.334c-0.321,0.83 -0.59,1.44 -0.984,1.349c-1.351,-0.312 -1.098,-1.538 -1.56,-2.132c-0.332,-0.426 -0.782,-1.011 -1.254,-1.486c-0.499,-0.504 -1.867,-0.179 -2.456,-0.589c-0.59,-0.41 -1.265,-1.177 -1.08,-1.873Z" style="fill:#c6d42c;"/><path d="M0.863,219.001c0.013,-0.042 0.025,-0.081 0.04,-0.114c0.122,-0.284 0.242,-0.529 0.361,-0.72c0.449,-0.714 1.418,-1.604 2.226,-1.976c0.866,-0.399 1.681,-0.36 2.274,-0.134c0.459,0.175 1.064,0.598 1.528,1.329c0.585,0.922 0.967,2.442 0.829,3.353c-0.074,0.485 -0.308,1.019 -0.704,1.54c0.154,0.055 0.294,0.118 0.42,0.188c1.164,0.648 1.936,1.958 2.084,2.871c0.181,1.113 -0.248,1.967 -0.856,2.491c-0.337,0.29 -0.927,0.613 -1.777,0.633c-0.324,0.008 -1.052,-0.059 -1.533,-0.107c-0.391,0.976 -0.854,1.703 -1.256,2.047c-0.71,0.608 -1.488,0.778 -2.323,0.585c-1.932,-0.446 -2.798,-2.63 -2.965,-3.104c-0.185,-0.239 -0.4,-0.515 -0.631,-0.78c-0.328,-0.027 -0.865,-0.076 -1.154,-0.134c-0.511,-0.104 -0.954,-0.292 -1.311,-0.54c-0.632,-0.44 -1.298,-1.127 -1.675,-1.861c-0.411,-0.799 -0.523,-1.656 -0.307,-2.47c0.183,-0.69 0.285,-1.595 1.002,-2.419c0.518,-0.594 1.354,-1.22 2.93,-1.548c0.665,-0.139 1.378,-0.041 2.086,0.355c0.187,0.105 0.456,0.308 0.712,0.515Zm-4.524,3.682c-0.185,0.696 0.49,1.463 1.08,1.873c0.589,0.41 1.957,0.085 2.456,0.589c0.472,0.475 0.922,1.06 1.254,1.486c0.462,0.594 0.209,1.82 1.56,2.132c0.394,0.091 0.663,-0.519 0.984,-1.349c0.176,-0.454 0.614,-1.145 1.175,-1.334c0.651,-0.219 2.415,0.29 2.728,0.02c0.313,-0.27 -0.117,-1.232 -0.848,-1.638c-0.692,-0.385 -2.895,0.467 -2.971,-1.178c-0.053,-1.124 1.975,-2.016 2.107,-2.887c0.106,-0.7 -0.468,-2.038 -0.912,-2.208c-0.445,-0.169 -1.394,0.617 -1.755,1.192c-0.338,0.538 -0.539,1.921 -2.191,2.349c-0.769,0.2 -1.699,-1.527 -2.476,-1.365c-2.214,0.46 -2.006,1.619 -2.191,2.318Z"/><path d="M3.267,228.335c-0.174,0.308 -0.356,0.48 -0.578,0.428c-1.351,-0.312 -1.098,-1.538 -1.56,-2.132c-0.332,-0.426 -0.782,-1.011 -1.254,-1.486c-0.499,-0.504 -1.867,-0.179 -2.456,-0.589c-0.59,-0.41 -1.265,-1.177 -1.08,-1.873c0.146,-0.55 0.048,-1.385 1.079,-1.94c-0.44,0.501 -0.409,1.088 -0.52,1.508c-0.185,0.697 0.49,1.463 1.079,1.873c0.59,0.41 1.958,0.086 2.457,0.589c0.472,0.476 0.922,1.061 1.254,1.487c0.462,0.593 0.209,1.82 1.56,2.132c0.007,0.001 0.013,0.002 0.019,0.003Zm-1.007,-7.312c0.553,-0.572 0.715,-1.289 0.937,-1.642c0.217,-0.346 0.648,-0.769 1.054,-1.014c-0.202,0.19 -0.379,0.397 -0.495,0.582c-0.283,0.451 -0.47,1.495 -1.496,2.074Zm5.415,4.725c0.017,0.152 -0.013,0.278 -0.099,0.352c-0.313,0.27 -2.077,-0.239 -2.728,-0.02c-0.029,0.01 -0.059,0.021 -0.088,0.034c0.185,-0.209 0.405,-0.384 0.647,-0.466c0.49,-0.165 1.61,0.083 2.268,0.1Z" style="fill:#a9b537;"/></g><g><path d="M109.225,241.366c-0.169,-0.746 -0.263,-1.715 -0.048,-2.782c0.601,-2.988 2.671,-4.466 4.55,-4.418c0.623,0.016 1.652,0.309 2.567,1.02c1.246,0.97 2.28,2.624 1.861,4.769c-0.037,0.187 -0.042,0.485 -0.034,0.782c0.021,-0.004 0.043,-0.009 0.064,-0.013c0.395,-0.082 0.768,-0.103 1.116,-0.065c0.934,0.1 1.884,0.479 2.549,1.98c1.287,2.901 -0.75,5.93 -1.895,7.019c-1.469,1.397 -3.953,1.609 -6.058,-0.169c-0.367,-0.309 -0.706,-0.756 -1.008,-1.283c-0.087,0.145 -0.169,0.278 -0.235,0.384c-0.318,0.509 -0.669,0.919 -1.015,1.196c-2.354,1.878 -4.209,0.876 -5.207,0.417c-0.788,-0.363 -1.423,-1.06 -1.78,-1.979c-0.346,-0.892 -0.406,-2.006 -0.256,-2.794c0.471,-2.484 1.797,-3.247 3.303,-3.761c0.467,-0.159 1.029,-0.251 1.526,-0.303Zm-1.838,6.764c0.541,0.249 1.552,0.89 2.829,-0.128c0.84,-0.671 1.41,-3.148 2.745,-3.07c1.342,0.078 1.612,2.141 2.408,2.814c1.05,0.887 2.28,0.956 3.013,0.259c0.732,-0.697 2.206,-2.585 1.382,-4.441c-0.654,-1.476 -1.751,0.145 -3.271,-0.484c-0.719,-0.298 -0.804,-2.404 -0.578,-3.563c0.373,-1.906 -1.492,-3.051 -2.246,-3.07c-1.017,-0.026 -1.93,0.97 -2.255,2.587c-0.485,2.408 0.924,2.877 0.466,3.766c-0.652,1.263 -1.833,0.478 -3.443,1.028c-0.816,0.279 -1.544,0.682 -1.799,2.027c-0.138,0.725 0.045,1.951 0.749,2.275Z" style="fill:#326431;"/><path d="M108.613,247.067c0.504,0.226 1.447,0.809 2.636,-0.116c0.782,-0.61 1.313,-2.861 2.558,-2.791c1.249,0.071 1.501,1.947 2.243,2.558c0.978,0.806 2.124,0.869 2.806,0.236c0.682,-0.634 2.055,-2.35 1.288,-4.037c-0.61,-1.342 -1.631,0.131 -3.048,-0.441c-0.669,-0.27 -0.749,-2.184 -0.538,-3.238c0.347,-1.733 -1.39,-2.773 -2.092,-2.791c-0.947,-0.023 -1.798,0.882 -2.101,2.352c-0.452,2.189 0.861,2.615 0.434,3.423c-0.607,1.148 -1.708,0.435 -3.208,0.935c-0.759,0.253 -1.438,0.62 -1.676,1.842c-0.128,0.659 0.042,1.773 0.698,2.068Z" style="fill:#30b989;"/><path d="M110.125,240.733c-0.129,-0.667 -0.181,-1.494 0.005,-2.395c0.582,-2.824 2.573,-4.217 4.392,-4.172c0.598,0.015 1.586,0.288 2.464,0.954c1.22,0.927 2.221,2.515 1.81,4.566c-0.021,0.107 -0.031,0.258 -0.032,0.422c0.337,-0.058 0.658,-0.071 0.96,-0.04c0.918,0.097 1.843,0.464 2.498,1.904c0.563,1.239 0.531,2.485 0.17,3.61c-0.433,1.348 -1.383,2.487 -1.983,3.044c-1.409,1.308 -3.792,1.517 -5.81,-0.147c-0.313,-0.257 -0.605,-0.602 -0.863,-1.015c-0.035,0.056 -0.067,0.107 -0.097,0.152c-0.31,0.485 -0.651,0.873 -0.989,1.135c-2.248,1.751 -4.019,0.826 -4.972,0.398c-0.777,-0.349 -1.399,-1.019 -1.751,-1.903c-0.341,-0.856 -0.399,-1.926 -0.252,-2.682c0.457,-2.352 1.733,-3.085 3.195,-3.572c0.383,-0.128 0.835,-0.208 1.255,-0.259Zm-1.512,6.334c0.504,0.226 1.447,0.809 2.636,-0.116c0.782,-0.61 1.313,-2.861 2.558,-2.791c1.249,0.071 1.501,1.947 2.243,2.558c0.978,0.806 2.124,0.869 2.806,0.236c0.682,-0.634 2.055,-2.35 1.288,-4.037c-0.61,-1.342 -1.631,0.131 -3.048,-0.441c-0.669,-0.27 -0.749,-2.184 -0.538,-3.238c0.347,-1.733 -1.39,-2.773 -2.092,-2.791c-0.947,-0.023 -1.798,0.882 -2.101,2.352c-0.452,2.189 0.861,2.615 0.434,3.423c-0.607,1.148 -1.708,0.435 -3.208,0.935c-0.759,0.253 -1.438,0.62 -1.676,1.842c-0.128,0.659 0.042,1.773 0.698,2.068Z"/><path d="M108.712,243.584c-0.113,0.214 -0.203,0.471 -0.264,0.785c-0.128,0.659 0.042,1.774 0.698,2.068c0.498,0.224 1.423,0.795 2.591,-0.082c-0.157,0.249 -0.317,0.462 -0.488,0.596c-1.189,0.925 -2.132,0.342 -2.636,0.116c-0.656,-0.295 -0.826,-1.409 -0.698,-2.068c0.139,-0.715 0.429,-1.137 0.797,-1.415Zm4.317,0.865c0.353,-0.531 0.763,-0.95 1.311,-0.919c1.249,0.071 1.501,1.947 2.243,2.558c0.978,0.806 2.124,0.87 2.806,0.236c0.047,-0.044 0.098,-0.093 0.151,-0.147c-0.24,0.329 -0.49,0.597 -0.684,0.777c-0.682,0.633 -1.828,0.57 -2.806,-0.236c-0.742,-0.611 -0.994,-2.487 -2.243,-2.558c-0.296,-0.017 -0.551,0.097 -0.778,0.289Zm0.372,-7.604c-0.223,0.361 -0.397,0.808 -0.503,1.324c-0.452,2.189 0.861,2.615 0.434,3.423c-0.138,0.261 -0.301,0.425 -0.488,0.53c0.275,-0.747 -0.912,-1.226 -0.479,-3.323c0.181,-0.88 0.559,-1.557 1.036,-1.954Z" style="fill:#139f74;"/></g><g><path d="M661.408,260.01c-0,0 -5.315,-7.669 -9.56,-13.051c-4.624,-5.861 -18.182,-22.119 -18.182,-22.119l14.585,3.77c0,0 -2.315,-5.756 -5.318,-9.916c-3.99,-5.528 -18.623,-23.254 -18.623,-23.254l6.876,-0.566c-0,-0 -13.237,-18.525 -18.161,-25.501c-3.26,-4.62 -7.152,-15.382 -7.152,-15.382c-0,0 -5.036,15.885 -6.72,24.269c-1.684,8.387 0.621,23.453 0.621,23.453l6.009,-2.598c-0,0 -5.067,21.056 -6.201,27.712c-0.799,4.685 -0.604,12.221 -0.604,12.221l12.721,-9.519c0,-0 -0.138,16.745 -1.139,23.807c-0.828,5.842 -4.866,18.567 -4.866,18.567l55.714,-11.893Z" style="fill:#367739;"/><path d="M661.884,262.242l-55.714,11.893c-0.795,0.169 -1.62,-0.096 -2.166,-0.698c-0.546,-0.602 -0.731,-1.449 -0.485,-2.224c-0,-0 3.97,-12.471 4.781,-18.197c0.656,-4.624 0.933,-13.453 1.045,-18.876l-9,6.735c-0.683,0.512 -1.595,0.599 -2.363,0.227c-0.767,-0.372 -1.264,-1.142 -1.286,-1.995c0,0 -0.191,-7.808 0.636,-12.664c0.811,-4.759 3.621,-16.844 5.177,-23.426l-1.83,0.791c-0.649,0.281 -1.391,0.244 -2.01,-0.098c-0.619,-0.343 -1.044,-0.953 -1.151,-1.652c-0,0 -2.343,-15.577 -0.602,-24.247c1.7,-8.467 6.782,-24.509 6.782,-24.509c0.295,-0.933 1.152,-1.573 2.129,-1.592c0.978,-0.02 1.86,0.586 2.192,1.505c0,0 3.727,10.388 6.871,14.842c4.921,6.973 18.153,25.49 18.153,25.49c0.477,0.668 0.559,1.541 0.213,2.287c-0.345,0.745 -1.064,1.247 -1.883,1.314c0,0 -2.534,0.209 -2.534,0.209c4.46,5.441 13.029,15.962 15.945,20.001c3.15,4.365 5.584,10.4 5.584,10.4c0.322,0.799 0.166,1.711 -0.402,2.358c-0.568,0.647 -1.452,0.919 -2.286,0.703c-0,0 -7.738,-2 -7.738,-2c4.389,5.291 10.797,13.05 13.698,16.727c4.281,5.428 9.643,13.164 9.643,13.164c0.435,0.628 0.528,1.431 0.246,2.141c-0.281,0.709 -0.898,1.232 -1.645,1.391Zm-0.476,-2.232c-0,0 -5.315,-7.669 -9.56,-13.051c-4.624,-5.861 -18.182,-22.119 -18.182,-22.119l14.585,3.77c0,0 -2.315,-5.756 -5.318,-9.916c-3.99,-5.528 -18.623,-23.254 -18.623,-23.254l6.876,-0.566c-0,-0 -13.237,-18.525 -18.161,-25.501c-3.26,-4.62 -7.152,-15.382 -7.152,-15.382c-0,0 -5.036,15.885 -6.72,24.269c-1.684,8.387 0.621,23.453 0.621,23.453l6.009,-2.598c-0,0 -5.067,21.056 -6.201,27.712c-0.799,4.685 -0.604,12.221 -0.604,12.221l12.721,-9.519c0,-0 -0.138,16.745 -1.139,23.807c-0.828,5.842 -4.866,18.567 -4.866,18.567l55.714,-11.893Z"/><path d="M611.695,229.548l3.05,-2.603c-0,0 0.849,17.939 -0.152,25.001c-0.828,5.841 -4.827,17.006 -4.827,17.006l50.398,-10.727c0.207,0.297 1.244,1.785 1.244,1.785l-55.714,11.893c-0,0 4.038,-12.725 4.866,-18.567c0.81,-5.716 1.071,-19.397 1.135,-23.788Zm-3.799,-70.386c-1.599,5.355 -3.726,12.811 -4.709,17.708c-1.537,7.652 0.247,20.863 0.571,23.12l-3.984,1.723c-0,0 -2.305,-15.066 -0.621,-23.453c1.684,-8.384 6.72,-24.269 6.72,-24.269c-0,0 0.82,2.269 2.023,5.171Zm-2.113,39.953l3.916,-1.853c0,0 -4.95,21.519 -6.084,28.175c-0.57,3.342 -0.634,8.135 -0.624,10.608l-4.013,3.003c-0,0 -0.195,-7.536 0.604,-12.221c1.042,-6.117 5.501,-24.794 6.201,-27.712Z" style="fill:#3d652f;"/></g><g><path d="M841.89,207.137c-0,-0 -3.818,-6.671 -6.92,-11.388c-3.379,-5.138 -13.353,-19.441 -13.353,-19.441l11.702,4.128c-0,-0 -1.492,-4.888 -3.661,-8.515c-2.883,-4.819 -13.635,-20.403 -13.635,-20.403l5.683,0.022c0,0 -9.55,-16.14 -13.096,-22.214c-2.348,-4.022 -4.779,-13.13 -4.779,-13.13c0,-0 -5.259,12.679 -7.235,19.44c-1.976,6.763 -1.153,19.29 -1.153,19.29l5.115,-1.706c0,0 -5.651,16.921 -7.053,22.302c-0.988,3.789 -1.362,9.987 -1.362,9.987l11.114,-6.91c0,-0 -1.3,13.731 -2.622,19.456c-1.094,4.735 -5.31,14.892 -5.31,14.892l46.565,-5.81Z" style="fill:#367739;"/><path d="M842.172,209.401l-46.564,5.811c-0.807,0.1 -1.606,-0.236 -2.098,-0.882c-0.493,-0.647 -0.604,-1.507 -0.292,-2.258c-0,0 4.126,-9.909 5.193,-14.53c0.812,-3.514 1.612,-10.092 2.099,-14.548l-7.162,4.453c-0.725,0.45 -1.641,0.459 -2.374,0.022c-0.733,-0.437 -1.161,-1.246 -1.109,-2.098c-0,0 0.401,-6.469 1.431,-10.425c0.958,-3.675 3.884,-12.699 5.666,-18.121l-0.797,0.266c-0.671,0.224 -1.408,0.124 -1.995,-0.271c-0.587,-0.394 -0.958,-1.038 -1.004,-1.744c-0,-0 -0.818,-13.04 1.24,-20.08c1.999,-6.842 7.317,-19.674 7.317,-19.674c0.375,-0.904 1.283,-1.468 2.259,-1.403c0.976,0.064 1.802,0.744 2.054,1.688c0,0 2.299,8.721 4.545,12.568c3.544,6.071 13.089,22.203 13.089,22.203c0.418,0.707 0.424,1.584 0.016,2.297c-0.408,0.712 -1.168,1.151 -1.989,1.147c-0,0 -1.328,-0.005 -1.328,-0.005c3.371,4.929 9.228,13.557 11.247,16.933c2.299,3.843 3.885,9.02 3.885,9.02c0.252,0.823 0.018,1.718 -0.604,2.314c-0.621,0.595 -1.525,0.79 -2.337,0.504c-0,-0 -5.036,-1.776 -5.035,-1.776c3.175,4.584 7.381,10.687 9.351,13.683c3.135,4.767 6.994,11.508 6.994,11.508c0.38,0.663 0.402,1.471 0.061,2.154c-0.341,0.683 -1.001,1.15 -1.759,1.244Zm-0.282,-2.264c-0,-0 -3.818,-6.671 -6.92,-11.388c-3.379,-5.138 -13.353,-19.441 -13.353,-19.441l11.702,4.128c-0,-0 -1.492,-4.888 -3.661,-8.515c-2.883,-4.819 -13.635,-20.403 -13.635,-20.403l5.683,0.022c0,0 -9.55,-16.14 -13.096,-22.214c-2.348,-4.022 -4.779,-13.13 -4.779,-13.13c0,-0 -5.259,12.679 -7.235,19.44c-1.976,6.763 -1.153,19.29 -1.153,19.29l5.115,-1.706c0,0 -5.651,16.921 -7.053,22.302c-0.988,3.789 -1.362,9.987 -1.362,9.987l11.114,-6.91c0,-0 -1.3,13.731 -2.622,19.456c-1.094,4.735 -5.31,14.892 -5.31,14.892l46.565,-5.81Z"/><path d="M803.253,178.614l2.687,-1.92c0,0 -0.575,14.782 -1.897,20.506c-1.093,4.735 -5.167,13.614 -5.167,13.614l42.12,-5.23c0.149,0.258 0.894,1.553 0.894,1.553l-46.565,5.81c0,0 4.216,-10.157 5.31,-14.892c1.07,-4.633 2.254,-15.842 2.618,-19.441Zm1.872,-58.032c-1.692,4.282 -3.966,10.25 -5.12,14.199c-1.803,6.17 -1.276,17.139 -1.17,19.014l-3.392,1.131c-0,0 -0.823,-12.527 1.153,-19.29c1.976,-6.761 7.235,-19.44 7.235,-19.44c0,-0 0.513,1.92 1.294,4.386Zm-4.567,32.638l3.346,-1.243c-0,0 -5.588,17.309 -6.991,22.69c-0.704,2.703 -1.097,6.631 -1.264,8.662l-3.506,2.18c-0,-0 0.374,-6.198 1.362,-9.987c1.289,-4.946 6.272,-19.957 7.053,-22.302Z" style="fill:#3d652f;"/></g><g><path d="M342.491,234.23c-0,-0 -4.469,-12.034 -8.291,-20.652c-4.163,-9.389 -16.69,-35.678 -16.69,-35.678l18.152,9.997c0,0 -1.123,-8.46 -3.706,-15.028c-3.433,-8.728 -16.89,-37.34 -16.89,-37.34l9.356,1.59c-0,-0 -11.325,-29.201 -15.509,-40.177c-2.77,-7.268 -4.287,-22.938 -4.287,-22.938c-0,0 -12.128,19.453 -17.23,30.053c-5.103,10.602 -7.169,31.467 -7.169,31.467l8.894,-1.414c0,0 -13.931,26.334 -17.712,34.817c-2.662,5.972 -4.972,16.082 -4.972,16.082l20.199,-8.35c0,0 -5.893,22.269 -9.635,31.34c-3.094,7.503 -12.815,23.085 -12.815,23.085l78.305,3.146Z" style="fill:#367739;"/><path d="M342.399,236.51l-78.304,-3.146c-0.812,-0.032 -1.546,-0.495 -1.926,-1.213c-0.38,-0.719 -0.349,-1.585 0.081,-2.275c0,0 9.591,-15.352 12.642,-22.747c2.663,-6.457 6.422,-19.663 8.329,-26.588l-15.912,6.577c-0.789,0.326 -1.693,0.184 -2.345,-0.367c-0.652,-0.55 -0.942,-1.419 -0.752,-2.251c0,0 2.381,-10.372 5.112,-16.502c2.875,-6.45 11.593,-23.18 15.655,-30.919l-4.394,0.699c-0.698,0.111 -1.409,-0.109 -1.923,-0.594c-0.515,-0.485 -0.776,-1.181 -0.706,-1.885c0,-0 2.155,-21.369 7.384,-32.232c5.139,-10.676 17.349,-30.27 17.349,-30.27c0.518,-0.83 1.506,-1.238 2.458,-1.014c0.952,0.223 1.656,1.028 1.75,2.002c0,-0 1.45,15.266 4.149,22.344c4.182,10.973 15.504,40.164 15.504,40.164c0.297,0.766 0.159,1.632 -0.36,2.269c-0.519,0.636 -1.341,0.944 -2.15,0.806c-0,0 -5.059,-0.859 -5.059,-0.859c3.82,8.182 12.444,26.776 15.099,33.525c2.675,6.802 3.845,15.563 3.845,15.563c0.113,0.853 -0.264,1.698 -0.975,2.184c-0.71,0.486 -1.634,0.53 -2.388,0.115c-0,-0 -11.954,-6.584 -11.954,-6.584c3.986,8.41 10.811,22.876 13.678,29.34c3.847,8.674 8.344,20.783 8.344,20.783c0.266,0.716 0.156,1.517 -0.292,2.135c-0.448,0.618 -1.176,0.97 -1.939,0.94Zm0.092,-2.28c-0,-0 -4.469,-12.034 -8.291,-20.652c-4.163,-9.389 -16.69,-35.678 -16.69,-35.678l18.152,9.997c0,0 -1.123,-8.46 -3.706,-15.028c-3.433,-8.728 -16.89,-37.34 -16.89,-37.34l9.356,1.59c-0,-0 -11.325,-29.201 -15.509,-40.177c-2.77,-7.268 -4.287,-22.938 -4.287,-22.938c-0,0 -12.128,19.453 -17.23,30.053c-5.103,10.602 -7.169,31.467 -7.169,31.467l8.894,-1.414c0,0 -13.931,26.334 -17.712,34.817c-2.662,5.972 -4.972,16.082 -4.972,16.082l20.199,-8.35c0,0 -5.893,22.269 -9.635,31.34c-3.094,7.503 -12.815,23.085 -12.815,23.085l78.305,3.146Z"/><path d="M286.625,176.684l4.951,-2.429c0,-0 -4.984,24.196 -8.725,33.266c-3.095,7.503 -12.231,21.018 -12.231,21.018l70.822,2.888c0.175,0.466 1.049,2.803 1.049,2.803l-78.305,-3.146c0,0 9.721,-15.582 12.815,-23.085c3.029,-7.341 8.042,-25.486 9.624,-31.315Zm18.935,-95.099c-3.957,6.591 -9.334,15.803 -12.314,21.994c-4.657,9.674 -6.784,27.889 -7.121,31.007l-5.898,0.938c0,-0 2.066,-20.865 7.169,-31.467c5.102,-10.6 17.23,-30.053 17.23,-30.053c-0,0 0.32,3.304 0.934,7.581Zm-16.439,52.525l5.851,-1.134c0,0 -13.933,26.99 -17.714,35.474c-1.899,4.26 -3.618,10.625 -4.448,13.925l-6.373,2.634c0,-0 2.31,-10.11 4.972,-16.082c3.475,-7.797 15.785,-31.166 17.712,-34.817Z" style="fill:#3d652f;"/></g><g><path d="M633.262,265.351c0,0 4.079,-16.492 7.817,-28.398c4.072,-12.968 16.616,-49.413 16.616,-49.413l-22.377,15.86c-0,0 0.213,-11.294 2.628,-20.317c3.21,-11.991 16.632,-51.629 16.632,-51.629l-12.067,3.489c0,0 10.53,-40.093 14.391,-55.152c2.557,-9.973 2.21,-30.806 2.21,-30.806c0,0 18.856,23.769 27.149,36.946c8.296,13.181 14.131,40.31 14.131,40.31l-11.907,-0.53c-0,0 22.256,32.549 28.496,43.14c4.393,7.456 8.941,20.405 8.941,20.405l-27.811,-7.961c0,0 11.078,28.404 17.354,39.774c5.192,9.404 20.303,28.443 20.303,28.443l-102.506,15.839Z" style="fill:#367739;"/><path d="M631.047,264.803c0,0 4.099,-16.571 7.855,-28.533c2.985,-9.507 10.517,-31.616 14.338,-42.775l-16.602,11.767c-0.703,0.498 -1.626,0.558 -2.387,0.155c-0.761,-0.402 -1.231,-1.199 -1.215,-2.06c0,0 0.225,-11.597 2.706,-20.864c2.583,-9.648 11.756,-37.145 15.281,-47.635l-7.878,2.277c-0.789,0.228 -1.64,0.015 -2.227,-0.559c-0.588,-0.573 -0.823,-1.418 -0.614,-2.213c0,0 10.527,-40.084 14.388,-55.139c2.506,-9.776 2.139,-30.201 2.139,-30.201c-0.017,-0.978 0.592,-1.857 1.512,-2.187c0.921,-0.329 1.949,-0.035 2.557,0.731c0,-0 18.954,23.9 27.293,37.148c8.45,13.426 14.43,41.046 14.43,41.046c0.149,0.692 -0.031,1.413 -0.488,1.953c-0.456,0.54 -1.138,0.838 -1.844,0.807c-0,-0 -7.354,-0.327 -7.354,-0.327c6.05,8.899 21.058,31.093 26.01,39.498c4.481,7.605 9.128,20.808 9.128,20.808c0.283,0.805 0.093,1.701 -0.492,2.322c-0.585,0.621 -1.468,0.863 -2.289,0.628c0,0 -23.356,-6.686 -23.356,-6.686c3.33,8.338 10.798,26.638 15.525,35.202c5.135,9.302 20.093,28.128 20.093,28.128c0.505,0.636 0.634,1.494 0.337,2.251c-0.296,0.756 -0.973,1.298 -1.776,1.423l-102.506,15.838c-0.755,0.117 -1.517,-0.151 -2.033,-0.715c-0.515,-0.563 -0.714,-1.347 -0.531,-2.088Zm2.215,0.548l102.506,-15.839c0,0 -15.111,-19.039 -20.303,-28.443c-6.276,-11.37 -17.354,-39.774 -17.354,-39.774l27.811,7.961c0,0 -4.548,-12.949 -8.941,-20.405c-6.24,-10.591 -28.496,-43.14 -28.496,-43.14l11.907,0.53c0,0 -5.835,-27.129 -14.131,-40.31c-8.293,-13.177 -27.149,-36.946 -27.149,-36.946c0,0 0.347,20.833 -2.21,30.806c-3.861,15.059 -14.391,55.152 -14.391,55.152l12.067,-3.489c-0,0 -13.422,39.638 -16.632,51.629c-2.415,9.023 -2.628,20.317 -2.628,20.317l22.377,-15.86c0,0 -12.544,36.445 -16.616,49.413c-3.738,11.906 -7.817,28.398 -7.817,28.398Z"/><path d="M731.921,244.571c2.289,2.977 3.847,4.941 3.847,4.941l-102.506,15.839c0,0 4.079,-16.492 7.817,-28.398c4.072,-12.968 16.616,-49.413 16.616,-49.413l-22.377,15.86c-0,0 0.213,-11.294 2.628,-20.317c3.21,-11.991 16.632,-51.629 16.632,-51.629l-12.067,3.489c0,0 10.53,-40.093 14.391,-55.152c2.557,-9.973 2.21,-30.806 2.21,-30.806c0,0 3.353,18.848 2.994,24.861c-0.925,15.519 -13.549,54.627 -13.549,54.627l12.067,-3.489c0,0 -13.422,39.638 -16.632,51.629c-2.415,9.023 -2.628,20.317 -2.628,20.317l22.377,-15.86c0,-0 -12.544,36.444 -16.616,49.413c-3.738,11.906 -7.816,28.398 -7.816,28.398l92.612,-14.31Z" style="fill:#3d652f;"/></g><g><path d="M181.451,240.014c-0,-0 5.553,-16.056 10.353,-27.575c5.229,-12.547 21.018,-47.707 21.018,-47.707l-23.72,13.771c0,-0 1.234,-11.229 4.456,-19.996c4.281,-11.652 21.234,-49.913 21.234,-49.913l-12.333,2.383c-0,-0 14.113,-38.976 19.321,-53.625c3.448,-9.7 4.988,-30.479 4.988,-30.479c-0,0 16.628,25.378 23.695,39.25c7.07,13.877 10.427,41.424 10.427,41.424l-11.811,-1.605c-0,-0 19.221,34.428 24.477,45.54c3.7,7.823 7.059,21.131 7.059,21.131l-26.977,-10.445c-0,0 8.463,29.29 13.685,41.181c4.319,9.835 17.646,30.163 17.646,30.163l-103.518,6.502Z" style="fill:#367739;"/><path d="M179.294,239.268c0,-0 5.581,-16.133 10.404,-27.706c3.833,-9.198 13.334,-30.535 18.148,-41.303l-17.598,10.217c-0.745,0.433 -1.669,0.409 -2.391,-0.061c-0.721,-0.47 -1.117,-1.306 -1.023,-2.162c-0,0 1.273,-11.529 4.582,-20.533c3.444,-9.375 15.068,-35.93 19.527,-46.058l-8.051,1.556c-0.807,0.155 -1.635,-0.134 -2.168,-0.759c-0.534,-0.624 -0.691,-1.487 -0.411,-2.259c0,-0 14.11,-38.967 19.316,-53.612c3.381,-9.509 4.863,-29.884 4.863,-29.884c0.072,-0.975 0.757,-1.795 1.704,-2.04c0.947,-0.245 1.944,0.14 2.48,0.958c0,0 16.715,25.517 23.821,39.465c7.201,14.135 10.658,42.184 10.658,42.184c0.085,0.702 -0.159,1.404 -0.663,1.9c-0.503,0.497 -1.209,0.732 -1.91,0.637c0,-0 -7.293,-0.991 -7.293,-0.991c5.22,9.41 18.158,32.871 22.33,41.689c3.774,7.979 7.208,21.548 7.208,21.548c0.209,0.828 -0.061,1.703 -0.7,2.268c-0.639,0.565 -1.541,0.727 -2.336,0.419c-0,-0 -22.656,-8.771 -22.656,-8.771c2.562,8.604 8.344,27.504 12.277,36.461c4.273,9.729 17.466,29.83 17.466,29.83c0.445,0.68 0.496,1.546 0.132,2.273c-0.364,0.726 -1.086,1.205 -1.898,1.256l-103.518,6.501c-0.762,0.048 -1.497,-0.288 -1.959,-0.896c-0.463,-0.607 -0.59,-1.406 -0.341,-2.127Zm2.157,0.746l103.518,-6.502c0,0 -13.327,-20.328 -17.646,-30.163c-5.222,-11.891 -13.685,-41.181 -13.685,-41.181l26.977,10.445c-0,-0 -3.359,-13.308 -7.059,-21.131c-5.256,-11.112 -24.477,-45.54 -24.477,-45.54l11.811,1.605c-0,-0 -3.357,-27.547 -10.427,-41.424c-7.067,-13.872 -23.695,-39.25 -23.695,-39.25c-0,0 -1.54,20.779 -4.988,30.479c-5.208,14.649 -19.321,53.625 -19.321,53.625l12.333,-2.383c-0,0 -16.953,38.261 -21.234,49.913c-3.222,8.767 -4.456,19.996 -4.456,19.996l23.72,-13.771c0,-0 -15.789,35.16 -21.018,47.707c-4.8,11.519 -10.353,27.575 -10.353,27.575Z"/><path d="M281.585,228.243c2.01,3.173 3.384,5.269 3.384,5.269l-103.518,6.502c-0,-0 5.553,-16.056 10.353,-27.575c5.229,-12.547 21.018,-47.707 21.018,-47.707l-23.72,13.771c0,-0 1.234,-11.229 4.456,-19.996c4.281,-11.652 21.234,-49.913 21.234,-49.913l-12.333,2.383c-0,-0 14.113,-38.976 19.321,-53.625c3.448,-9.7 4.988,-30.479 4.988,-30.479c-0,0 1.633,19.074 0.732,25.03c-2.326,15.372 -18.435,53.177 -18.435,53.177l12.333,-2.383c0,0 -16.952,38.261 -21.234,49.913c-3.222,8.768 -4.455,19.996 -4.455,19.996l23.72,-13.771c-0,-0 -15.789,35.16 -21.018,47.707c-4.8,11.519 -10.353,27.575 -10.353,27.575l93.527,-5.874Z" style="fill:#3d652f;"/></g><g><path d="M116.659,254.727c-0,-0 -4.151,-18.974 -8.055,-32.696c-4.253,-14.947 -17.463,-56.986 -17.463,-56.986l25.084,18.818c-0,-0 0.106,-12.914 -2.376,-23.301c-3.298,-13.803 -17.411,-59.518 -17.411,-59.518l13.682,4.36c0,0 -10.794,-46.146 -14.742,-63.475c-2.614,-11.476 -1.573,-35.275 -1.573,-35.275c-0,0 -22.284,26.582 -32.17,41.384c-9.888,14.807 -17.395,45.632 -17.395,45.632l13.625,-0.238c-0,0 -26.442,36.511 -33.901,48.421c-5.251,8.386 -10.849,23.044 -10.849,23.044l32.03,-8.238c0,-0 -13.539,32.119 -21.063,44.919c-6.223,10.587 -24.082,31.879 -24.082,31.879l116.659,21.27Z" style="fill:#367739;"/><path d="M116.25,256.972l-116.659,-21.27c-0.8,-0.146 -1.462,-0.706 -1.738,-1.471c-0.275,-0.765 -0.124,-1.618 0.399,-2.241c-0,0 17.698,-21.082 23.863,-31.569c5.799,-9.865 15.189,-31.279 19.113,-40.398l-27.545,7.085c-0.826,0.212 -1.702,-0.054 -2.27,-0.691c-0.569,-0.636 -0.734,-1.537 -0.43,-2.334c0,0 5.705,-14.909 11.047,-23.441c6.024,-9.62 24.4,-35.248 31.316,-44.848l-9.066,0.158c-0.707,0.012 -1.38,-0.304 -1.822,-0.857c-0.442,-0.552 -0.603,-1.278 -0.435,-1.965c-0,-0 7.665,-31.311 17.715,-46.359c9.932,-14.873 32.318,-41.583 32.318,-41.583c0.628,-0.749 1.664,-1.015 2.575,-0.661c0.912,0.354 1.496,1.25 1.454,2.227c-0,-0 -1.051,23.389 1.519,34.668c3.946,17.326 14.738,63.462 14.738,63.462c0.187,0.8 -0.07,1.639 -0.673,2.196c-0.603,0.558 -1.459,0.748 -2.242,0.499c0,-0 -9.527,-3.037 -9.527,-3.036c3.558,11.612 13.471,44.199 16.169,55.489c2.54,10.632 2.438,23.849 2.438,23.849c-0.007,0.861 -0.498,1.645 -1.27,2.027c-0.772,0.382 -1.693,0.297 -2.382,-0.22c0,0 -19.42,-14.569 -19.42,-14.569c3.912,12.516 12.166,39.05 15.363,50.287c3.921,13.78 8.09,32.833 8.09,32.833c0.163,0.746 -0.057,1.524 -0.587,2.073c-0.531,0.549 -1.3,0.797 -2.051,0.66Zm0.409,-2.245c-0,-0 -4.151,-18.974 -8.055,-32.696c-4.253,-14.947 -17.463,-56.986 -17.463,-56.986l25.084,18.818c-0,-0 0.106,-12.914 -2.376,-23.301c-3.298,-13.803 -17.411,-59.518 -17.411,-59.518l13.682,4.36c0,0 -10.794,-46.146 -14.742,-63.475c-2.614,-11.476 -1.573,-35.275 -1.573,-35.275c-0,0 -22.284,26.582 -32.17,41.384c-9.888,14.807 -17.395,45.632 -17.395,45.632l13.625,-0.238c-0,0 -26.442,36.511 -33.901,48.421c-5.251,8.386 -10.849,23.044 -10.849,23.044l32.03,-8.238c0,-0 -13.539,32.119 -21.063,44.919c-6.223,10.587 -24.082,31.879 -24.082,31.879l116.659,21.27Z"/><path d="M45.122,156.693l7.933,-2.592c0,-0 -12.584,35.198 -20.108,47.998c-6.224,10.587 -22.77,28.904 -22.77,28.904l105.503,19.302c0.164,0.735 0.979,4.422 0.979,4.422l-116.659,-21.27c0,-0 17.859,-21.292 24.082,-31.879c6.09,-10.36 17.437,-36.486 21.04,-44.885Zm48.479,-138.484c-7.322,9.04 -17.327,21.705 -23.101,30.351c-9.022,13.509 -16.061,40.351 -17.226,44.952l-9.034,0.158c-0,-0 7.507,-30.825 17.395,-45.632c9.886,-14.802 32.17,-41.384 32.17,-41.384c-0,0 -0.22,5.017 -0.204,11.555Zm-35.736,75.223l9.006,-0.462c0,0 -26.583,37.494 -34.042,49.405c-3.746,5.982 -7.668,15.155 -9.609,19.923l-10.105,2.599c-0,0 5.598,-14.658 10.849,-23.044c6.855,-10.947 30.242,-43.358 33.901,-48.421Z" style="fill:#3d652f;"/></g><g><path d="M637.271,271.918c-2.813,1.159 -11.136,6.305 -16.94,7.939c-12.112,3.409 -23.834,3.522 -25.827,4.358c-3.601,1.513 -8.701,-11.561 -8.701,-11.561c1.973,-4.187 3.838,-6.381 6.012,-8.895c1.586,-1.835 3.298,-5.124 4.916,-6.378c8.057,-6.244 15.983,-8.513 23.339,-4.929c1.624,0.792 3.651,0.407 5.104,2.142c0.524,0.625 1.105,2.971 1.606,3.891c0.588,1.079 2.084,1.349 2.445,2.919c0.856,3.717 6.059,10.3 8.046,10.514Z" style="fill:#326431;stroke:#326431;stroke-width:0.24px;stroke-linecap:round;stroke-miterlimit:1.5;"/><path d="M586.028,270.56c1.963,-4.189 4.33,-6.88 6.49,-9.396c1.577,-1.835 3.281,-5.125 4.888,-6.38c8.009,-6.249 15.884,-8.524 23.189,-4.945c1.613,0.79 3.626,0.404 5.069,2.138c0.52,0.625 1.094,2.97 1.592,3.89c0.583,1.078 2.069,1.347 2.427,2.916c0.848,3.716 5.512,11.748 7.485,11.96" style="fill:#7d7d7d;"/><path d="M637.322,269.612c0.61,0.083 1.047,0.637 0.981,1.253c-0.067,0.626 -0.63,1.079 -1.256,1.012c-0.397,-0.042 -0.876,-0.234 -1.383,-0.618c-0.515,-0.39 -1.107,-1.008 -1.719,-1.785c-2.195,-2.787 -4.755,-7.72 -5.374,-10.437c-0.146,-0.638 -0.617,-0.919 -1.016,-1.231c-0.518,-0.407 -0.995,-0.827 -1.303,-1.397c-0.317,-0.586 -0.673,-1.714 -1.019,-2.669c-0.161,-0.444 -0.292,-0.847 -0.446,-1.033c-0.675,-0.81 -1.532,-0.981 -2.363,-1.157c-0.804,-0.17 -1.602,-0.329 -2.331,-0.686c-6.934,-3.398 -14.383,-1.112 -21.985,4.82c-1.563,1.22 -3.191,4.439 -4.724,6.224c-2.102,2.448 -4.413,5.061 -6.323,9.136c-0.268,0.57 -0.948,0.816 -1.518,0.549c-0.57,-0.268 -0.816,-0.948 -0.549,-1.518c2.017,-4.301 4.44,-7.07 6.659,-9.654c1.62,-1.887 3.399,-5.247 5.052,-6.536c8.414,-6.567 16.716,-8.831 24.392,-5.071c0.734,0.36 1.564,0.433 2.37,0.633c1.106,0.273 2.172,0.717 3.074,1.8c0.261,0.315 0.564,0.962 0.837,1.716c0.305,0.842 0.602,1.844 0.881,2.361c0.221,0.409 0.645,0.631 1.015,0.932c0.672,0.547 1.276,1.197 1.521,2.274c0.567,2.485 2.935,6.983 4.943,9.532c0.399,0.507 0.78,0.933 1.13,1.236c0.161,0.14 0.419,0.293 0.454,0.314Z"/></g><g><path d="M150.597,247.485c3.766,0.496 15.449,6.745 23.188,5.606c15.627,-2.3 31.307,1.65 33.973,2.011c4.82,0.652 13.743,-11.774 13.743,-11.774c-2.342,-2.381 -4.539,-3.009 -7.305,-4.368c-2.019,-0.991 -4.417,-2.521 -6.531,-3.16c-10.529,-3.183 -18.439,-2.896 -28.878,-0.205c-2.305,0.594 -6.303,1.267 -8.458,2.418c-0.776,0.415 -2.62,2.068 -3.392,2.659c-0.905,0.693 -3.984,0.108 -4.621,1.08c-1.509,2.303 -8.966,5.461 -11.719,5.733Z" style="fill:#326431;"/><path d="M221.217,242.971c-2.328,-2.383 -5.345,-3.834 -8.093,-5.195c-2.006,-0.992 -4.97,-10.413 -7.07,-11.053c-10.461,-3.189 -15.82,4.118 -26.189,6.803c-2.289,0.592 -8.012,2.111 -10.152,3.26c-0.771,0.414 -3.166,1.989 -3.932,2.579c-0.898,0.692 -2.341,0.59 -2.973,1.561c-1.497,2.301 -9.232,5.574 -11.966,5.844" style="fill:#7d7d7d;"/><path d="M222.033,242.174c0.44,0.45 0.432,1.173 -0.018,1.613c-0.451,0.441 -1.174,0.432 -1.614,-0.018c-2.235,-2.288 -5.144,-3.664 -7.784,-4.97c-0.422,-0.209 -0.906,-0.654 -1.381,-1.314c-0.816,-1.136 -1.727,-3.01 -2.636,-4.865c-0.726,-1.482 -1.451,-2.95 -2.138,-3.952c-0.191,-0.278 -0.374,-0.516 -0.555,-0.695c-0.07,-0.069 -0.12,-0.139 -0.186,-0.159c-4.913,-1.498 -8.626,-0.508 -12.33,1.149c-3.997,1.788 -7.986,4.307 -13.24,5.667c-2.231,0.578 -7.813,2.042 -9.898,3.161c-0.74,0.398 -3.04,1.911 -3.775,2.478c-0.463,0.356 -1.028,0.569 -1.604,0.752c-0.234,0.075 -0.469,0.145 -0.687,0.237c-0.163,0.069 -0.324,0.138 -0.423,0.29c-0.667,1.026 -2.41,2.275 -4.5,3.363c-2.958,1.541 -6.585,2.824 -8.31,2.994c-0.626,0.062 -1.185,-0.396 -1.247,-1.023c-0.062,-0.627 0.396,-1.186 1.023,-1.248c1.556,-0.154 4.811,-1.357 7.479,-2.747c1.662,-0.865 3.112,-1.768 3.642,-2.583c0.388,-0.597 0.953,-0.96 1.606,-1.212c0.539,-0.208 1.173,-0.281 1.628,-0.631c0.796,-0.614 3.287,-2.25 4.088,-2.68c2.195,-1.179 8.058,-2.752 10.406,-3.36c5.115,-1.324 8.989,-3.801 12.88,-5.541c4.183,-1.871 8.38,-2.94 13.928,-1.249c0.407,0.124 0.858,0.418 1.3,0.903c0.689,0.755 1.447,2.069 2.202,3.553c0.89,1.748 1.795,3.741 2.636,5.181c0.251,0.432 0.494,0.81 0.73,1.105c0.138,0.172 0.25,0.319 0.375,0.381c2.858,1.415 5.983,2.942 8.403,5.42Z"/></g><g><path d="M379.872,237.453c-1.558,-2.366 -1.464,-5.421 0.633,-7.941c0.869,-1.045 2.148,-1.726 3.69,-1.916c2.101,-0.257 4.812,0.595 5.997,1.351c0.867,0.553 1.648,1.419 2.203,2.131c0.56,-0.206 1.255,-0.426 2.036,-0.597c1.66,-0.362 3.416,-0.048 4.507,0.478c1.065,0.514 1.736,1.271 2.1,1.949c0.624,1.159 1.371,3.244 -0.345,6.26c-0.366,0.643 -0.895,1.298 -1.372,1.828c0.549,0.41 1.109,0.917 1.512,1.494c1.605,2.303 1.867,4.817 0.797,7.238c-0.61,1.38 -2.149,3.106 -4.458,3.54c-1.715,0.323 -4.182,0.095 -6.934,-2.736c-0.443,-0.456 -0.798,-0.975 -1.077,-1.542c-0.377,0.464 -0.765,0.879 -1.118,1.137c-2.058,1.504 -4.472,1.798 -6.165,1.416c-1.209,-0.272 -2.16,-0.872 -2.812,-1.593c-0.167,-0.184 -0.503,-0.606 -0.807,-1.301c-0.365,-0.835 -0.984,-2.75 -1.159,-4.598c-0.233,-2.452 0.477,-4.704 1.829,-5.94c0.283,-0.258 0.597,-0.48 0.943,-0.658Zm3.466,-5.584c-1.161,1.395 -1.021,3.154 0.233,4.265c1.244,1.101 3.146,1.139 2.874,3.155c-0.076,0.562 -0.534,1.674 -1.559,1.771c-1.118,0.105 -2.832,-0.812 -3.47,-0.229c-1.601,1.464 0.068,6.299 0.384,6.648c0.675,0.747 2.544,0.786 4.069,-0.328c1.66,-1.214 1.971,-4.409 4.212,-4.113c2.519,0.333 1.395,3.48 2.8,4.925c2.94,3.026 4.894,1.372 5.378,0.275c0.539,-1.219 0.359,-2.48 -0.45,-3.64c-1.238,-1.776 -2.962,-0.946 -3.017,-3.149c-0.048,-1.924 1.564,-2.109 2.697,-4.102c0.742,-1.304 0.574,-2.192 0.304,-2.693c-0.251,-0.466 -1.462,-0.815 -2.576,-0.572c-2.622,0.572 -2.644,1.251 -3.698,1.152c-1.58,-0.15 -1.384,-1.952 -3.309,-3.18c-1.006,-0.642 -3.866,-1.394 -4.872,-0.185Z" style="fill:#326431;"/><path d="M385.117,230.966c0.976,-1.178 3.753,-0.445 4.729,0.18c1.869,1.197 1.679,2.953 3.213,3.098c1.023,0.097 1.045,-0.564 3.59,-1.122c1.081,-0.237 2.258,0.104 2.501,0.557c0.262,0.489 0.425,1.354 -0.295,2.624c-1.1,1.942 -2.665,2.123 -2.618,3.997c0.053,2.146 1.727,1.337 2.929,3.067c0.785,1.13 0.96,2.359 0.437,3.547c-0.47,1.068 -2.367,2.68 -5.222,-0.268c-1.364,-1.408 -0.272,-4.474 -2.718,-4.798c-2.175,-0.289 -2.477,2.824 -4.09,4.007c-1.479,1.085 -3.294,1.047 -3.949,0.319c-0.307,-0.34 -1.927,-5.05 -0.373,-6.477c0.619,-0.568 2.283,0.325 3.368,0.223c0.996,-0.093 1.44,-1.178 1.514,-1.725c0.264,-1.963 -1.583,-2.001 -2.79,-3.074c-1.217,-1.082 -1.353,-2.796 -0.226,-4.155Z" style="fill:#b02d2d;"/><path d="M381.752,236.41c-1.517,-2.301 -1.429,-5.277 0.605,-7.731c0.846,-1.02 2.089,-1.684 3.59,-1.869c2.043,-0.251 4.68,0.58 5.832,1.318c0.839,0.537 1.597,1.379 2.135,2.071c0.543,-0.2 1.214,-0.413 1.968,-0.578c1.616,-0.354 3.325,-0.047 4.387,0.467c1.034,0.501 1.686,1.237 2.04,1.898c0.604,1.127 1.326,3.152 -0.335,6.084c-0.357,0.63 -0.875,1.272 -1.341,1.79c0.536,0.401 1.084,0.897 1.477,1.462c1.555,2.239 1.81,4.683 0.773,7.036c-0.592,1.346 -2.09,3.027 -4.332,3.45c-1.668,0.315 -4.069,0.094 -6.744,-2.668c-0.427,-0.441 -0.77,-0.942 -1.039,-1.49c-0.363,0.448 -0.736,0.846 -1.075,1.095c-2.002,1.469 -4.351,1.754 -5.997,1.382c-1.176,-0.266 -2.101,-0.851 -2.735,-1.554c-0.162,-0.18 -0.488,-0.59 -0.782,-1.265c-0.355,-0.813 -0.955,-2.677 -1.125,-4.476c-0.225,-2.383 0.464,-4.573 1.774,-5.775c0.276,-0.254 0.584,-0.472 0.924,-0.647Zm3.365,-5.444c-1.127,1.359 -0.991,3.073 0.226,4.155c1.207,1.073 3.054,1.111 2.79,3.074c-0.074,0.547 -0.518,1.632 -1.514,1.725c-1.085,0.102 -2.749,-0.791 -3.368,-0.223c-1.554,1.427 0.066,6.137 0.373,6.477c0.655,0.728 2.47,0.766 3.949,-0.319c1.613,-1.183 1.915,-4.296 4.09,-4.007c2.446,0.324 1.354,3.39 2.718,4.798c2.855,2.948 4.752,1.336 5.222,0.268c0.523,-1.188 0.348,-2.417 -0.437,-3.547c-1.202,-1.73 -2.876,-0.921 -2.929,-3.067c-0.047,-1.874 1.518,-2.055 2.618,-3.997c0.72,-1.27 0.557,-2.135 0.295,-2.624c-0.243,-0.453 -1.42,-0.794 -2.501,-0.557c-2.545,0.558 -2.567,1.219 -3.59,1.122c-1.534,-0.145 -1.344,-1.901 -3.213,-3.098c-0.976,-0.625 -3.753,-1.358 -4.729,-0.18Z"/><path d="M387.833,245.638c-0.082,0.078 -0.169,0.151 -0.26,0.217c-1.479,1.085 -3.294,1.047 -3.949,0.319c-0.307,-0.34 -1.927,-5.05 -0.373,-6.477c0.24,-0.219 0.636,-0.22 1.094,-0.145c-0.68,1.878 0.571,5.451 0.837,5.745c0.471,0.523 1.539,0.69 2.651,0.341Zm0.002,-6.591c0.172,-0.304 0.267,-0.624 0.298,-0.852c0.264,-1.963 -1.583,-2.001 -2.79,-3.074c-1.217,-1.082 -1.353,-2.796 -0.226,-4.155c0.309,-0.373 0.799,-0.554 1.355,-0.608c-0.902,1.31 -0.709,2.875 0.429,3.886c1.208,1.074 3.054,1.111 2.79,3.075c-0.074,0.547 -0.518,1.631 -1.513,1.725c-0.109,0.01 -0.224,0.01 -0.343,0.003Zm11.446,8.387c-0.763,0.94 -2.49,1.7 -4.9,-0.788c-1.364,-1.408 -0.272,-4.474 -2.718,-4.798c-0.1,-0.014 -0.196,-0.02 -0.289,-0.019c0.461,-0.584 1.018,-0.968 1.848,-0.858c2.445,0.325 1.354,3.391 2.717,4.799c1.342,1.385 2.472,1.763 3.342,1.664Z" style="fill:#9b2827;"/></g><g><path d="M237.408,239.642c0.291,-0.213 0.433,-0.5 0.544,-0.735c0.22,-0.462 0.399,-0.869 0.585,-1.151c0.547,-0.83 1.724,-1.87 2.709,-2.302c0.913,-0.401 1.769,-0.38 2.395,-0.153c0.514,0.186 1.171,0.651 1.69,1.431c0.728,1.093 1.215,2.894 1.043,3.973c-0.125,0.788 -0.736,1.714 -1.648,2.562c0.005,0 0.009,0 0.014,0.001c0.667,0.034 1.227,0.187 1.64,0.406c1.387,0.735 2.302,2.23 2.479,3.266c0.203,1.191 -0.248,2.107 -0.93,2.668c-0.353,0.289 -0.978,0.603 -1.868,0.623c-0.585,0.013 -2.058,-0.128 -2.598,-0.182c-0.089,0.117 -0.212,0.288 -0.25,0.381c-0.495,1.219 -1.063,2.138 -1.58,2.559c-0.729,0.595 -1.523,0.773 -2.382,0.584c-1.925,-0.423 -2.691,-1.487 -3.157,-2.628c-0.131,-0.321 -0.31,-0.9 -0.362,-1.07c-0.335,-0.412 -0.752,-0.925 -1.198,-1.387c-0.358,-0.027 -1.228,-0.097 -1.686,-0.171c-0.642,-0.104 -1.201,-0.312 -1.636,-0.601c-0.775,-0.514 -1.594,-1.317 -2.056,-2.174c-0.489,-0.906 -0.627,-1.879 -0.37,-2.802c0.23,-0.826 0.325,-1.918 1.227,-2.905c0.625,-0.683 1.646,-1.391 3.549,-1.768c0.767,-0.152 1.6,-0.005 2.422,0.489c0.386,0.232 1.027,0.754 1.424,1.086Zm-6.423,3.71c-0.255,0.916 0.676,1.923 1.488,2.462c0.813,0.54 2.7,0.113 3.388,0.774c0.651,0.626 1.271,1.394 1.729,1.955c0.638,0.78 0.289,2.392 2.152,2.802c0.543,0.119 0.914,-0.683 1.357,-1.774c0.243,-0.597 0.846,-1.505 1.62,-1.753c0.897,-0.288 3.33,0.381 3.762,0.026c0.432,-0.355 -0.162,-1.619 -1.17,-2.154c-0.954,-0.505 -3.991,0.615 -4.097,-1.547c-0.072,-1.478 2.724,-2.651 2.907,-3.796c0.146,-0.919 -0.646,-2.679 -1.259,-2.901c-0.613,-0.223 -1.922,0.811 -2.42,1.566c-0.466,0.707 -0.743,2.525 -3.021,3.088c-1.061,0.262 -2.343,-2.007 -3.415,-1.795c-3.053,0.606 -2.766,2.129 -3.021,3.047Z" style="fill:#326431;"/><path d="M232.285,242.384c0.243,-0.918 -0.03,-2.442 2.88,-3.047c1.021,-0.212 2.243,2.057 3.255,1.795c2.171,-0.563 2.435,-2.381 2.88,-3.089c0.473,-0.754 1.722,-1.788 2.306,-1.565c0.584,0.222 1.339,1.982 1.199,2.901c-0.173,1.145 -2.839,2.318 -2.77,3.796c0.101,2.162 2.996,1.041 3.905,1.547c0.961,0.534 1.527,1.799 1.115,2.154c-0.412,0.354 -2.73,-0.314 -3.585,-0.027c-0.738,0.249 -1.313,1.157 -1.544,1.753c-0.423,1.091 -0.776,1.894 -1.294,1.775c-1.776,-0.41 -1.443,-2.022 -2.051,-2.803c-0.437,-0.56 -1.028,-1.329 -1.648,-1.954c-0.656,-0.662 -2.455,-0.235 -3.229,-0.774c-0.775,-0.539 -1.662,-1.547 -1.419,-2.462Z" style="fill:#c6d42c;"/><path d="M238.402,238.625c0.21,-0.199 0.319,-0.447 0.41,-0.648c0.208,-0.461 0.379,-0.866 0.555,-1.147c0.528,-0.841 1.667,-1.89 2.618,-2.328c0.927,-0.427 1.798,-0.399 2.433,-0.157c0.501,0.191 1.152,0.664 1.658,1.461c0.684,1.078 1.147,2.85 0.986,3.915c-0.112,0.736 -0.568,1.562 -1.339,2.325c-0.075,0.074 -0.164,0.162 -0.261,0.257c0.644,0.042 1.185,0.201 1.587,0.425c1.326,0.737 2.212,2.222 2.381,3.261c0.189,1.167 -0.248,2.067 -0.886,2.616c-0.356,0.307 -0.984,0.637 -1.884,0.658c-0.534,0.013 -1.85,-0.12 -2.4,-0.178c-0.078,0.113 -0.174,0.259 -0.206,0.342c-0.472,1.218 -1.019,2.138 -1.51,2.559c-0.742,0.634 -1.553,0.815 -2.426,0.614c-1.867,-0.431 -2.624,-1.497 -3.076,-2.658c-0.126,-0.323 -0.299,-0.91 -0.346,-1.074c-0.313,-0.403 -0.7,-0.904 -1.115,-1.359c-0.355,-0.027 -1.137,-0.092 -1.555,-0.163c-0.638,-0.109 -1.193,-0.325 -1.626,-0.627c-0.743,-0.517 -1.53,-1.322 -1.973,-2.185c-0.456,-0.886 -0.587,-1.834 -0.348,-2.735c0.218,-0.822 0.31,-1.911 1.165,-2.892c0.608,-0.698 1.601,-1.418 3.456,-1.804c0.774,-0.161 1.618,-0.012 2.446,0.51c0.346,0.218 0.706,0.518 1.059,0.837c0.057,0.051 0.126,0.112 0.197,0.175Zm-6.117,3.759c-0.243,0.915 0.644,1.923 1.419,2.462c0.774,0.539 2.573,0.112 3.229,0.774c0.62,0.625 1.211,1.394 1.648,1.954c0.608,0.781 0.275,2.393 2.051,2.803c0.518,0.119 0.871,-0.684 1.294,-1.775c0.231,-0.596 0.806,-1.504 1.544,-1.753c0.855,-0.287 3.173,0.381 3.585,0.027c0.412,-0.355 -0.154,-1.62 -1.115,-2.154c-0.909,-0.506 -3.804,0.615 -3.905,-1.547c-0.069,-1.478 2.597,-2.651 2.77,-3.796c0.14,-0.919 -0.615,-2.679 -1.199,-2.901c-0.584,-0.223 -1.833,0.811 -2.306,1.565c-0.445,0.708 -0.709,2.526 -2.88,3.089c-1.012,0.262 -2.234,-2.007 -3.255,-1.795c-2.91,0.605 -2.637,2.129 -2.88,3.047Z"/><path d="M241.392,249.814c-0.229,0.405 -0.469,0.63 -0.76,0.563c-1.776,-0.41 -1.443,-2.022 -2.051,-2.803c-0.437,-0.56 -1.028,-1.329 -1.648,-1.954c-0.656,-0.662 -2.455,-0.235 -3.229,-0.774c-0.775,-0.539 -1.662,-1.547 -1.419,-2.462c0.191,-0.723 0.063,-1.82 1.418,-2.55c-0.578,0.659 -0.537,1.43 -0.684,1.982c-0.242,0.916 0.645,1.923 1.419,2.463c0.775,0.539 2.573,0.112 3.229,0.773c0.621,0.626 1.212,1.394 1.648,1.955c0.609,0.78 0.276,2.392 2.051,2.802c0.009,0.002 0.017,0.004 0.026,0.005Zm-1.324,-9.612c0.726,-0.752 0.94,-1.694 1.232,-2.159c0.285,-0.454 0.851,-1.01 1.385,-1.332c-0.266,0.25 -0.498,0.522 -0.651,0.765c-0.372,0.593 -0.618,1.965 -1.966,2.726Zm7.117,6.211c0.022,0.2 -0.017,0.366 -0.13,0.463c-0.412,0.354 -2.73,-0.314 -3.585,-0.027c-0.039,0.014 -0.078,0.028 -0.116,0.045c0.244,-0.275 0.532,-0.505 0.85,-0.612c0.644,-0.217 2.117,0.109 2.981,0.131Z" style="fill:#a9b537;"/></g><g><path d="M537.8,262.066c-0.19,2.989 -1.633,6.142 0.991,7.929c1.322,0.9 2.562,0.869 4.55,0.105c1.51,-0.58 2.831,-2.313 2.831,-2.313c0,-0 7.669,5.729 9.773,2.821" style="fill:none;stroke:#326431;stroke-width:3.31px;"/><path d="M542.597,266.442c1.194,0.204 1.286,-0.783 1.92,-1.46c0.926,-0.991 1.055,-1.816 2.885,-1.367c0.95,0.234 1.361,1.574 3.736,2.957c1.76,1.026 3.756,2.066 4.469,1.409c0.657,-0.606 0.103,-1.95 -0.781,-3.008c-0.804,-0.963 -1.923,-1.633 -1.857,-2.402c0.067,-0.773 0.267,-1.648 1.155,-2.422c0.965,-0.84 3.04,-0.491 2.315,-1.85c-0.341,-0.639 -1.617,-0.962 -2.854,-0.429c-1.6,0.69 -3.208,1.418 -4.019,1.11c-2.167,-0.822 -1.798,-1.825 -1.883,-2.962c-0.145,-1.952 -1.022,-2.731 -2.388,-2.596c-1.779,0.176 -2.563,1.495 -2.348,3.115c0.148,1.12 1.585,2.505 1.461,3.661c-0.124,1.156 -1.373,2.666 -2.149,3.44c-0.736,0.736 -1.168,2.546 0.338,2.804Z" style="fill:#b02d2d;"/><path d="M539.948,259.941c-0.426,-0.861 -1.02,-2.16 -1.113,-2.859c-0.259,-1.954 0.206,-3.7 1.15,-5.037c1.012,-1.433 2.601,-2.523 4.901,-2.751c1.637,-0.162 3.013,0.229 4.134,0.993c1.104,0.753 2.116,1.974 2.574,3.92c0.123,-0.05 0.241,-0.1 0.348,-0.146c2.161,-0.932 4.372,-0.659 5.795,0.041c1.116,0.549 1.896,1.37 2.362,2.245c0.725,1.359 0.716,2.458 0.56,3.297c-0.179,0.957 -0.615,1.767 -1.304,2.447c-0.191,0.189 -0.58,0.417 -1.017,0.64c1.112,1.501 1.718,3.271 1.705,4.576c-0.016,1.508 -0.588,2.767 -1.624,3.723c-1.012,0.933 -2.48,1.524 -4.39,1.23c-1.318,-0.203 -3.255,-1.099 -4.979,-2.104c-0.815,-0.474 -1.564,-1.047 -2.173,-1.567c-0.602,0.647 -1.445,1.445 -2.149,1.705c-0.748,0.276 -1.656,0.437 -2.831,0.236c-5.418,-0.927 -5.218,-7.183 -2.568,-9.827c0.153,-0.153 0.402,-0.473 0.619,-0.762Zm2.649,6.501c1.194,0.204 1.286,-0.783 1.92,-1.46c0.926,-0.991 1.055,-1.816 2.885,-1.367c0.95,0.234 1.361,1.574 3.736,2.957c1.76,1.026 3.756,2.066 4.469,1.409c0.657,-0.606 0.103,-1.95 -0.781,-3.008c-0.804,-0.963 -1.923,-1.633 -1.857,-2.402c0.067,-0.773 0.267,-1.648 1.155,-2.422c0.965,-0.84 3.04,-0.491 2.315,-1.85c-0.341,-0.639 -1.617,-0.962 -2.854,-0.429c-1.6,0.69 -3.208,1.418 -4.019,1.11c-2.167,-0.822 -1.798,-1.825 -1.883,-2.962c-0.145,-1.952 -1.022,-2.731 -2.388,-2.596c-1.779,0.176 -2.563,1.495 -2.348,3.115c0.148,1.12 1.585,2.505 1.461,3.661c-0.124,1.156 -1.373,2.666 -2.149,3.44c-0.736,0.736 -1.168,2.546 0.338,2.804Z"/><path d="M545.412,253.412c-0.657,0.572 -0.919,1.473 -0.783,2.495c0.148,1.119 1.585,2.504 1.461,3.66c-0.124,1.156 -1.373,2.666 -2.149,3.441c-0.684,0.682 -1.105,2.293 0.045,2.725c-0.298,0.466 -0.608,0.842 -1.389,0.709c-1.506,-0.258 -1.074,-2.068 -0.338,-2.804c0.776,-0.774 2.025,-2.284 2.149,-3.44c0.124,-1.156 -1.313,-2.541 -1.461,-3.661c-0.215,-1.62 0.569,-2.939 2.348,-3.115c0.039,-0.004 0.078,-0.007 0.117,-0.01Zm1.487,10.105c0.465,-0.543 0.916,-0.844 2.185,-0.532c0.95,0.233 1.361,1.573 3.736,2.957c1.044,0.608 2.171,1.221 3.064,1.483c-0.03,0.219 -0.118,0.409 -0.277,0.556c-0.713,0.657 -2.709,-0.383 -4.469,-1.409c-2.375,-1.383 -2.786,-2.723 -3.736,-2.957c-0.184,-0.045 -0.351,-0.077 -0.503,-0.098Zm9.052,-4.111c0.142,-0.098 0.3,-0.177 0.466,-0.244c-0.114,0.101 -0.276,0.177 -0.466,0.244Zm-1.644,-1.754c-0.565,0.238 -1.11,0.453 -1.598,0.595c0.289,-0.123 0.582,-0.25 0.876,-0.377c0.241,-0.104 0.484,-0.176 0.722,-0.218Z" style="fill:#9b2827;"/></g><g><path d="M728.44,233.115c0.93,2.015 1.101,4.578 3.441,4.817c1.18,0.12 1.977,-0.337 3.003,-1.536c0.779,-0.911 1.029,-2.506 1.029,-2.506c-0,0 7.017,1.029 7.362,-1.608" style="fill:none;stroke:#326431;stroke-width:2.45px;"/><path d="M733.109,234.274c0.849,-0.287 0.562,-0.963 0.736,-1.628c0.254,-0.972 0.047,-1.555 1.398,-1.908c0.701,-0.183 1.442,0.545 3.477,0.61c1.509,0.047 3.176,0.021 3.408,-0.659c0.215,-0.627 -0.62,-1.307 -1.569,-1.684c-0.864,-0.344 -1.829,-0.386 -2.057,-0.91c-0.229,-0.528 -0.407,-1.169 -0.101,-1.986c0.332,-0.888 1.807,-1.392 0.855,-2.022c-0.447,-0.296 -1.393,-0.056 -2.011,0.727c-0.799,1.014 -1.59,2.056 -2.227,2.141c-1.702,0.229 -1.815,-0.556 -2.271,-1.267c-0.784,-1.22 -1.63,-1.419 -2.472,-0.848c-1.098,0.742 -1.143,1.877 -0.431,2.858c0.491,0.676 1.916,1.073 2.242,1.87c0.327,0.797 0.046,2.221 -0.186,2.999c-0.221,0.739 0.136,2.071 1.209,1.707Z" style="fill:#30b989;"/><path d="M734.656,223.13c0.063,-0.077 0.122,-0.15 0.176,-0.218c1.079,-1.37 2.616,-1.972 3.79,-2.018c0.92,-0.035 1.718,0.225 2.331,0.631c0.951,0.63 1.333,1.349 1.527,1.95c0.221,0.687 0.222,1.369 0.014,2.054c-0.059,0.191 -0.231,0.477 -0.437,0.776c1.253,0.586 2.273,1.526 2.724,2.381c0.522,0.988 0.594,2.01 0.255,2.999c-0.33,0.964 -1.078,1.867 -2.426,2.349c-0.931,0.333 -2.509,0.432 -3.987,0.385c-0.698,-0.022 -1.388,-0.131 -1.968,-0.254c-0.164,0.633 -0.432,1.45 -0.799,1.868c-0.39,0.444 -0.925,0.869 -1.761,1.152c-3.858,1.307 -5.934,-2.84 -5.14,-5.497c0.046,-0.154 0.095,-0.45 0.134,-0.715c-0.58,-0.411 -1.426,-1.047 -1.732,-1.47c-0.859,-1.182 -1.171,-2.484 -1.028,-3.688c0.154,-1.29 0.805,-2.561 2.223,-3.521c1.01,-0.683 2.044,-0.913 3.044,-0.811c0.985,0.101 2.075,0.54 3.06,1.647Zm-1.547,11.144c0.849,-0.287 0.562,-0.963 0.736,-1.628c0.254,-0.972 0.047,-1.555 1.398,-1.908c0.701,-0.183 1.442,0.545 3.477,0.61c1.509,0.047 3.176,0.021 3.408,-0.659c0.215,-0.627 -0.62,-1.307 -1.569,-1.684c-0.864,-0.344 -1.829,-0.386 -2.057,-0.91c-0.229,-0.528 -0.407,-1.169 -0.101,-1.986c0.332,-0.888 1.807,-1.392 0.855,-2.022c-0.447,-0.296 -1.393,-0.056 -2.011,0.727c-0.799,1.014 -1.59,2.056 -2.227,2.141c-1.702,0.229 -1.815,-0.556 -2.271,-1.267c-0.784,-1.22 -1.63,-1.419 -2.472,-0.848c-1.098,0.742 -1.143,1.877 -0.431,2.858c0.491,0.676 1.916,1.073 2.242,1.87c0.327,0.797 0.046,2.221 -0.186,2.999c-0.221,0.739 0.136,2.071 1.209,1.707Z"/><path d="M730.347,224.792c-0.226,0.604 -0.079,1.283 0.37,1.901c0.491,0.677 1.916,1.074 2.243,1.871c0.327,0.796 0.046,2.221 -0.187,2.999c-0.205,0.686 0.089,1.884 0.991,1.76c-0.03,0.409 -0.099,0.763 -0.655,0.951c-1.073,0.364 -1.43,-0.968 -1.209,-1.707c0.232,-0.778 0.513,-2.202 0.186,-2.999c-0.326,-0.797 -1.751,-1.194 -2.242,-1.87c-0.712,-0.981 -0.667,-2.116 0.431,-2.858c0.024,-0.017 0.048,-0.033 0.072,-0.048Zm4.533,6.06c0.112,-0.518 0.3,-0.873 1.236,-1.118c0.701,-0.183 1.442,0.545 3.477,0.61c0.895,0.028 1.846,0.03 2.52,-0.115c0.058,0.153 0.067,0.308 0.015,0.46c-0.232,0.68 -1.899,0.706 -3.408,0.659c-2.035,-0.065 -2.776,-0.793 -3.477,-0.61c-0.136,0.036 -0.256,0.074 -0.363,0.114Zm4.449,-5.872c0.058,-0.113 0.133,-0.221 0.217,-0.323c-0.038,0.106 -0.117,0.213 -0.217,0.323Zm-1.69,-0.563c-0.285,0.355 -0.564,0.687 -0.832,0.952c0.145,-0.182 0.292,-0.369 0.438,-0.555c0.121,-0.153 0.254,-0.285 0.394,-0.397Z" style="fill:#139f74;"/></g><g><path d="M477.73,258.625c-0.325,-0.96 -0.656,-2.502 -0.302,-4.261c0.71,-3.53 3.089,-5.345 5.308,-5.288c0.725,0.018 1.916,0.374 2.979,1.202c1.469,1.143 2.699,3.09 2.205,5.619c-0.104,0.533 -0.037,1.577 0.02,2.218c0.181,-0.059 0.347,-0.148 0.503,-0.189c0.608,-0.162 1.172,-0.233 1.68,-0.178c1.026,0.111 2.056,0.545 2.787,2.195c0.685,1.544 0.638,3.097 0.199,4.499c-0.558,1.78 -1.787,3.278 -2.56,4.014c-1.714,1.631 -4.613,1.819 -7.071,-0.256c-0.618,-0.523 -1.149,-1.427 -1.639,-2.394c-0.046,-0.092 -0.108,-0.201 -0.174,-0.314c-0.127,0.193 -0.256,0.395 -0.345,0.556c-0.587,1.054 -1.209,2.036 -1.833,2.534c-2.783,2.22 -4.979,1.003 -6.158,0.46c-0.883,-0.406 -1.585,-1.195 -1.985,-2.224c-0.411,-1.058 -0.481,-2.38 -0.304,-3.314c0.557,-2.936 2.128,-3.834 3.909,-4.442c0.881,-0.301 1.689,-0.394 2.425,-0.423c0.107,-0.004 0.23,-0.009 0.356,-0.014Zm-3.447,8.344c0.723,0.333 2.075,1.19 3.781,-0.171c1.122,-0.895 1.884,-4.206 3.669,-4.102c1.792,0.104 2.153,2.861 3.218,3.76c1.403,1.185 3.046,1.278 4.025,0.347c0.979,-0.932 2.948,-3.455 1.848,-5.935c-0.875,-1.973 -2.34,0.193 -4.372,-0.647c-0.96,-0.398 -1.074,-3.212 -0.772,-4.761c0.498,-2.547 -1.994,-4.077 -3.002,-4.103c-1.358,-0.034 -2.578,1.297 -3.013,3.458c-0.648,3.217 1.235,3.844 0.622,5.032c-0.87,1.688 -2.449,0.639 -4.601,1.374c-1.089,0.372 -2.063,0.911 -2.404,2.708c-0.184,0.969 0.06,2.607 1.001,3.04Z" style="fill:#326431;"/><path d="M475.922,265.549c0.673,0.303 1.933,1.082 3.522,-0.155c1.046,-0.815 1.755,-3.824 3.418,-3.73c1.67,0.095 2.006,2.602 2.998,3.419c1.308,1.077 2.838,1.162 3.75,0.315c0.912,-0.847 2.747,-3.141 1.722,-5.395c-0.815,-1.793 -2.181,0.176 -4.073,-0.589c-0.895,-0.361 -1.001,-2.919 -0.719,-4.328c0.464,-2.315 -1.858,-3.706 -2.797,-3.729c-1.266,-0.031 -2.402,1.179 -2.807,3.143c-0.604,2.925 1.151,3.495 0.58,4.575c-0.811,1.534 -2.282,0.581 -4.287,1.249c-1.015,0.338 -1.922,0.828 -2.239,2.461c-0.172,0.882 0.055,2.37 0.932,2.764Z" style="fill:#c6d42c;"/><path d="M478.9,257.765c-0.277,-0.904 -0.508,-2.232 -0.199,-3.726c0.684,-3.317 2.962,-5.016 5.099,-4.963c0.692,0.017 1.83,0.348 2.847,1.12c1.429,1.084 2.611,2.938 2.13,5.339c-0.081,0.407 -0.049,1.168 -0.009,1.712c0.112,-0.046 0.218,-0.097 0.319,-0.123c0.58,-0.15 1.118,-0.215 1.603,-0.164c1.004,0.106 2.003,0.523 2.719,2.099c0.667,1.465 0.623,2.939 0.195,4.271c-0.532,1.657 -1.703,3.055 -2.441,3.74c-1.638,1.521 -4.407,1.709 -6.754,-0.226c-0.497,-0.41 -0.943,-1.038 -1.333,-1.77c-0.077,-0.146 -0.186,-0.339 -0.295,-0.531c-0.067,0.104 -0.13,0.204 -0.179,0.29c-0.562,0.984 -1.159,1.896 -1.756,2.361c-2.648,2.062 -4.737,0.941 -5.859,0.437c-0.865,-0.389 -1.55,-1.143 -1.941,-2.127c-0.401,-1.007 -0.469,-2.264 -0.297,-3.154c0.537,-2.763 2.041,-3.619 3.759,-4.191c0.831,-0.277 1.595,-0.363 2.289,-0.39c0.033,-0.001 0.067,-0.003 0.103,-0.004Zm-2.978,7.784c0.673,0.303 1.933,1.082 3.522,-0.155c1.046,-0.815 1.755,-3.824 3.418,-3.73c1.67,0.095 2.006,2.602 2.998,3.419c1.308,1.077 2.838,1.162 3.75,0.315c0.912,-0.847 2.747,-3.141 1.722,-5.395c-0.815,-1.793 -2.181,0.176 -4.073,-0.589c-0.895,-0.361 -1.001,-2.919 -0.719,-4.328c0.464,-2.315 -1.858,-3.706 -2.797,-3.729c-1.266,-0.031 -2.402,1.179 -2.807,3.143c-0.604,2.925 1.151,3.495 0.58,4.575c-0.811,1.534 -2.282,0.581 -4.287,1.249c-1.015,0.338 -1.922,0.828 -2.239,2.461c-0.172,0.882 0.055,2.37 0.932,2.764Z"/><path d="M476.055,260.895c-0.151,0.285 -0.272,0.629 -0.353,1.049c-0.171,0.881 0.056,2.37 0.932,2.763c0.665,0.299 1.902,1.063 3.463,-0.11c-0.21,0.334 -0.424,0.618 -0.653,0.797c-1.589,1.237 -2.849,0.458 -3.522,0.155c-0.877,-0.394 -1.104,-1.882 -0.932,-2.764c0.185,-0.955 0.572,-1.519 1.065,-1.89Zm5.768,1.156c0.472,-0.71 1.019,-1.27 1.752,-1.228c1.669,0.094 2.006,2.601 2.998,3.418c1.307,1.078 2.838,1.162 3.75,0.315c0.063,-0.059 0.131,-0.125 0.202,-0.197c-0.322,0.441 -0.655,0.798 -0.915,1.039c-0.912,0.847 -2.442,0.762 -3.75,-0.315c-0.992,-0.817 -1.328,-3.324 -2.998,-3.419c-0.394,-0.022 -0.735,0.13 -1.039,0.387Zm0.497,-10.163c-0.297,0.483 -0.53,1.08 -0.672,1.77c-0.604,2.925 1.151,3.495 0.58,4.575c-0.184,0.348 -0.402,0.568 -0.652,0.708c0.367,-0.998 -1.218,-1.639 -0.64,-4.441c0.242,-1.175 0.747,-2.081 1.384,-2.612Z" style="fill:#a9b537;"/></g></g><g><g><path d="M196.661,414.719c2.521,-0.217 5.294,1.075 4.895,5.045c-0.233,2.316 -2.028,5.056 -5.986,5.103c-2.844,0.033 -2.259,-3.142 -2.262,-4.33c-0.002,-0.85 -0.629,-0.587 -0.659,-1.758c-0.049,-1.932 2.699,-3.947 4.012,-4.06Z" style="fill:#9c8336;"/><path d="M191.018,420.944c-0.272,-0.416 -0.625,-1.138 -0.65,-2.107c-0.033,-1.305 0.577,-2.68 1.597,-3.815c1.339,-1.489 3.337,-2.477 4.5,-2.577c2.268,-0.195 4.627,0.54 6.057,2.351c0.935,1.184 1.539,2.864 1.305,5.196c-0.323,3.212 -2.743,7.092 -8.231,7.156c-1.436,0.017 -2.411,-0.454 -3.108,-1.083c-0.694,-0.626 -1.131,-1.465 -1.342,-2.407c-0.207,-0.928 -0.152,-1.98 -0.128,-2.714Zm5.643,-6.225c-1.313,0.113 -4.061,2.128 -4.012,4.06c0.03,1.171 0.657,0.908 0.659,1.758c0.003,1.188 -0.582,4.363 2.262,4.33c3.958,-0.047 5.753,-2.787 5.986,-5.103c0.399,-3.97 -2.374,-5.262 -4.895,-5.045Z" style="fill:#94742b;"/><path d="M197.645,414.592c2.352,-0.184 4.937,0.913 4.565,4.285c-0.217,1.967 -1.891,4.294 -5.582,4.334c-2.652,0.028 -2.106,-2.669 -2.109,-3.677c-0.001,-0.723 -0.586,-0.499 -0.614,-1.494c-0.045,-1.641 2.516,-3.352 3.74,-3.448Z" style="fill:#9c8336;"/><path d="M192.222,420.015c-0.268,-0.413 -0.574,-1.065 -0.598,-1.911c-0.034,-1.211 0.562,-2.509 1.601,-3.562c1.266,-1.283 3.142,-2.139 4.242,-2.225c2.135,-0.167 4.352,0.494 5.698,2.047c0.942,1.086 1.549,2.623 1.313,4.763c-0.309,2.808 -2.557,6.309 -7.825,6.365c-1.287,0.014 -2.179,-0.365 -2.825,-0.862c-0.988,-0.76 -1.479,-1.908 -1.6,-3.134c-0.052,-0.523 -0.026,-1.054 -0.006,-1.481Zm5.423,-5.423c-1.224,0.096 -3.785,1.807 -3.74,3.448c0.028,0.995 0.613,0.771 0.614,1.494c0.003,1.008 -0.543,3.705 2.109,3.677c3.691,-0.04 5.365,-2.367 5.582,-4.334c0.372,-3.372 -2.213,-4.469 -4.565,-4.285Z"/><path d="M200.211,422.175c-0.876,0.612 -2.057,1.019 -3.583,1.036c-2.652,0.028 -2.106,-2.669 -2.109,-3.677c-0.001,-0.723 -0.586,-0.499 -0.614,-1.494c-0.04,-1.441 1.93,-2.936 3.24,-3.344c-0.996,0.671 -1.905,1.68 -1.877,2.663c0.028,0.995 0.612,0.771 0.614,1.493c0.002,1.009 -0.543,3.706 2.109,3.677c0.843,-0.009 1.581,-0.137 2.22,-0.354Z" style="fill:#8a7431;"/></g><g><path d="M369.408,372.017c2.522,-0.217 5.294,1.074 4.896,5.045c-0.233,2.316 -2.029,5.056 -5.987,5.102c-2.844,0.034 -2.259,-3.141 -2.261,-4.329c-0.002,-0.85 -0.629,-0.587 -0.659,-1.759c-0.049,-1.931 2.698,-3.946 4.011,-4.059Z" style="fill:#9c8336;"/><path d="M363.766,378.242c-0.272,-0.416 -0.626,-1.138 -0.65,-2.108c-0.033,-1.304 0.576,-2.68 1.597,-3.814c1.338,-1.489 3.337,-2.477 4.5,-2.577c2.267,-0.195 4.627,0.54 6.057,2.351c0.934,1.183 1.539,2.864 1.304,5.196c-0.322,3.212 -2.742,7.092 -8.23,7.156c-1.436,0.017 -2.412,-0.454 -3.109,-1.083c-0.693,-0.626 -1.131,-1.465 -1.341,-2.408c-0.208,-0.927 -0.152,-1.979 -0.128,-2.713Zm5.642,-6.225c-1.313,0.113 -4.06,2.128 -4.011,4.059c0.03,1.172 0.657,0.909 0.659,1.759c0.002,1.188 -0.583,4.363 2.261,4.329c3.958,-0.046 5.754,-2.786 5.987,-5.102c0.398,-3.971 -2.374,-5.262 -4.896,-5.045Z" style="fill:#94742b;"/><path d="M370.393,371.89c2.351,-0.184 4.936,0.913 4.565,4.285c-0.217,1.967 -1.892,4.294 -5.582,4.333c-2.652,0.029 -2.107,-2.668 -2.109,-3.676c-0.002,-0.723 -0.586,-0.499 -0.614,-1.494c-0.046,-1.641 2.516,-3.352 3.74,-3.448Z" style="fill:#9c8336;"/><path d="M364.97,377.313c-0.268,-0.413 -0.575,-1.065 -0.598,-1.911c-0.034,-1.211 0.561,-2.509 1.601,-3.562c1.266,-1.283 3.142,-2.139 4.242,-2.225c2.134,-0.167 4.351,0.493 5.698,2.047c0.941,1.086 1.549,2.623 1.313,4.763c-0.31,2.808 -2.558,6.309 -7.826,6.365c-1.286,0.014 -2.178,-0.365 -2.824,-0.862c-0.988,-0.76 -1.479,-1.908 -1.6,-3.134c-0.052,-0.524 -0.026,-1.054 -0.006,-1.481Zm5.423,-5.423c-1.224,0.096 -3.786,1.807 -3.74,3.448c0.028,0.995 0.612,0.771 0.614,1.494c0.002,1.008 -0.543,3.705 2.109,3.676c3.69,-0.039 5.365,-2.366 5.582,-4.333c0.371,-3.372 -2.214,-4.469 -4.565,-4.285Z"/><path d="M372.959,379.473c-0.876,0.612 -2.057,1.019 -3.583,1.035c-2.652,0.029 -2.107,-2.668 -2.109,-3.676c-0.002,-0.723 -0.586,-0.499 -0.614,-1.494c-0.04,-1.441 1.93,-2.936 3.24,-3.344c-0.996,0.671 -1.905,1.679 -1.877,2.663c0.027,0.995 0.612,0.771 0.614,1.493c0.002,1.009 -0.543,3.706 2.108,3.677c0.844,-0.009 1.582,-0.137 2.221,-0.354Z" style="fill:#8a7431;"/></g><g><path d="M276.967,254.051c3.364,-1.357 7.75,-0.536 8.987,5.629c0.721,3.596 -0.513,8.47 -5.926,10.155c-3.889,1.211 -4.512,-3.827 -5.049,-5.621c-0.385,-1.285 -1.127,-0.631 -1.695,-2.39c-0.935,-2.9 1.931,-7.067 3.683,-7.773Z" style="fill:#9c8336;"/><path d="M272.84,265.032c-0.386,-0.293 -1.269,-1.086 -1.728,-2.507c-0.644,-1.997 -0.122,-4.453 1.005,-6.508c1.118,-2.038 2.8,-3.601 3.996,-4.083c2.269,-0.915 4.882,-1.032 7.137,0.055c2.174,1.049 4.137,3.231 4.942,7.242c0.908,4.53 -0.666,10.659 -7.485,12.783c-1.333,0.415 -2.443,0.349 -3.371,0.037c-1.359,-0.455 -2.393,-1.491 -3.104,-2.827c-0.745,-1.4 -1.103,-3.164 -1.392,-4.192Zm4.127,-10.981c-1.752,0.706 -4.618,4.873 -3.683,7.773c0.568,1.759 1.31,1.105 1.695,2.39c0.537,1.794 1.16,6.832 5.049,5.621c5.413,-1.685 6.647,-6.559 5.926,-10.155c-1.237,-6.165 -5.623,-6.986 -8.987,-5.629Z" style="fill:#94742b;"/><path d="M278.262,253.457c3.144,-1.238 7.186,-0.635 8.191,4.615c0.586,3.062 -0.667,7.262 -5.716,8.828c-3.627,1.125 -4.09,-3.174 -4.547,-4.698c-0.326,-1.091 -1.028,-0.514 -1.514,-2.007c-0.8,-2.461 1.948,-6.094 3.586,-6.738Z" style="fill:#9c8336;"/><path d="M274.086,263.149c-0.424,-0.321 -1.186,-1.036 -1.58,-2.248c-0.583,-1.796 -0.054,-4.055 1.101,-5.946c1.092,-1.788 2.689,-3.177 3.819,-3.622c2.592,-1.02 5.62,-1.007 7.932,0.626c1.514,1.069 2.794,2.851 3.337,5.684c0.755,3.947 -0.773,9.418 -7.282,11.437c-1.6,0.496 -2.849,0.307 -3.838,-0.167c-0.983,-0.471 -1.745,-1.272 -2.294,-2.258c-0.641,-1.15 -0.95,-2.594 -1.195,-3.506Zm4.176,-9.692c-1.638,0.644 -4.386,4.277 -3.586,6.738c0.486,1.493 1.188,0.916 1.514,2.007c0.457,1.524 0.92,5.823 4.547,4.698c5.049,-1.566 6.302,-5.766 5.716,-8.828c-1.005,-5.25 -5.047,-5.853 -8.191,-4.615Z"/><path d="M285.192,263.873c-0.928,1.282 -2.367,2.38 -4.455,3.027c-3.627,1.125 -4.09,-3.174 -4.547,-4.698c-0.326,-1.091 -1.028,-0.514 -1.514,-2.007c-0.702,-2.161 1.331,-5.226 2.946,-6.377c-1.066,1.421 -1.861,3.316 -1.381,4.791c0.485,1.493 1.187,0.916 1.514,2.008c0.456,1.524 0.919,5.822 4.547,4.697c1.154,-0.358 2.109,-0.853 2.89,-1.441Z" style="fill:#8a7431;"/></g><g><path d="M512.32,301.259c2.522,-0.217 5.295,1.074 4.896,5.045c-0.233,2.316 -2.029,5.056 -5.987,5.102c-2.844,0.034 -2.259,-3.141 -2.261,-4.329c-0.002,-0.85 -0.629,-0.587 -0.659,-1.759c-0.049,-1.932 2.698,-3.947 4.011,-4.059Z" style="fill:#9c8336;"/><path d="M506.678,307.484c-0.272,-0.416 -0.626,-1.139 -0.65,-2.108c-0.033,-1.304 0.576,-2.68 1.597,-3.814c1.338,-1.489 3.337,-2.477 4.5,-2.577c2.267,-0.195 4.627,0.539 6.057,2.351c0.934,1.183 1.539,2.864 1.304,5.196c-0.322,3.212 -2.742,7.092 -8.23,7.156c-1.436,0.017 -2.412,-0.454 -3.109,-1.083c-0.693,-0.626 -1.131,-1.465 -1.341,-2.408c-0.208,-0.927 -0.152,-1.979 -0.128,-2.713Zm5.642,-6.225c-1.313,0.112 -4.06,2.127 -4.011,4.059c0.03,1.172 0.657,0.909 0.659,1.759c0.002,1.188 -0.583,4.363 2.261,4.329c3.958,-0.046 5.754,-2.786 5.987,-5.102c0.399,-3.971 -2.374,-5.262 -4.896,-5.045Z" style="fill:#94742b;"/><path d="M513.305,301.132c2.351,-0.184 4.937,0.912 4.565,4.285c-0.217,1.967 -1.892,4.294 -5.582,4.333c-2.652,0.029 -2.107,-2.668 -2.109,-3.677c-0.002,-0.722 -0.586,-0.498 -0.614,-1.493c-0.046,-1.641 2.516,-3.352 3.74,-3.448Z" style="fill:#9c8336;"/><path d="M507.882,306.555c-0.268,-0.413 -0.575,-1.066 -0.598,-1.912c-0.034,-1.21 0.561,-2.508 1.601,-3.561c1.266,-1.283 3.142,-2.139 4.242,-2.225c2.134,-0.167 4.351,0.493 5.698,2.047c0.941,1.085 1.549,2.623 1.313,4.763c-0.31,2.808 -2.558,6.309 -7.826,6.365c-1.286,0.014 -2.178,-0.365 -2.824,-0.862c-0.988,-0.761 -1.479,-1.909 -1.6,-3.134c-0.052,-0.524 -0.026,-1.054 -0.006,-1.481Zm5.423,-5.423c-1.224,0.096 -3.786,1.807 -3.74,3.448c0.028,0.995 0.612,0.771 0.614,1.493c0.002,1.009 -0.543,3.706 2.109,3.677c3.69,-0.039 5.365,-2.366 5.582,-4.333c0.372,-3.373 -2.214,-4.469 -4.565,-4.285Z"/><path d="M515.871,308.715c-0.876,0.611 -2.057,1.019 -3.583,1.035c-2.652,0.029 -2.107,-2.668 -2.109,-3.677c-0.002,-0.722 -0.586,-0.498 -0.614,-1.493c-0.04,-1.441 1.93,-2.936 3.24,-3.344c-0.996,0.671 -1.905,1.679 -1.877,2.662c0.027,0.995 0.612,0.772 0.614,1.494c0.002,1.009 -0.543,3.705 2.108,3.677c0.844,-0.009 1.582,-0.138 2.221,-0.354Z" style="fill:#8a7431;"/></g><g><path d="M788.224,408.28c1.801,-0.876 3.056,-2.173 4.188,-2.852c1.117,-0.67 2.189,-0.946 3.26,-0.794c1.445,0.204 3.037,1.028 4.461,2.243c1.921,1.639 3.538,3.965 4.159,5.851c0.778,2.362 0.122,4.237 -1.422,5.164c-1.661,0.997 -6.644,3.12 -10.525,4.007c-2.018,0.46 -3.795,0.544 -4.896,0.236c-0.785,-0.22 -2.156,-0.952 -3.602,-1.565c-0.534,-0.226 -1.081,-0.434 -1.601,-0.547c-0.233,-0.05 -0.451,-0.117 -0.637,-0.061c-1.295,0.393 -2.349,0.209 -3.206,-0.253c-1.068,-0.576 -1.9,-1.727 -2.308,-3.258c-0.478,-1.802 -0.393,-4.189 -0.047,-5.771c0.214,-0.98 0.566,-1.717 0.87,-2.111c3.212,-4.17 8.706,-2.547 9.988,-1.723c0.518,0.333 0.979,0.917 1.318,1.434Zm-0.161,11.657c2.833,0.791 11.411,-2.668 13.633,-4.002c2.431,-1.459 -2.499,-8.497 -6.344,-9.042c-1.949,-0.276 -3.745,2.679 -7.334,3.944c-1.53,0.539 -1.036,-1.229 -2.346,-2.071c-0.891,-0.573 -4.713,-1.704 -6.947,1.196c-0.949,1.232 -1.46,8.934 2.221,7.817c2.076,-0.63 5.663,1.752 7.117,2.158Z" style="fill:#94742b;"/><path d="M789.57,418.759c2.834,0.752 11.411,-2.533 13.633,-3.799c2.431,-1.386 -2.498,-8.068 -6.344,-8.585c-1.948,-0.262 -3.745,2.543 -7.334,3.744c-1.529,0.512 -1.035,-1.167 -2.345,-1.966c-0.892,-0.544 -4.713,-1.618 -6.947,1.135c-0.95,1.17 -1.46,8.482 2.221,7.422c2.075,-0.598 5.663,1.664 7.116,2.049Z" style="fill:#9c8336;"/><path d="M789.711,407.596c1.835,-0.833 3.108,-2.085 4.253,-2.738c1.097,-0.625 2.148,-0.887 3.199,-0.745c1.437,0.193 3.016,0.974 4.432,2.121c1.939,1.571 3.566,3.804 4.193,5.61c0.809,2.335 0.152,4.182 -1.455,5.098c-1.658,0.945 -6.631,2.958 -10.505,3.797c-1.996,0.433 -3.753,0.515 -4.843,0.226c-0.783,-0.208 -2.15,-0.902 -3.592,-1.483c-0.539,-0.217 -1.092,-0.415 -1.616,-0.523c-0.253,-0.052 -0.49,-0.115 -0.691,-0.056c-1.265,0.364 -2.295,0.192 -3.133,-0.236c-1.09,-0.559 -1.926,-1.674 -2.342,-3.159c-0.489,-1.745 -0.403,-4.056 -0.05,-5.587c0.221,-0.963 0.586,-1.684 0.9,-2.071c1.616,-1.991 3.788,-2.637 5.736,-2.648c1.897,-0.011 3.543,0.619 4.171,1.003c0.53,0.323 0.999,0.89 1.343,1.391Zm-0.141,11.163c2.834,0.752 11.411,-2.533 13.633,-3.799c2.431,-1.386 -2.498,-8.068 -6.344,-8.585c-1.948,-0.262 -3.745,2.543 -7.334,3.744c-1.529,0.512 -1.035,-1.167 -2.345,-1.966c-0.892,-0.544 -4.713,-1.618 -6.947,1.135c-0.95,1.17 -1.46,8.482 2.221,7.422c2.075,-0.598 5.663,1.664 7.116,2.049Z"/><path d="M781.551,408.157c-0.042,0.05 -0.084,0.1 -0.125,0.153c-0.949,1.206 -1.459,8.745 2.221,7.651c2.076,-0.617 5.663,1.715 7.117,2.113c2.571,0.703 9.873,-2.021 12.863,-3.506c-0.103,0.156 -0.243,0.289 -0.424,0.392c-2.222,1.266 -10.799,4.551 -13.633,3.799c-1.453,-0.385 -5.041,-2.647 -7.116,-2.049c-3.681,1.06 -3.171,-6.252 -2.221,-7.422c0.397,-0.49 0.845,-0.859 1.318,-1.131Z" style="fill:#8a7431;"/></g><g><path d="M213.129,426.648c1.349,-0.85 2.325,-1.975 3.22,-2.588c1.091,-0.747 2.154,-1.03 3.2,-0.861c1.328,0.215 2.81,1.062 4.12,2.337c1.68,1.637 3.1,3.949 3.643,5.831c0.661,2.288 0.032,4.112 -1.278,5.009c-1.476,1.012 -5.904,3.166 -9.353,4.065c-1.885,0.491 -3.548,0.557 -4.576,0.229c-0.7,-0.223 -1.927,-0.964 -3.215,-1.588c-0.366,-0.177 -0.739,-0.342 -1.102,-0.455c-0.175,-0.055 -0.476,-0.101 -0.547,-0.111c-1.272,0.421 -2.308,0.207 -3.155,-0.314c-0.938,-0.577 -1.708,-1.727 -2.065,-3.261c-0.411,-1.762 -0.336,-4.097 -0.04,-5.645c0.182,-0.95 0.485,-1.671 0.743,-2.053c2.995,-4.437 8.133,-2.635 9.328,-1.759c0.459,0.337 0.807,0.736 1.077,1.164Zm-0.331,11.848c2.483,0.791 9.999,-2.668 11.946,-4.002c2.131,-1.46 -2.189,-8.498 -5.559,-9.042c-1.707,-0.276 -3.282,2.679 -6.427,3.943c-1.34,0.539 -0.907,-1.229 -2.055,-2.07c-0.781,-0.573 -4.13,-1.704 -6.088,1.195c-0.832,1.233 -1.279,8.934 1.946,7.817c1.819,-0.63 4.963,1.752 6.237,2.159Z" style="fill:#94742b;"/><path d="M214.099,437.268c2.482,0.752 9.999,-2.533 11.946,-3.799c2.13,-1.386 -2.189,-8.068 -5.559,-8.585c-1.707,-0.262 -3.282,2.544 -6.427,3.744c-1.34,0.512 -0.907,-1.167 -2.055,-1.966c-0.782,-0.544 -4.13,-1.618 -6.088,1.135c-0.832,1.17 -1.279,8.483 1.946,7.422c1.819,-0.598 4.963,1.664 6.237,2.049Z" style="fill:#9c8336;"/><path d="M214.358,425.963c1.409,-0.815 2.417,-1.928 3.337,-2.526c1.071,-0.697 2.11,-0.966 3.137,-0.809c1.322,0.203 2.791,1.008 4.095,2.213c1.697,1.57 3.128,3.791 3.677,5.597c0.687,2.261 0.049,4.057 -1.315,4.944c-1.473,0.959 -5.892,3 -9.335,3.852c-1.86,0.46 -3.501,0.526 -4.516,0.219c-0.699,-0.212 -1.921,-0.914 -3.206,-1.505c-0.369,-0.169 -0.746,-0.327 -1.112,-0.435c-0.197,-0.059 -0.534,-0.102 -0.594,-0.11c-1.248,0.396 -2.265,0.197 -3.095,-0.288c-0.96,-0.561 -1.737,-1.677 -2.103,-3.169c-0.418,-1.703 -0.343,-3.96 -0.042,-5.455c0.189,-0.935 0.503,-1.64 0.77,-2.016c2.973,-4.181 8.065,-2.512 9.252,-1.686c0.398,0.277 0.76,0.732 1.05,1.174Zm-0.259,11.305c2.482,0.752 9.999,-2.533 11.946,-3.799c2.13,-1.386 -2.189,-8.068 -5.559,-8.585c-1.707,-0.262 -3.282,2.544 -6.427,3.744c-1.34,0.512 -0.907,-1.167 -2.055,-1.966c-0.782,-0.544 -4.13,-1.618 -6.088,1.135c-0.832,1.17 -1.279,8.483 1.946,7.422c1.819,-0.598 4.963,1.664 6.237,2.049Z"/><path d="M207.071,426.667c-0.037,0.049 -0.073,0.1 -0.109,0.152c-0.832,1.206 -1.279,8.745 1.946,7.651c1.819,-0.616 4.963,1.716 6.237,2.113c2.253,0.703 8.652,-2.02 11.271,-3.506c-0.09,0.157 -0.213,0.289 -0.371,0.392c-1.947,1.266 -9.464,4.551 -11.946,3.799c-1.274,-0.385 -4.418,-2.647 -6.237,-2.049c-3.225,1.061 -2.778,-6.252 -1.946,-7.422c0.348,-0.49 0.741,-0.858 1.155,-1.13Z" style="fill:#8a7431;"/></g><g><path d="M772.82,252.296c1.349,-0.85 2.326,-1.976 3.22,-2.589c1.091,-0.747 2.154,-1.03 3.2,-0.861c1.329,0.215 2.811,1.063 4.12,2.338c1.681,1.636 3.1,3.948 3.644,5.831c0.66,2.287 0.031,4.111 -1.279,5.009c-1.476,1.011 -5.903,3.165 -9.353,4.064c-1.885,0.491 -3.548,0.557 -4.576,0.229c-0.7,-0.223 -1.926,-0.964 -3.215,-1.588c-0.366,-0.177 -0.739,-0.341 -1.102,-0.455c-0.175,-0.055 -0.476,-0.1 -0.547,-0.11c-1.271,0.421 -2.308,0.207 -3.155,-0.314c-0.938,-0.577 -1.708,-1.728 -2.065,-3.262c-0.411,-1.762 -0.336,-4.097 -0.04,-5.644c0.182,-0.951 0.485,-1.671 0.743,-2.053c2.996,-4.437 8.133,-2.636 9.329,-1.759c0.459,0.336 0.806,0.736 1.076,1.164Zm-0.331,11.847c2.483,0.791 10,-2.668 11.946,-4.002c2.131,-1.459 -2.189,-8.497 -5.559,-9.042c-1.707,-0.276 -3.282,2.679 -6.426,3.944c-1.341,0.539 -0.908,-1.229 -2.056,-2.071c-0.781,-0.573 -4.13,-1.704 -6.088,1.196c-0.832,1.232 -1.279,8.934 1.947,7.816c1.819,-0.629 4.962,1.753 6.236,2.159Z" style="fill:#94742b;"/><path d="M773.81,262.965c2.483,0.752 10,-2.533 11.946,-3.799c2.131,-1.386 -2.189,-8.068 -5.559,-8.585c-1.707,-0.262 -3.282,2.543 -6.426,3.744c-1.341,0.511 -0.908,-1.167 -2.056,-1.966c-0.781,-0.544 -4.13,-1.618 -6.088,1.135c-0.832,1.17 -1.279,8.482 1.947,7.422c1.818,-0.598 4.962,1.663 6.236,2.049Z" style="fill:#9c8336;"/><path d="M774.07,251.659c1.408,-0.815 2.417,-1.927 3.336,-2.525c1.072,-0.697 2.11,-0.967 3.137,-0.809c1.323,0.203 2.792,1.008 4.095,2.213c1.698,1.569 3.129,3.791 3.677,5.596c0.688,2.261 0.05,4.057 -1.314,4.945c-1.474,0.958 -5.893,3 -9.336,3.851c-1.86,0.461 -3.501,0.527 -4.516,0.219c-0.698,-0.211 -1.92,-0.913 -3.206,-1.504c-0.369,-0.17 -0.745,-0.327 -1.111,-0.436c-0.197,-0.059 -0.534,-0.102 -0.595,-0.109c-1.248,0.396 -2.265,0.196 -3.094,-0.288c-0.961,-0.562 -1.738,-1.678 -2.104,-3.17c-0.418,-1.703 -0.343,-3.96 -0.041,-5.455c0.188,-0.935 0.502,-1.64 0.77,-2.016c2.973,-4.18 8.065,-2.511 9.251,-1.685c0.398,0.277 0.761,0.732 1.051,1.173Zm-0.26,11.306c2.483,0.752 10,-2.533 11.946,-3.799c2.131,-1.386 -2.189,-8.068 -5.559,-8.585c-1.707,-0.262 -3.282,2.543 -6.426,3.744c-1.341,0.511 -0.908,-1.167 -2.056,-1.966c-0.781,-0.544 -4.13,-1.618 -6.088,1.135c-0.832,1.17 -1.279,8.482 1.947,7.422c1.818,-0.598 4.962,1.663 6.236,2.049Z"/><path d="M766.782,252.363c-0.036,0.05 -0.073,0.1 -0.109,0.152c-0.832,1.207 -1.279,8.746 1.947,7.652c1.818,-0.617 4.962,1.715 6.236,2.113c2.253,0.703 8.652,-2.021 11.272,-3.506c-0.091,0.156 -0.213,0.289 -0.372,0.392c-1.946,1.266 -9.463,4.551 -11.946,3.799c-1.274,-0.386 -4.418,-2.647 -6.236,-2.049c-3.226,1.06 -2.779,-6.252 -1.947,-7.422c0.349,-0.49 0.741,-0.859 1.155,-1.131Z" style="fill:#8a7431;"/></g><g><path d="M154.566,283.555c1.349,-0.85 2.325,-1.975 3.22,-2.588c1.091,-0.747 2.154,-1.03 3.2,-0.861c1.329,0.215 2.81,1.063 4.12,2.338c1.68,1.636 3.1,3.948 3.643,5.83c0.661,2.288 0.032,4.112 -1.278,5.01c-1.476,1.011 -5.904,3.165 -9.353,4.064c-1.885,0.491 -3.548,0.557 -4.576,0.229c-0.7,-0.223 -1.927,-0.964 -3.215,-1.588c-0.366,-0.177 -0.739,-0.342 -1.102,-0.455c-0.175,-0.055 -0.476,-0.1 -0.547,-0.111c-1.272,0.421 -2.308,0.208 -3.155,-0.314c-0.938,-0.577 -1.708,-1.727 -2.065,-3.261c-0.411,-1.762 -0.336,-4.097 -0.04,-5.645c0.182,-0.95 0.485,-1.67 0.743,-2.053c2.996,-4.436 8.133,-2.635 9.328,-1.759c0.459,0.337 0.807,0.737 1.077,1.164Zm-0.331,11.848c2.483,0.791 10,-2.668 11.946,-4.002c2.131,-1.459 -2.189,-8.497 -5.559,-9.042c-1.707,-0.276 -3.282,2.679 -6.426,3.943c-1.341,0.539 -0.908,-1.228 -2.056,-2.07c-0.781,-0.573 -4.13,-1.704 -6.088,1.195c-0.832,1.233 -1.279,8.934 1.947,7.817c1.818,-0.63 4.962,1.753 6.236,2.159Z" style="fill:#94742b;"/><path d="M155.556,294.225c2.483,0.751 9.999,-2.533 11.946,-3.799c2.131,-1.386 -2.189,-8.068 -5.559,-8.586c-1.707,-0.262 -3.282,2.544 -6.426,3.745c-1.341,0.511 -0.908,-1.167 -2.056,-1.966c-0.781,-0.544 -4.13,-1.618 -6.088,1.135c-0.832,1.17 -1.279,8.482 1.947,7.422c1.818,-0.599 4.962,1.663 6.236,2.049Z" style="fill:#9c8336;"/><path d="M155.816,282.919c1.408,-0.815 2.417,-1.927 3.336,-2.526c1.072,-0.696 2.11,-0.966 3.137,-0.808c1.323,0.203 2.791,1.007 4.095,2.213c1.698,1.569 3.128,3.791 3.677,5.596c0.688,2.261 0.05,4.057 -1.314,4.944c-1.474,0.959 -5.893,3.001 -9.336,3.852c-1.86,0.46 -3.501,0.526 -4.516,0.219c-0.699,-0.211 -1.921,-0.913 -3.206,-1.504c-0.369,-0.17 -0.745,-0.327 -1.111,-0.436c-0.198,-0.059 -0.534,-0.102 -0.595,-0.11c-1.248,0.397 -2.265,0.197 -3.094,-0.288c-0.961,-0.561 -1.738,-1.677 -2.104,-3.169c-0.418,-1.703 -0.343,-3.96 -0.042,-5.455c0.189,-0.935 0.503,-1.64 0.77,-2.016c2.973,-4.18 8.065,-2.511 9.252,-1.685c0.398,0.277 0.761,0.732 1.051,1.173Zm-0.26,11.306c2.483,0.751 9.999,-2.533 11.946,-3.799c2.131,-1.386 -2.189,-8.068 -5.559,-8.586c-1.707,-0.262 -3.282,2.544 -6.426,3.745c-1.341,0.511 -0.908,-1.167 -2.056,-1.966c-0.781,-0.544 -4.13,-1.618 -6.088,1.135c-0.832,1.17 -1.279,8.482 1.947,7.422c1.818,-0.599 4.962,1.663 6.236,2.049Z"/><path d="M148.528,283.623c-0.037,0.049 -0.073,0.1 -0.109,0.152c-0.832,1.206 -1.279,8.745 1.947,7.652c1.818,-0.617 4.962,1.715 6.236,2.113c2.253,0.703 8.652,-2.021 11.271,-3.507c-0.09,0.157 -0.212,0.29 -0.371,0.393c-1.947,1.266 -9.463,4.55 -11.946,3.799c-1.274,-0.386 -4.418,-2.648 -6.236,-2.049c-3.226,1.06 -2.779,-6.252 -1.947,-7.422c0.349,-0.49 0.741,-0.859 1.155,-1.131Z" style="fill:#8a7431;"/></g><g><path d="M30.654,410.239c1.989,-0.755 4.034,-1.851 5.843,-1.625c1.808,0.226 2.668,3.472 4.592,4.106c2.804,0.923 6.69,1.696 7.287,5.019c0.264,1.471 -1.612,2.686 -3.072,3.004c-2.338,0.51 -5.151,-1.466 -9.612,-0.639c-3.481,0.645 -4.821,-3.284 -5.422,-4.09c-0.501,-0.67 -1.606,-5.02 0.384,-5.775Z" style="fill:#9c8336;stroke:#000;stroke-width:2.28px;stroke-linecap:round;"/><path d="M47.232,418.18c-0.36,0.873 -1.969,1.473 -2.412,1.506c-1.83,0.134 -4.834,-1.291 -8.838,-0.613c-3.125,0.529 -4.106,-2.772 -4.646,-3.433c-0.45,-0.55 -1.182,-3.862 -0.286,-4.325c0.061,-0.032 0.591,-0.254 0.657,-0.277c-0.358,1.297 0.359,3.152 0.683,3.549c0.541,0.661 1.743,3.882 4.868,3.353c4.004,-0.678 6.529,0.942 8.628,0.524c0.511,-0.102 0.857,0.01 1.346,-0.284Z" style="fill:#8a7431;"/></g><g><path d="M564.3,422.484c1.99,-0.755 4.034,-1.851 5.843,-1.625c1.809,0.226 2.668,3.472 4.593,4.106c2.803,0.923 6.689,1.695 7.287,5.019c0.264,1.47 -1.613,2.685 -3.072,3.004c-2.339,0.51 -5.152,-1.467 -9.612,-0.64c-3.481,0.645 -4.821,-3.283 -5.423,-4.089c-0.5,-0.671 -1.605,-5.02 0.384,-5.775Z" style="fill:#9c8336;stroke:#000;stroke-width:2.28px;stroke-linecap:round;"/><path d="M580.878,430.424c-0.36,0.874 -1.968,1.474 -2.412,1.506c-1.83,0.134 -4.833,-1.29 -8.837,-0.612c-3.125,0.529 -4.107,-2.773 -4.647,-3.434c-0.449,-0.55 -1.181,-3.862 -0.286,-4.325c0.061,-0.031 0.592,-0.253 0.657,-0.276c-0.357,1.297 0.36,3.152 0.684,3.548c0.54,0.661 1.743,3.882 4.867,3.353c4.004,-0.678 6.53,0.943 8.629,0.524c0.511,-0.101 0.857,0.011 1.345,-0.284Z" style="fill:#8a7431;"/></g><g><path d="M50.096,264.545c1.218,-0.462 2.47,-1.133 3.577,-0.995c1.107,0.138 1.633,2.125 2.811,2.514c1.717,0.565 4.095,1.038 4.461,3.072c0.162,0.9 -0.987,1.644 -1.88,1.839c-1.432,0.312 -3.154,-0.898 -5.885,-0.392c-2.13,0.396 -2.951,-2.009 -3.319,-2.503c-0.306,-0.41 -0.983,-3.073 0.235,-3.535Z" style="fill:#9c8336;stroke:#000;stroke-width:1.4px;stroke-linecap:round;"/><path d="M60.245,269.406c-0.221,0.534 -1.205,0.902 -1.477,0.922c-1.12,0.082 -2.959,-0.79 -5.41,-0.375c-1.913,0.324 -2.514,-1.698 -2.845,-2.102c-0.275,-0.337 -0.723,-2.364 -0.175,-2.648c0.038,-0.019 0.363,-0.155 0.403,-0.169c-0.219,0.794 0.22,1.93 0.418,2.172c0.331,0.405 1.067,2.377 2.98,2.053c2.451,-0.415 3.997,0.577 5.282,0.321c0.313,-0.063 0.524,0.006 0.824,-0.174Z" style="fill:#8a7431;"/></g><g><path d="M304.972,276.925c3.125,-1.187 6.337,-2.909 9.178,-2.554c2.842,0.355 4.191,5.454 7.215,6.45c4.404,1.451 10.508,2.664 11.447,7.885c0.415,2.31 -2.533,4.218 -4.825,4.719c-3.674,0.801 -8.093,-2.304 -15.1,-1.005c-5.468,1.014 -7.573,-5.158 -8.519,-6.424c-0.786,-1.053 -2.522,-7.885 0.604,-9.071Z" style="fill:#9c8336;stroke:#000;stroke-width:2.28px;stroke-linecap:round;"/><path d="M331.566,290.023c-0.59,1.496 -3.223,2.523 -3.95,2.579c-2.996,0.229 -7.914,-2.21 -14.469,-1.049c-5.116,0.906 -6.723,-4.748 -7.608,-5.88c-0.735,-0.941 -1.934,-6.612 -0.468,-7.405c0.1,-0.054 0.969,-0.434 1.076,-0.474c-0.585,2.221 0.588,5.397 1.119,6.076c0.884,1.132 2.854,6.648 7.97,5.742c6.555,-1.161 10.69,1.614 14.127,0.898c0.836,-0.175 1.402,0.017 2.203,-0.487Z" style="fill:#8a7431;"/></g><g><path d="M611.525,295.022c1.822,-1.099 3.636,-2.545 5.456,-2.647c1.82,-0.102 3.248,2.937 5.255,3.215c2.924,0.406 6.885,0.468 8.069,3.631c0.524,1.399 -1.104,2.931 -2.482,3.506c-2.209,0.922 -5.332,-0.518 -9.571,1.095c-3.309,1.26 -5.332,-2.365 -6.069,-3.05c-0.613,-0.57 -2.48,-4.65 -0.658,-5.75Z" style="fill:#9c8336;stroke:#000;stroke-width:2.28px;stroke-linecap:round;"/><path d="M629.259,299.859c-0.198,0.924 -1.672,1.803 -2.103,1.915c-1.776,0.46 -4.987,-0.402 -8.804,0.983c-2.979,1.081 -4.537,-1.991 -5.187,-2.545c-0.541,-0.46 -1.855,-3.587 -1.058,-4.203c0.055,-0.042 0.537,-0.355 0.597,-0.39c-0.119,1.34 0.919,3.036 1.309,3.368c0.65,0.554 2.412,3.507 5.391,2.426c3.817,-1.386 6.592,-0.244 8.582,-1.033c0.485,-0.192 0.845,-0.143 1.273,-0.521Z" style="fill:#8a7431;"/></g><g><path d="M707.396,330.971c1.716,-1.259 3.393,-2.862 5.197,-3.127c1.803,-0.265 3.498,2.633 5.523,2.73c2.948,0.141 6.899,-0.153 8.362,2.89c0.648,1.346 -0.836,3.018 -2.157,3.715c-2.117,1.117 -5.356,-0.037 -9.434,1.952c-3.182,1.552 -5.523,-1.876 -6.318,-2.492c-0.661,-0.513 -2.888,-4.409 -1.173,-5.668Z" style="fill:#9c8336;stroke:#000;stroke-width:2.28px;stroke-linecap:round;"/><path d="M725.493,334.194c-0.113,0.938 -1.503,1.946 -1.922,2.096c-1.727,0.618 -5.002,0.048 -8.68,1.771c-2.87,1.344 -4.698,-1.575 -5.395,-2.068c-0.58,-0.41 -2.17,-3.406 -1.431,-4.091c0.051,-0.047 0.503,-0.403 0.56,-0.443c0.002,1.346 1.188,2.942 1.606,3.238c0.698,0.492 2.717,3.275 5.587,1.93c3.677,-1.723 6.544,-0.836 8.455,-1.8c0.465,-0.234 0.828,-0.219 1.22,-0.633Z" style="fill:#8a7431;"/></g><g><path d="M497.244,422.085c-0.189,1.534 -2.169,2.617 -4.198,2.772c-2.826,0.216 -6.692,-3.352 -6.642,-6.032c0.039,-2.1 2.421,-3.453 3.436,-3.585c-0.173,0.402 -0.556,1.203 -0.556,1.894c0,2.251 3.21,5.196 5.704,5.196c0.907,0 1.662,-0.06 2.256,-0.245Z" style="fill:#94742b;"/><path d="M491.994,416.364c1.899,-0 4.783,2.308 4.783,4.022c-0,1.714 -1.026,2.061 -2.926,2.061c-1.899,0 -4.345,-2.243 -4.345,-3.957c0,-1.715 0.588,-2.126 2.488,-2.126Z" style="fill:#9c8336;"/><path d="M491.994,414.671c1.504,0 3.519,1.009 4.856,2.375c1.028,1.05 1.619,2.296 1.619,3.34c0,1.266 -0.4,2.094 -0.988,2.672c-0.72,0.709 -1.913,1.082 -3.63,1.082c-1.556,-0 -3.427,-1.016 -4.638,-2.404c-0.889,-1.02 -1.399,-2.214 -1.399,-3.246c0,-1.546 0.453,-2.439 1.147,-3.011c0.603,-0.498 1.543,-0.808 3.033,-0.808Zm-0,1.693c-1.9,-0 -2.488,0.411 -2.488,2.126c0,1.714 2.446,3.957 4.345,3.957c1.9,0 2.926,-0.347 2.926,-2.061c-0,-1.714 -2.884,-4.022 -4.783,-4.022Z"/><path d="M496.585,421.434c-0.378,0.819 -1.311,1.013 -2.734,1.013c-1.899,0 -4.345,-2.243 -4.345,-3.957c0,-1.163 0.271,-1.727 1.038,-1.969c-0.119,0.301 -0.169,0.691 -0.169,1.194c-0,1.714 2.445,3.957 4.344,3.957c0.768,0 1.394,-0.057 1.866,-0.238Z" style="fill:#8a7431;"/></g><g><path d="M697.932,290.951c-0.189,1.534 -2.169,2.618 -4.198,2.773c-2.826,0.216 -6.692,-3.353 -6.643,-6.033c0.039,-2.099 2.422,-3.453 3.437,-3.585c-0.173,0.403 -0.556,1.204 -0.556,1.895c-0,2.25 3.21,5.195 5.704,5.195c0.907,0 1.662,-0.06 2.256,-0.245Z" style="fill:#94742b;"/><path d="M692.681,285.23c1.9,0 4.783,2.308 4.783,4.022c0,1.715 -1.026,2.062 -2.925,2.062c-1.9,-0 -4.345,-2.243 -4.345,-3.958c0,-1.714 0.588,-2.126 2.487,-2.126Z" style="fill:#9c8336;"/><path d="M692.681,283.538c1.504,-0 3.52,1.008 4.856,2.374c1.029,1.051 1.62,2.296 1.62,3.34c-0,1.266 -0.4,2.094 -0.988,2.673c-0.72,0.708 -1.913,1.081 -3.63,1.081c-1.557,0 -3.427,-1.016 -4.638,-2.404c-0.889,-1.019 -1.399,-2.214 -1.399,-3.246c-0,-1.546 0.453,-2.439 1.146,-3.011c0.603,-0.498 1.543,-0.807 3.033,-0.807Zm0,1.692c-1.899,0 -2.487,0.412 -2.487,2.126c0,1.715 2.445,3.958 4.345,3.958c1.899,-0 2.925,-0.347 2.925,-2.062c0,-1.714 -2.883,-4.022 -4.783,-4.022Z"/><path d="M697.273,290.301c-0.379,0.818 -1.311,1.013 -2.734,1.013c-1.9,-0 -4.345,-2.243 -4.345,-3.958c0,-1.163 0.271,-1.726 1.038,-1.969c-0.119,0.301 -0.17,0.692 -0.17,1.194c0,1.714 2.445,3.958 4.345,3.958c0.768,-0 1.394,-0.057 1.866,-0.238Z" style="fill:#8a7431;"/></g><g><path d="M506.822,294.6c-0.188,1.534 -2.169,2.618 -4.198,2.773c-2.826,0.216 -6.691,-3.353 -6.642,-6.033c0.039,-2.099 2.421,-3.453 3.436,-3.585c-0.173,0.402 -0.556,1.204 -0.556,1.895c0,2.25 3.21,5.195 5.704,5.195c0.907,0 1.662,-0.06 2.256,-0.245Z" style="fill:#94742b;"/><path d="M501.572,288.879c1.899,0 4.783,2.308 4.783,4.022c0,1.714 -1.026,2.062 -2.926,2.062c-1.899,-0 -4.344,-2.244 -4.344,-3.958c-0,-1.714 0.587,-2.126 2.487,-2.126Z" style="fill:#9c8336;"/><path d="M501.572,287.187c1.504,-0 3.519,1.008 4.856,2.374c1.028,1.051 1.619,2.296 1.619,3.34c0,1.266 -0.4,2.094 -0.988,2.673c-0.72,0.708 -1.913,1.081 -3.63,1.081c-1.556,-0 -3.427,-1.016 -4.637,-2.404c-0.89,-1.02 -1.399,-2.214 -1.399,-3.246c-0,-1.546 0.453,-2.439 1.146,-3.011c0.603,-0.498 1.543,-0.807 3.033,-0.807Zm-0,1.692c-1.9,0 -2.487,0.412 -2.487,2.126c-0,1.714 2.445,3.958 4.344,3.958c1.9,-0 2.926,-0.348 2.926,-2.062c0,-1.714 -2.884,-4.022 -4.783,-4.022Z"/><path d="M506.164,293.95c-0.379,0.818 -1.312,1.013 -2.735,1.013c-1.899,-0 -4.344,-2.244 -4.344,-3.958c-0,-1.163 0.27,-1.727 1.037,-1.969c-0.119,0.301 -0.169,0.692 -0.169,1.194c0,1.714 2.445,3.957 4.345,3.957c0.768,0 1.393,-0.056 1.866,-0.237Z" style="fill:#8a7431;"/></g><g><path d="M542.154,362.188c-0.214,0.42 -1.065,2.296 -1.115,2.723c-0.115,0.986 1.799,1.388 2.679,2.189c0.955,0.87 1.455,3.685 2.84,3.358c1.24,-0.292 1.984,-0.008 1.984,-0.008c0,-0 -1.419,1.017 -3.017,1.393c-1.386,0.327 -2.356,-2.394 -3.311,-3.264c-0.881,-0.801 -2.243,-1.651 -2.292,-2.643c-0.06,-1.228 0.586,-2.998 2.232,-3.748Z" style="fill:#94742b;"/><path d="M546.977,368.749c1.109,-0.262 3.685,-2.087 4.134,-2.916c0.377,-0.696 -0.795,-1.236 -1.457,-1.439c-0.636,-0.194 -1.776,0.226 -2.422,0.067c-0.702,-0.173 -2.042,-1.363 -2.804,-1.151c-0.761,0.213 -1.1,1.027 -1.178,1.693c-0.077,0.667 1.215,0.938 1.809,1.479c0.645,0.587 0.982,2.487 1.918,2.267Z" style="fill:#9c8336;"/><path d="M547.752,362.195c0.293,-0.038 0.938,-0.118 1.282,-0.131c0.478,-0.019 0.916,0.035 1.286,0.148c0.906,0.276 2.2,1.03 2.702,1.831c0.546,0.873 0.657,1.841 0.096,2.877c-0.271,0.499 -0.994,1.296 -1.942,2.029c-1.227,0.947 -2.812,1.817 -3.676,2.021c-1.146,0.27 -2.13,-0.08 -2.937,-0.99c-0.378,-0.427 -0.983,-1.59 -1.13,-1.877c-0.119,-0.072 -0.273,-0.122 -0.406,-0.192c-0.399,-0.211 -0.763,-0.441 -1.036,-0.68c-0.795,-0.696 -1.118,-1.543 -1.007,-2.491c0.172,-1.486 1.132,-3.154 2.832,-3.628c0.642,-0.179 1.447,-0.136 2.289,0.21c0.483,0.199 1.313,0.677 1.647,0.873Zm-0.775,6.554c1.109,-0.262 3.685,-2.087 4.134,-2.916c0.377,-0.696 -0.795,-1.236 -1.457,-1.439c-0.636,-0.194 -1.776,0.226 -2.422,0.067c-0.702,-0.173 -2.042,-1.363 -2.804,-1.151c-0.761,0.213 -1.1,1.027 -1.178,1.693c-0.077,0.667 1.215,0.938 1.809,1.479c0.645,0.587 0.982,2.487 1.918,2.267Z"/><path d="M544.689,363.287c-0.388,0.354 -0.58,0.911 -0.636,1.391c-0.077,0.666 1.215,0.937 1.809,1.478c0.645,0.588 0.982,2.488 1.917,2.268c0.008,-0.002 0.016,-0.004 0.024,-0.006c-0.316,0.16 -0.601,0.278 -0.826,0.331c-0.936,0.22 -1.273,-1.68 -1.918,-2.267c-0.594,-0.541 -1.886,-0.812 -1.809,-1.479c0.078,-0.666 0.417,-1.48 1.178,-1.693c0.081,-0.022 0.168,-0.029 0.261,-0.023Z" style="fill:#8a7431;"/></g><g><path d="M322.894,293.733c-0.237,0.513 -1.179,2.806 -1.234,3.328c-0.127,1.206 1.99,1.697 2.964,2.676c1.057,1.063 1.609,4.504 3.142,4.105c1.372,-0.357 2.195,-0.011 2.195,-0.011c0,0 -1.57,1.243 -3.338,1.704c-1.533,0.399 -2.607,-2.927 -3.663,-3.99c-0.974,-0.979 -2.482,-2.018 -2.536,-3.23c-0.066,-1.502 0.649,-3.665 2.47,-4.582Z" style="fill:#94742b;"/><path d="M328.229,301.752c1.227,-0.319 4.077,-2.55 4.573,-3.563c0.417,-0.851 -0.879,-1.512 -1.612,-1.759c-0.703,-0.238 -1.964,0.275 -2.679,0.081c-0.776,-0.211 -2.259,-1.666 -3.102,-1.406c-0.842,0.259 -1.217,1.255 -1.302,2.069c-0.086,0.814 1.343,1.146 2.001,1.807c0.713,0.718 1.086,3.041 2.121,2.771Z" style="fill:#9c8336;"/><path d="M329.079,294.249c0.282,-0.039 0.84,-0.115 1.16,-0.143c0.629,-0.055 1.209,0.002 1.681,0.161c0.951,0.321 2.315,1.158 2.842,2.088c0.488,0.862 0.59,1.816 0.09,2.838c-0.283,0.577 -1.046,1.484 -2.04,2.332c-1.336,1.139 -3.067,2.191 -4.008,2.436c-1.213,0.316 -2.282,-0.061 -3.135,-1.126c-0.438,-0.545 -1.131,-2.052 -1.245,-2.303c-0.15,-0.117 -0.357,-0.196 -0.535,-0.3c-0.423,-0.247 -0.81,-0.513 -1.099,-0.794c-0.729,-0.705 -1.054,-1.541 -0.953,-2.502c0.173,-1.649 1.196,-3.487 2.901,-4.012c0.703,-0.217 1.588,-0.167 2.511,0.253c0.538,0.244 1.465,0.835 1.83,1.072Zm-0.85,7.503c1.227,-0.319 4.077,-2.55 4.573,-3.563c0.417,-0.851 -0.879,-1.512 -1.612,-1.759c-0.703,-0.238 -1.964,0.275 -2.679,0.081c-0.776,-0.211 -2.259,-1.666 -3.102,-1.406c-0.842,0.259 -1.217,1.255 -1.302,2.069c-0.086,0.814 1.343,1.146 2.001,1.807c0.713,0.718 1.086,3.041 2.121,2.771Z"/><path d="M325.698,295.077c-0.43,0.431 -0.642,1.113 -0.703,1.7c-0.086,0.814 1.343,1.145 2.001,1.807c0.713,0.717 1.086,3.04 2.121,2.771c0.009,-0.002 0.017,-0.005 0.026,-0.007c-0.349,0.196 -0.665,0.339 -0.914,0.404c-1.035,0.27 -1.408,-2.053 -2.121,-2.771c-0.658,-0.661 -2.087,-0.993 -2.001,-1.807c0.085,-0.814 0.46,-1.81 1.302,-2.069c0.09,-0.028 0.186,-0.036 0.289,-0.028Z" style="fill:#8a7431;"/></g></g></g></svg>