<?xml version="1.0" encoding="UTF-8" standalone="no"?><!DOCTYPE svg PUBLIC "-//W3C//DTD SVG 1.1//EN" "http://www.w3.org/Graphics/SVG/1.1/DTD/svg11.dtd"><svg width="100%" height="100%" viewBox="0 0 842 596" version="1.1" xmlns="http://www.w3.org/2000/svg" xmlns:xlink="http://www.w3.org/1999/xlink" xml:space="preserve" xmlns:serif="http://www.serif.com/" style="fill-rule:evenodd;clip-rule:evenodd;stroke-linecap:round;stroke-linejoin:round;stroke-miterlimit:1.5;"><g id="Hills"><path d="M850.394,136.341c-0,0 -75.304,-11.744 -113.67,-11.744c-38.365,-0 -84.56,27.404 -111.964,26.621c-27.404,-0.783 -255.249,-28.97 -292.831,-21.923c-37.583,7.046 -340.433,53.459 -340.433,53.459l0,327.482l858.898,0l-0,-373.895Z" style="fill:#95b252;"/><path d="M852.676,136.341l-0,373.895c-0,1.261 -1.022,2.282 -2.282,2.282l-858.898,0c-1.26,0 -2.282,-1.021 -2.282,-2.282l0,-327.482c0,-1.127 0.823,-2.085 1.936,-2.256c0,-0 302.784,-46.401 340.358,-53.446c37.644,-7.059 265.868,21.1 293.317,21.885c13.495,0.385 31.597,-6.245 51.069,-12.896c20.009,-6.835 41.415,-13.726 60.83,-13.726c38.484,-0 114.021,11.772 114.021,11.772c1.111,0.173 1.931,1.13 1.931,2.254Zm-2.282,0c-0,0 -75.304,-11.744 -113.67,-11.744c-38.365,-0 -84.56,27.404 -111.964,26.621c-27.404,-0.783 -255.249,-28.97 -292.831,-21.923c-37.583,7.046 -340.433,53.459 -340.433,53.459l0,327.482l858.898,0l-0,-373.895Z"/><g><path d="M572.652,169.561c0,-0 13.818,15.114 47.732,10.401c33.913,-4.712 141.476,-12.282 150.64,-19.333" style="fill:#86a241;"/><path d="M572.652,170.124c0,0 22.653,-48.703 56.727,-45.363c34.075,3.341 105.565,14.699 141.645,36.079" style="fill:#85a143;stroke:#000;stroke-width:2.28px;"/></g><g><path d="M450.529,195.179c0,-0 -34.014,8.308 -60.944,9.067c-18.516,0.522 -35.451,6.188 -45.784,7.438c-26.767,3.239 -41.82,-18.201 -49.014,-24.558" style="fill:#86a241;"/><path d="M450.529,195.687c0,-0 -16.488,-26.309 -62.694,-31.103c-15.381,-1.596 -26.559,-13.371 -36.664,-11.372c-3.849,0.762 -38.458,8.534 -56.384,34.105" style="fill:#85a143;stroke:#000;stroke-width:2.28px;"/></g></g></svg>