<?xml version="1.0" encoding="UTF-8" standalone="no"?><!DOCTYPE svg PUBLIC "-//W3C//DTD SVG 1.1//EN" "http://www.w3.org/Graphics/SVG/1.1/DTD/svg11.dtd"><svg width="100%" height="100%" viewBox="0 0 383 718" version="1.1" xmlns="http://www.w3.org/2000/svg" xmlns:xlink="http://www.w3.org/1999/xlink" xml:space="preserve" xmlns:serif="http://www.serif.com/" style="fill-rule:evenodd;clip-rule:evenodd;stroke-linejoin:round;stroke-miterlimit:2;"><path d="M299.624,23.675c34.26,15.254 -2.168,171.919 -81.296,349.632c-79.128,177.713 -171.185,309.608 -205.444,294.354c-34.26,-15.255 2.167,-171.92 81.295,-349.632c79.128,-177.713 171.185,-309.609 205.445,-294.354Z" style="fill:url(#_Radial1);"/><path d="M350.415,0.152c37.064,5.719 42.363,171.042 11.826,368.954c-30.537,197.913 -85.421,353.95 -122.485,348.231c-37.063,-5.719 -42.362,-171.042 -11.825,-368.954c30.537,-197.913 85.42,-353.949 122.484,-348.231Z" style="fill:url(#_Radial2);"/><defs><radialGradient id="_Radial1" cx="0" cy="0" r="1" gradientUnits="userSpaceOnUse" gradientTransform="matrix(62.0745,27.6392,-143.37,321.993,156.254,345.668)"><stop offset="0" style="stop-color:#f8f4b4;stop-opacity:0.56"/><stop offset="1" style="stop-color:#fffbab;stop-opacity:0"/></radialGradient><radialGradient id="_Radial2" cx="0" cy="0" r="1" gradientUnits="userSpaceOnUse" gradientTransform="matrix(67.1551,10.3617,-55.3292,358.592,295.086,358.745)"><stop offset="0" style="stop-color:#f8f4b4;stop-opacity:0.56"/><stop offset="1" style="stop-color:#fffbab;stop-opacity:0"/></radialGradient></defs></svg>