<?xml version="1.0" encoding="UTF-8" standalone="no"?><!DOCTYPE svg PUBLIC "-//W3C//DTD SVG 1.1//EN" "http://www.w3.org/Graphics/SVG/1.1/DTD/svg11.dtd"><svg width="100%" height="100%" viewBox="0 0 842 596" version="1.1" xmlns="http://www.w3.org/2000/svg" xmlns:xlink="http://www.w3.org/1999/xlink" xml:space="preserve" xmlns:serif="http://www.serif.com/" style="fill-rule:evenodd;clip-rule:evenodd;stroke-linejoin:round;stroke-miterlimit:2;"><g id="Mountain"><path d="M-8.504,32.917c0,0 117.666,26.223 132.813,53.002c32.795,57.978 225.392,80.045 259.673,113.444c68.613,66.848 117.899,146.743 117.899,146.743l-510.385,10.215l0,-323.404Z" style="fill:#7e7d7d;"/><path d="M-8.008,30.69c0,-0 57.89,12.907 97.841,29.871c17.638,7.489 31.762,15.925 36.462,24.235c5.088,8.995 14.183,17.057 25.941,24.457c18.058,11.364 42.35,21.092 68.498,29.862c39.504,13.251 83.228,24.296 116.329,35.341c22.491,7.505 40.126,15.103 48.512,23.273c68.816,67.046 118.249,147.178 118.249,147.178c0.43,0.697 0.453,1.571 0.061,2.291c-0.392,0.719 -1.139,1.173 -1.958,1.189l-510.385,10.215c-0.613,0.013 -1.205,-0.222 -1.643,-0.652c-0.438,-0.429 -0.685,-1.016 -0.685,-1.629l0,-323.404c0,-0.692 0.314,-1.347 0.855,-1.78c0.54,-0.434 1.248,-0.598 1.923,-0.447Zm-0.496,2.227l0,323.404l510.385,-10.215c0,-0 -49.286,-79.895 -117.899,-146.743c-34.281,-33.399 -226.878,-55.466 -259.673,-113.444c-15.147,-26.779 -132.813,-53.002 -132.813,-53.002Z"/><path d="M-43.381,47.887c0,0 117.666,26.223 132.813,53.003c32.795,57.978 225.392,80.044 259.674,113.444c68.612,66.847 117.899,146.742 117.899,146.742l-510.386,10.215l0,-323.404Z" style="fill:#6b6b6b;"/><path d="M-14.768,41.812c0,-0 56.351,60.525 80.949,79.004c47.828,35.929 61.435,82.808 101.326,109.728c73.85,49.839 184.044,136.107 184.044,136.107l-367.07,10.716l0.751,-335.555Z" style="fill:#7e7d7d;"/><path d="M-13.097,40.257c-0,-0 56.138,60.321 80.649,78.734c24.115,18.116 39.621,38.977 54.108,58.717c14.207,19.358 27.4,37.634 47.123,50.944c73.903,49.874 184.175,136.202 184.175,136.202c0.757,0.592 1.061,1.596 0.761,2.509c-0.3,0.913 -1.14,1.541 -2.101,1.569l-367.071,10.716c-0.617,0.018 -1.216,-0.215 -1.658,-0.646c-0.443,-0.431 -0.692,-1.022 -0.69,-1.64l0.751,-335.555c0.002,-0.937 0.577,-1.778 1.449,-2.12c0.872,-0.342 1.865,-0.116 2.504,0.57Zm-1.671,1.555l-0.751,335.555l367.07,-10.716c0,-0 -110.194,-86.268 -184.044,-136.107c-39.891,-26.92 -53.498,-73.799 -101.326,-109.728c-24.598,-18.479 -80.949,-79.004 -80.949,-79.004Z"/><path d="M-42.629,32.917c0,0 56.351,60.525 80.949,79.004c47.828,35.93 61.435,82.808 101.325,109.728c73.851,49.839 184.045,136.107 184.045,136.107l-367.071,10.716l0.752,-335.555Z" style="fill:#6b6b6b;"/></g><g id="Mountain1" serif:id="Mountain"><path d="M887.817,87.2c0,-0 -37.045,14.575 -65.695,19.026c-40.799,6.338 -63.851,61.053 -102.879,40.504c-27.154,-14.297 -192.254,62.117 -238.726,73.569c-57.755,14.232 -149.635,57.501 -149.635,57.501l556.319,-0.141l0.616,-190.459Z" style="fill:#7e7d7d;"/><path d="M890.099,87.207l-0.616,190.46c-0.004,1.257 -1.024,2.274 -2.281,2.274l-556.32,0.141c-1.068,0 -1.994,-0.741 -2.227,-1.784c-0.234,-1.042 0.288,-2.107 1.254,-2.563c0,0 92.144,-43.38 150.062,-57.652c32.511,-8.012 123.113,-47.844 183.858,-66.117c15.806,-4.754 29.616,-8.053 39.913,-9.006c7.359,-0.68 13.032,-0.109 16.565,1.751c18.597,9.792 33.332,1.373 48.335,-9.971c16.03,-12.121 32.356,-27.542 53.129,-30.769c28.441,-4.419 65.211,-18.895 65.211,-18.895c0.704,-0.277 1.499,-0.187 2.123,0.24c0.624,0.426 0.997,1.135 0.994,1.891Zm-2.282,-0.007c0,-0 -37.045,14.575 -65.695,19.026c-40.799,6.338 -63.851,61.053 -102.879,40.504c-27.154,-14.297 -192.254,62.117 -238.726,73.569c-57.755,14.232 -149.635,57.501 -149.635,57.501l556.319,-0.141l0.616,-190.459Z"/><path d="M868.6,111.438c0,-0 -37.045,14.575 -65.695,19.026c-40.799,6.338 -63.851,61.053 -102.879,40.504c-27.154,-14.297 -192.254,62.117 -238.726,73.569c-57.755,14.232 -149.635,57.501 -149.635,57.501l556.319,-0.141l0.616,-190.459Z" style="fill:#6c6b6a;"/></g></svg>