<?xml version="1.0" encoding="UTF-8" standalone="no"?><!DOCTYPE svg PUBLIC "-//W3C//DTD SVG 1.1//EN" "http://www.w3.org/Graphics/SVG/1.1/DTD/svg11.dtd"><svg width="100%" height="100%" viewBox="0 0 385 84" version="1.1" xmlns="http://www.w3.org/2000/svg" xmlns:xlink="http://www.w3.org/1999/xlink" xml:space="preserve" xmlns:serif="http://www.serif.com/" style="fill-rule:evenodd;clip-rule:evenodd;stroke-linecap:round;stroke-linejoin:round;stroke-miterlimit:1.5;"><path d="M204.592,74.968c0,0 -29.588,-9.712 -50.425,-8.918c-20.836,0.795 -67.299,16.602 -99.152,15.884c-31.854,-0.719 -54.127,-15.884 -54.127,-15.884l-0.479,-58.601c-0,0 4.55,12.933 47.421,12.694c42.87,-0.24 83.585,-21.316 114.241,-19.639c30.656,1.676 42.521,12.696 42.521,12.696l0,61.768Z" style="fill:#fff;stroke:#231f20;stroke-width:0.82px;"/><g><path d="M4.717,24.143c6.352,2.518 12.761,4.662 19.217,6.346c0,-0 -0.671,7.288 -0.671,7.288c0,-0 -6.201,-1.636 -6.201,-1.636c-0.657,8.279 -0.314,16.921 -0.401,25.259c-0,-0 -5.948,-1.773 -5.948,-1.773c0.055,-8.386 -0.157,-16.887 0.252,-25.251c0,0 -6.248,-1.953 -6.248,-1.953c0,-0 0,-8.28 0,-8.28Z" style="fill:#231f20;fill-rule:nonzero;"/><path d="M33.053,61.438c-0,-0 -5.091,-1.089 -5.091,-1.089l-0.8,3.763c0,0 -5.487,-1.349 -5.487,-1.349c2.099,-8.054 3.644,-17.004 6.422,-24.487c-0,-0 5.848,1.244 5.848,1.244c1.543,9.161 3.538,18.119 5.514,27.054c0,0 -5.715,-1.045 -5.715,-1.045l-0.691,-4.091Zm-0.939,-5.984c-0,-0 -1.472,-9.348 -1.472,-9.348c0,0 -1.63,8.69 -1.63,8.69c0,0 3.102,0.658 3.102,0.658Z" style="fill:#231f20;fill-rule:nonzero;"/><path d="M51.107,64.135c0,-0 -5.216,-0.59 -5.216,-0.59l-0.795,3.887c0,-0 -5.637,-0.858 -5.637,-0.858c2.138,-8.329 3.93,-16.967 6.346,-25.089c0,0 5.933,0.692 5.933,0.692c1.924,8.881 3.896,17.723 5.958,26.523c-0,-0 -5.851,-0.475 -5.851,-0.475l-0.738,-4.09Zm-1.006,-5.984c0,0 -1.526,-8.982 -1.526,-8.982c-0,0 -1.648,8.643 -1.648,8.643c0,0 3.174,0.339 3.174,0.339Z" style="fill:#231f20;fill-rule:nonzero;"/><path d="M69.32,42.383c0,0 7.773,-2.205 7.773,-2.205c-3.277,9.034 -5.915,18.677 -8.428,28.317c-0,0 -6.377,0.436 -6.377,0.436c-2.075,-8.757 -4.069,-17.556 -6.064,-26.361c-0,-0 5.873,0.342 5.873,0.342c-0,-0 3.32,17.785 3.32,17.785c0.001,-0 3.903,-18.314 3.903,-18.314Z" style="fill:#231f20;fill-rule:nonzero;"/><path d="M78.71,65.35c0.169,-8.663 0.323,-17.346 1.172,-25.917c-0,-0 7.879,-2 7.879,-2c-0.878,8.628 -1.419,17.156 -1.66,25.885c-0,-0 -7.391,2.032 -7.391,2.032Z" style="fill:#231f20;fill-rule:nonzero;"/><path d="M103.436,59.173c0.405,-11.541 2.113,-22.445 2.29,-34.043c-0,-0 11.462,-2.471 11.462,-2.471c1.453,-0.303 3.02,-0.561 4.468,-0.036c1.066,0.387 1.979,1.389 2.683,2.718c0.824,1.552 1.299,3.495 1.536,5.485c0.246,2.059 -0.092,3.395 -0.859,5.04c-0.683,1.463 -1.527,2.711 -2.481,3.701c-0.769,0.796 -1.641,1.361 -2.5,1.828c0.419,0.136 1.108,0.399 1.49,0.847c0.269,0.312 0.583,1.133 0.726,1.521c0.229,0.62 0.495,1.206 0.692,1.855c0,-0 2.726,8.907 2.726,8.907c-0,0 -7.195,1.475 -7.195,1.475c-0,0 -3.394,-9.145 -3.394,-9.145c-0.243,-0.652 -0.456,-1.807 -0.92,-2.271c-0.494,-0.464 -1.089,-0.503 -1.641,-0.381l-0.649,0.144c0,0 -0.825,13.19 -0.825,13.19c-0,0 -7.609,1.636 -7.609,1.636Zm9.514,-21.148l3.074,-0.668c0.49,-0.107 1.597,-0.68 1.946,-0.863c0.495,-0.243 0.936,-0.7 1.299,-1.291c0.39,-0.635 0.514,-1.223 0.437,-2.111c-0.087,-0.993 -0.357,-1.941 -0.89,-2.505c-0.723,-0.766 -1.8,-0.556 -2.598,-0.385l-3.093,0.662c-0,-0 -0.175,7.161 -0.175,7.161Z" style="fill:#231f20;fill-rule:nonzero;"/><path d="M135.046,48.41c-0,0 -3.754,0.889 -3.754,0.889l-0.678,4.183c0,-0 -5.011,1.057 -5.011,1.057c2.017,-8.534 5.837,-17.991 6.294,-27.039c0,0 3.738,-1.054 3.738,-1.054c1.506,8.529 2.524,16.381 4.712,24.646c-0,0 -4.843,1.266 -4.843,1.266l-0.458,-3.948Zm-0.636,-5.791c0,0 -0.484,-8.209 -0.484,-8.209c-0,0 -1.778,8.769 -1.778,8.769c-0,0 2.262,-0.56 2.262,-0.56Z" style="fill:#231f20;fill-rule:nonzero;"/><path d="M141.776,24.339c0,-0 4.819,-1.272 4.819,-1.272c0,-0 5.637,12.324 5.637,12.324c0,0 -0.367,-13.287 -0.367,-13.287c0,0 4.972,-0.516 4.972,-0.516c-1.187,7.907 0.654,17.882 0.879,26.094c-0,-0 -4.886,0.681 -4.886,0.681c0,-0 -5.876,-11.733 -5.876,-11.733c0,0 0.542,12.759 0.542,12.759c-0,-0 -5.148,1.198 -5.148,1.198c-0.213,-8.601 -1.184,-17.706 -0.572,-26.248Z" style="fill:#231f20;fill-rule:nonzero;"/><path d="M160.655,21.435c-0,-0 5.133,0.104 5.133,0.104c0,0 5.931,13.602 5.931,13.602c-0,0 -0.22,-13.105 -0.22,-13.105c-0,-0 5.476,0.812 5.476,0.812c-0.498,8.346 0.187,16.881 -0.079,25.305c-0,0 -5.217,-0.655 -5.217,-0.655c0,-0 -5.543,-12.422 -5.543,-12.422c0,0 0.161,12.159 0.161,12.159c0,0 -4.906,0.13 -4.906,0.13c-0.14,-8.238 -1.859,-17.985 -0.736,-25.93Z" style="fill:#231f20;fill-rule:nonzero;"/><path d="M193.033,26.749c0,0 6.75,2.163 6.75,2.163c-0,-0 -0,15.05 -0,15.05c-0,3.021 -0.721,5.792 -2.368,7.379c-2.187,2.085 -5.245,1.229 -7.583,0.484c-1.418,-0.451 -2.841,-1.037 -4.161,-2.009c-0.967,-0.713 -1.9,-1.617 -2.65,-2.849c-0.633,-1.04 -1.123,-2.29 -1.401,-3.681c-0.3,-1.498 -0.287,-2.923 -0.328,-4.469c0,-0 -0.146,-15.155 -0.146,-15.155c0,-0 6.23,1.489 6.23,1.489c-0,-0 0.036,15.494 0.036,15.494c-0.045,1.186 0.091,2.425 0.601,3.332c0.523,0.931 1.281,1.39 2.029,1.611c0.703,0.207 1.51,0.257 2.14,-0.385c0.624,-0.637 0.809,-1.878 0.839,-2.991c-0,-0 0.012,-15.463 0.012,-15.463Z" style="fill:#231f20;fill-rule:nonzero;"/></g><path d="M259.228,44.084l-54.636,30.884l0,-61.768l54.636,30.884Z" style="fill:none;stroke:#231f20;stroke-width:0.82px;"/><path d="M379.211,28.274l-0.035,37.776" style="fill:none;stroke:#6d4d41;stroke-width:3.69px;"/><ellipse cx="377.396" cy="47.162" rx="4.366" ry="2.596" style="fill:#fdab42;"/><path d="M377.396,42.284c2.045,0 3.837,0.662 4.961,1.573c1.124,0.912 1.688,2.089 1.688,3.305c-0,1.216 -0.564,2.394 -1.688,3.305c-1.124,0.912 -2.916,1.573 -4.961,1.573c-2.044,0 -3.836,-0.661 -4.96,-1.573c-1.124,-0.911 -1.688,-2.089 -1.688,-3.305c0,-1.216 0.564,-2.393 1.688,-3.305c1.124,-0.911 2.916,-1.573 4.96,-1.573Zm0,2.282c-2.409,0 -4.366,1.164 -4.366,2.596c0,1.433 1.957,2.596 4.366,2.596c2.41,0 4.367,-1.163 4.367,-2.596c-0,-1.432 -1.957,-2.596 -4.367,-2.596Z"/><circle cx="342.048" cy="77.645" r="3.963" style="fill:#a2a2a2;"/><path d="M342.048,71.4c3.446,-0 6.245,2.798 6.245,6.245c-0,3.446 -2.799,6.245 -6.245,6.245c-3.447,-0 -6.245,-2.799 -6.245,-6.245c-0,-3.447 2.798,-6.245 6.245,-6.245Zm-0,2.282c-2.187,-0 -3.963,1.775 -3.963,3.963c-0,2.187 1.776,3.962 3.963,3.962c2.187,0 3.963,-1.775 3.963,-3.962c-0,-2.188 -1.776,-3.963 -3.963,-3.963Z" style="fill:#231f20;"/><path d="M338.528,79.467c-0.283,-0.546 -0.443,-1.166 -0.443,-1.822c-0,-2.188 1.776,-3.963 3.963,-3.963c2.187,-0 3.963,1.775 3.963,3.963c-0,0.852 -0.27,1.642 -0.729,2.289c-2.145,0.043 -4.494,-0.119 -6.754,-0.467Z" style="fill:#737373;"/><circle cx="277.81" cy="54.146" r="3.963" style="fill:#a2a2a2;"/><path d="M277.81,47.901c3.446,-0 6.245,2.798 6.245,6.245c-0,3.447 -2.799,6.245 -6.245,6.245c-3.447,-0 -6.245,-2.798 -6.245,-6.245c-0,-3.447 2.798,-6.245 6.245,-6.245Zm-0,2.282c-2.188,-0 -3.963,1.776 -3.963,3.963c-0,2.187 1.775,3.963 3.963,3.963c2.187,-0 3.962,-1.776 3.962,-3.963c0,-2.187 -1.775,-3.963 -3.962,-3.963Z" style="fill:#231f20;"/><path d="M274.29,55.968c-0.283,-0.546 -0.443,-1.165 -0.443,-1.822c-0,-2.187 1.775,-3.963 3.963,-3.963c2.187,-0 3.962,1.776 3.962,3.963c0,0.853 -0.269,1.643 -0.728,2.289c-2.145,0.043 -4.494,-0.118 -6.754,-0.467Z" style="fill:#737373;"/><path d="M339.681,59.479l-0.756,8.586c0,-0 -8.074,-0.383 -10.259,3.929c4.32,4.907 24.352,6.035 24.689,1.345c0.282,-3.922 -2.752,-4.596 -2.752,-4.596l0.598,-10.811l-11.52,1.547Z" style="fill:#b82627;"/><path d="M339.378,57.217l11.519,-1.546c0.674,-0.091 1.353,0.124 1.853,0.586c0.499,0.462 0.767,1.122 0.729,1.801c0,0 -0.514,9.307 -0.514,9.307c0.447,0.306 0.918,0.715 1.342,1.257c0.801,1.027 1.491,2.56 1.324,4.88c-0.086,1.197 -0.68,2.273 -1.842,3.121c-1.042,0.761 -2.698,1.36 -4.751,1.676c-4.021,0.62 -9.751,0.274 -14.388,-0.905c-3.43,-0.873 -6.264,-2.265 -7.697,-3.892c-0.617,-0.701 -0.745,-1.707 -0.323,-2.54c1.157,-2.282 3.481,-3.679 5.948,-4.404c1.514,-0.444 3.056,-0.64 4.253,-0.724l0.577,-6.555c0.094,-1.064 0.912,-1.92 1.97,-2.062Zm0.303,2.262l-0.756,8.586c0,-0 -8.074,-0.383 -10.259,3.929c4.32,4.907 24.352,6.035 24.689,1.345c0.282,-3.922 -2.752,-4.596 -2.752,-4.596l0.598,-10.811l-11.52,1.547Z" style="fill:#231f20;"/><path d="M350.83,65.73c-1.434,1.334 -3.638,1.827 -5.684,1.604c-0,-0 -2.315,-0.19 -6.001,-0.521l0.536,-7.084l11.52,-1.797l-0.371,7.798Z" style="fill:#7c2121;"/><path d="M374.398,39.088c-0,-3.639 -2.955,-6.593 -6.594,-6.593l-6.549,0c-3.639,0 -6.593,2.954 -6.593,6.593l0,16.148c0,3.639 2.954,6.593 6.593,6.593l6.549,0c3.639,0 6.594,-2.954 6.594,-6.593l-0,-16.148Z" style="fill:#b82627;"/><path d="M376.68,39.088l-0,16.148c-0,4.898 -3.977,8.875 -8.876,8.875l-6.549,0c-4.898,0 -8.875,-3.977 -8.875,-8.875l-0,-16.148c-0,-4.898 3.977,-8.875 8.875,-8.875l6.549,0c4.899,0 8.876,3.977 8.876,8.875Zm-2.282,0c-0,-3.639 -2.955,-6.593 -6.594,-6.593l-6.549,0c-3.639,0 -6.593,2.954 -6.593,6.593l0,16.148c0,3.639 2.954,6.593 6.593,6.593l6.549,0c3.639,0 6.594,-2.954 6.594,-6.593l-0,-16.148Z" style="fill:#231f20;"/><path d="M357.117,33.957c-0.442,0.924 -0.689,1.958 -0.689,3.05l-0,15.165c-0,3.91 3.174,7.085 7.085,7.085l7.037,-0c1.035,-0 2.017,-0.223 2.904,-0.622c-1.155,1.914 -3.254,3.194 -5.65,3.194l-6.549,0c-3.639,0 -6.593,-2.954 -6.593,-6.593l0,-16.148c0,-2.072 0.958,-3.922 2.455,-5.131Z" style="fill:#852727;"/><path d="M342.244,34.385c-0,0 -2.47,-8.134 -6.004,-10.78c-3.595,-2.693 -15.02,1.053 -18.777,2.498c-2.247,0.864 -3.759,6.167 -3.759,6.167l28.54,2.115Z" style="fill:#c2e3f7;"/><path d="M342.075,36.661l-28.54,-2.116c-0.684,-0.05 -1.31,-0.406 -1.702,-0.969c-0.393,-0.563 -0.512,-1.272 -0.324,-1.932c0,-0 0.855,-2.962 2.242,-5.079c0.814,-1.242 1.84,-2.188 2.893,-2.592c2.76,-1.062 9.469,-3.285 14.538,-3.568c2.711,-0.151 5.013,0.315 6.426,1.373c1.653,1.237 3.159,3.463 4.309,5.734c1.567,3.097 2.51,6.21 2.51,6.21c0.219,0.72 0.069,1.502 -0.402,2.089c-0.47,0.588 -1.199,0.906 -1.95,0.85Zm0.169,-2.276c-0,0 -2.47,-8.134 -6.004,-10.78c-3.595,-2.693 -15.02,1.053 -18.777,2.498c-2.247,0.864 -3.759,6.167 -3.759,6.167l28.54,2.115Z" style="fill:#231f20;"/><path d="M318.808,25.608c-0.844,1.702 -1.017,4.932 -1.035,6.963l-4.069,-0.301c-0,-0 1.512,-5.303 3.759,-6.167c0.377,-0.145 0.83,-0.313 1.345,-0.495Zm5.307,7.433l16.268,-3.459c1.171,2.532 1.861,4.803 1.861,4.803l-18.129,-1.344Z" style="fill:#94bcd4;"/><path d="M352.836,38.229c0.306,-3.263 -1.294,-6.671 -4.557,-6.978c0,0 -49.62,2.169 -65.044,1.842c-5.206,-0.11 -13.863,-15.712 -14.605,-20.488l-12.442,1.001l-2.733,26.016c0.42,5.658 27.531,14.798 42.465,17.278c14.741,2.449 49.226,4.885 49.226,4.885c3.262,0.306 6.923,-0.953 7.229,-4.216l0.461,-19.34Z" style="fill:#b82627;"/><path d="M355.115,38.358l0,0.003l-0.459,19.263c-0.001,0.053 -0.004,0.106 -0.009,0.159c-0.422,4.499 -5.187,6.688 -9.688,6.276c-1.058,-0.075 -34.84,-2.487 -49.413,-4.907c-10.656,-1.77 -27.391,-6.877 -36.622,-11.754c-2.581,-1.363 -4.606,-2.736 -5.856,-4.003c-1.225,-1.241 -1.807,-2.498 -1.889,-3.604c-0.01,-0.135 -0.008,-0.272 0.006,-0.407l2.734,-26.016c0.115,-1.093 0.991,-1.949 2.086,-2.037l12.442,-1c1.191,-0.096 2.254,0.743 2.437,1.924c0.486,3.12 4.661,11.153 8.747,15.751c0.804,0.905 1.6,1.671 2.37,2.207c0.466,0.324 0.878,0.59 1.282,0.598c15.389,0.326 64.896,-1.839 64.896,-1.839c0.105,-0.005 0.209,-0.002 0.313,0.007c4.493,0.422 7.009,4.886 6.623,9.379Zm-2.279,-0.129c0.306,-3.263 -1.294,-6.671 -4.557,-6.978c0,0 -49.62,2.169 -65.044,1.842c-5.206,-0.11 -13.863,-15.712 -14.605,-20.488l-12.442,1.001l-2.733,26.016c0.42,5.658 27.531,14.798 42.465,17.278c14.741,2.449 49.226,4.885 49.226,4.885c3.262,0.306 6.923,-0.953 7.229,-4.216l0.461,-19.34Z" style="fill:#231f20;"/><path d="M293.51,56.463l9.52,-10.554l16.816,9.771l-5.104,3.526c-7.12,-0.711 -14.019,-1.508 -18.822,-2.306c-0.772,-0.128 -1.578,-0.274 -2.41,-0.437Z" style="fill:#942626;"/><path d="M257.647,13.489l-2.403,22.873c0.42,5.657 27.531,14.797 42.466,17.278c14.741,2.448 49.225,4.884 49.225,4.884c1.937,0.182 4.014,-0.188 5.446,-1.201l-0.006,0.246c-0.306,3.263 -3.967,4.522 -7.229,4.216c-0,-0 -34.485,-2.436 -49.226,-4.885c-14.934,-2.48 -42.045,-11.62 -42.465,-17.278l2.733,-26.016l1.459,-0.117Z" style="fill:#9b2929;"/><path d="M325.432,47.162l-13.096,20.338l-15.156,0.442l5.984,-20.78l22.268,0Z" style="fill:#b82627;"/><path d="M327.351,48.398l-13.096,20.338c-0.408,0.632 -1.101,1.023 -1.853,1.045l-15.156,0.442c-0.728,0.021 -1.423,-0.307 -1.87,-0.883c-0.446,-0.575 -0.591,-1.33 -0.389,-2.03l5.984,-20.779c0.281,-0.978 1.176,-1.651 2.193,-1.651l22.268,0c0.835,0 1.604,0.456 2.004,1.189c0.399,0.734 0.367,1.627 -0.085,2.329Zm-1.919,-1.236l-22.268,0l-5.984,20.78l15.156,-0.442l13.096,-20.338Z" style="fill:#231f20;"/><path d="M334.151,33.686l-15.886,24.671l-18.385,0.535l7.259,-25.206l27.012,0Z" style="fill:#b82627;"/></svg>