<?xml version="1.0" encoding="UTF-8" standalone="no"?>
<!DOCTYPE svg PUBLIC "-//W3C//DTD SVG 1.1//EN" "http://www.w3.org/Graphics/SVG/1.1/DTD/svg11.dtd">
<svg width="100%" height="100%" viewBox="0 0 363 302" version="1.1" xmlns="http://www.w3.org/2000/svg" xmlns:xlink="http://www.w3.org/1999/xlink" xml:space="preserve" xmlns:serif="http://www.serif.com/" style="fill-rule:evenodd;clip-rule:evenodd;stroke-linecap:round;stroke-linejoin:round;stroke-miterlimit:2;">
    <g transform="matrix(1,0,0,1,-1103.23,-1567.18)">
        <g id="platform">
            <g transform="matrix(0.983684,0,0,0.969498,20.0476,54.2028)">
                <path d="M1460.36,1644.68C1462.91,1607.22 1445.85,1591.68 1414.58,1591.68C1398.29,1591.43 1379.54,1589.48 1363.04,1587.06C1345.61,1584.49 1328.66,1576.66 1311.35,1576.79C1286.82,1576.96 1262.71,1586.49 1238.85,1589.07C1222.35,1590.85 1209.25,1582.19 1193.98,1583.62C1182.33,1584.7 1171.68,1588.74 1160.31,1589.2C1129.04,1589.2 1110.6,1609.34 1110.6,1640.54C1110.6,1640.54 1121.14,1707.42 1121.92,1734.11C1122.68,1760.35 1112.38,1792 1119.12,1805.66C1127.52,1822.7 1138.17,1827.25 1163.38,1831.14C1175.67,1833.04 1175.62,1859.87 1198.63,1862.08C1216.97,1863.85 1240.45,1825.94 1266.52,1823.98C1286.84,1822.45 1286.36,1834.77 1313.36,1838.79C1324.15,1840.4 1334.98,1837.63 1345.21,1837.53C1373.8,1837.23 1399.2,1852.31 1412.56,1853.4C1446.38,1856.16 1458.51,1837.48 1454.81,1802.99C1452.22,1778.8 1449.44,1742.4 1450.49,1716.14C1451.45,1692.12 1458.89,1666.21 1460.36,1644.68Z" style="fill:rgb(170,133,46);"/>
                <path d="M1469.79,1645.34C1468.33,1666.79 1460.89,1692.59 1459.93,1716.53C1458.9,1742.36 1461.65,1778.16 1464.21,1801.95C1466.39,1822.35 1463.18,1837.93 1455.14,1848.15C1446.72,1858.85 1432.76,1864.67 1411.8,1862.95C1405.88,1862.47 1397.79,1859.67 1388.23,1856.31C1376.17,1852.08 1361.29,1846.95 1345.31,1847.12C1334.6,1847.23 1323.27,1849.96 1311.99,1848.28C1296.75,1846.01 1289.25,1841.44 1282.71,1837.61C1278.41,1835.09 1274.76,1832.97 1267.21,1833.54C1260.95,1834.01 1254.97,1837.32 1249.13,1841.34C1242.05,1846.22 1235.27,1852.27 1228.84,1857.49C1217.74,1866.49 1206.97,1872.52 1197.74,1871.63C1182.59,1870.17 1174.74,1861.04 1168.94,1851.53C1167.24,1848.73 1165.74,1845.93 1164.18,1843.53C1163.69,1842.77 1163.19,1842.06 1162.66,1841.44C1162.41,1841.14 1162.33,1840.68 1161.96,1840.62C1132.47,1836.07 1120.5,1829.89 1110.66,1809.95C1107.36,1803.26 1106.83,1793.09 1108.01,1781.18C1109.41,1766.97 1112.91,1749.73 1112.47,1734.39C1111.71,1708.06 1101.27,1642.06 1101.27,1642.06C1101.19,1641.56 1101.15,1641.05 1101.15,1640.54C1101.15,1622.12 1106.88,1607.06 1116.93,1596.5C1127.02,1585.92 1141.62,1579.65 1160.12,1579.61C1171.26,1579.12 1181.7,1575.13 1193.12,1574.07C1201.81,1573.26 1209.91,1575.14 1218.16,1577.15C1224.39,1578.67 1230.74,1580.3 1237.85,1579.53C1262.01,1576.92 1286.44,1567.37 1311.29,1567.2C1329.06,1567.07 1346.5,1574.93 1364.39,1577.57C1380.48,1579.93 1398.77,1581.84 1414.64,1582.09C1433.37,1582.11 1447.65,1587.33 1457.07,1597.6C1466.35,1607.72 1471.29,1623.2 1469.79,1645.34ZM1460.36,1644.68C1462.91,1607.22 1445.85,1591.68 1414.58,1591.68C1398.29,1591.43 1379.54,1589.48 1363.04,1587.06C1345.61,1584.49 1328.66,1576.66 1311.35,1576.79C1286.82,1576.96 1262.71,1586.49 1238.85,1589.07C1222.35,1590.85 1209.25,1582.19 1193.98,1583.62C1182.33,1584.7 1171.68,1588.74 1160.31,1589.2C1129.04,1589.2 1110.6,1609.34 1110.6,1640.54C1110.6,1640.54 1121.14,1707.42 1121.92,1734.11C1122.68,1760.35 1112.38,1792 1119.12,1805.66C1127.52,1822.7 1138.17,1827.25 1163.38,1831.14C1175.67,1833.04 1175.62,1859.87 1198.63,1862.08C1216.97,1863.85 1240.45,1825.94 1266.52,1823.98C1286.84,1822.45 1286.36,1834.77 1313.36,1838.79C1324.15,1840.4 1334.98,1837.63 1345.21,1837.53C1373.8,1837.23 1399.2,1852.31 1412.56,1853.4C1446.38,1856.16 1458.51,1837.48 1454.81,1802.99C1452.22,1778.8 1449.44,1742.4 1450.49,1716.14C1451.45,1692.12 1458.89,1666.21 1460.36,1644.68Z"/>
                <path d="M1133.26,1595.73C1129.88,1598.09 1127.36,1601.16 1125.19,1604.55C1118.94,1614.29 1118.5,1626.32 1121.66,1640.54L1121.53,1638.77C1121.53,1638.77 1125.67,1647.27 1129.63,1660.59C1130.16,1662.36 1130.54,1664.23 1130.9,1666.17C1135.08,1688.2 1138.28,1717.81 1138.9,1733.6C1139.44,1750.8 1135.55,1770.26 1134.25,1785.83C1133.84,1790.78 1133.02,1795.05 1134.42,1797.89C1137.07,1803.25 1139.88,1806.64 1144.53,1808.78C1149.9,1811.24 1156.78,1812.58 1165.95,1814.01C1170.63,1814.74 1174.73,1816.63 1178.38,1819.58C1182.69,1823.06 1186.41,1828.69 1190.12,1835.11C1192.28,1838.82 1193.99,1844.03 1199.76,1844.85C1200.23,1844.67 1201.62,1844.13 1202.43,1843.67C1205.07,1842.2 1207.79,1840.17 1210.62,1837.94C1220.85,1829.88 1232.07,1819.64 1243.77,1813.53C1250.77,1809.88 1257.98,1807.52 1265.28,1806.99C1271.16,1806.57 1275.87,1806.99 1279.93,1807.89C1286.01,1809.23 1290.7,1811.58 1295.7,1814.57C1300.19,1817.26 1305.2,1820.74 1315.71,1822.49C1317.94,1822.87 1320.16,1823.01 1322.38,1822.98C1330.09,1822.88 1337.73,1821.63 1345.05,1821.7C1356.09,1821.89 1366.67,1823.88 1376.41,1826.75C1383.94,1828.97 1391.16,1831.08 1397.22,1834C1404.22,1837.37 1408.94,1841.78 1413.38,1843.04C1428.51,1847.51 1438.99,1846.99 1446.58,1840.15C1448.48,1838.44 1450.35,1836.73 1451.63,1834.3C1455.7,1826.6 1455.81,1815.71 1454.56,1803.02C1453.04,1788.46 1451.46,1769.48 1450.68,1750.95C1450.16,1738.68 1449.99,1726.6 1450.42,1716.14C1450.71,1709.07 1451.56,1701.84 1452.66,1694.6C1455.29,1677.25 1459.31,1659.88 1460.36,1644.68C1458.89,1666.21 1451.45,1692.12 1450.49,1716.14C1449.44,1742.4 1452.22,1778.8 1454.81,1802.99C1458.51,1837.48 1446.38,1856.16 1412.56,1853.4C1399.2,1852.31 1373.8,1837.23 1345.21,1837.53C1334.98,1837.63 1324.15,1840.4 1313.36,1838.79C1286.36,1834.77 1286.84,1822.45 1266.52,1823.98C1240.45,1825.94 1216.97,1863.85 1198.63,1862.08C1175.62,1859.87 1175.67,1833.04 1163.38,1831.14C1138.17,1827.25 1127.52,1822.7 1119.12,1805.66C1112.38,1792 1122.68,1760.35 1121.92,1734.11C1121.14,1707.42 1110.6,1640.54 1110.6,1640.54C1110.6,1619.87 1118.7,1604.05 1133.26,1595.73ZM1460.36,1644.68C1461.48,1626.98 1458.26,1614.19 1451.23,1605.66C1443.43,1596.2 1430.95,1591.98 1414.58,1592.06C1414.58,1592.06 1414.58,1592.06 1414.58,1592.06C1406.37,1591.96 1397.55,1591.44 1388.7,1590.64C1379.95,1589.85 1371.17,1588.78 1362.96,1587.6C1350.82,1585.86 1338.9,1581.56 1326.94,1579.16C1321.76,1578.13 1316.57,1577.45 1311.36,1577.5C1304.04,1577.57 1296.77,1578.49 1289.53,1579.79C1272.51,1582.84 1255.66,1588.06 1238.93,1589.88C1235.74,1590.22 1232.68,1590.18 1229.7,1589.89C1217.27,1588.71 1206.38,1583.22 1194.05,1584.35C1185.94,1585.05 1178.3,1587.19 1170.58,1588.55C1167.19,1589.14 1163.79,1589.59 1160.33,1589.7C1160.32,1589.7 1160.31,1589.7 1160.31,1589.7C1149.81,1589.52 1141,1592.2 1133.27,1595.72L1133.26,1595.73C1140.67,1591.49 1149.76,1589.2 1160.31,1589.2C1171.68,1588.74 1182.33,1584.7 1193.98,1583.62C1209.25,1582.19 1222.35,1590.85 1238.85,1589.07C1262.71,1586.49 1286.82,1576.96 1311.35,1576.79C1328.66,1576.66 1345.61,1584.49 1363.04,1587.06C1379.54,1589.48 1398.29,1591.43 1414.58,1591.68C1445.85,1591.68 1462.91,1607.22 1460.36,1644.68Z" style="fill:rgb(148,116,43);"/>
            </g>
            <g>
                <g transform="matrix(1,0,0,1,0,0.0883791)">
                    <path d="M1119.15,1783.28C1127.44,1780.13 1135.96,1775.57 1143.5,1776.51C1151.03,1777.45 1154.61,1790.98 1162.63,1793.62C1174.32,1797.46 1190.51,1800.68 1193,1814.53C1194.1,1820.66 1186.28,1825.72 1180.2,1827.05C1170.45,1829.17 1158.73,1820.94 1140.15,1824.38C1125.64,1827.07 1120.06,1810.7 1117.55,1807.34C1115.47,1804.55 1110.86,1786.43 1119.15,1783.28Z" style="fill:rgb(156,131,54);stroke:black;stroke-width:9.51px;"/>
                </g>
                <g transform="matrix(0.897646,0,0,0.819878,118.584,328.308)">
                    <path d="M1191.61,1815.08C1189.94,1819.52 1182.47,1822.57 1180.41,1822.74C1171.92,1823.42 1157.98,1816.18 1139.39,1819.62C1124.89,1822.31 1120.33,1805.53 1117.82,1802.17C1115.74,1799.38 1112.34,1782.55 1116.5,1780.19C1116.78,1780.03 1119.24,1778.9 1119.55,1778.79C1117.89,1785.38 1121.21,1794.81 1122.72,1796.82C1125.23,1800.18 1130.81,1816.55 1145.31,1813.86C1163.9,1810.42 1175.62,1818.65 1185.37,1816.53C1187.74,1816.01 1189.34,1816.58 1191.61,1815.08Z" style="fill:rgb(138,116,49);"/>
                </g>
            </g>
            <g>
                <g transform="matrix(1.05785,0,0,1.08111,-83.1771,-139.034)">
                    <path d="M1320.36,1749.21C1319.71,1755.87 1319.91,1765.31 1324.23,1768.7C1328.54,1772.09 1341.96,1768.39 1349.77,1770.29C1357.78,1772.25 1367.1,1775.66 1374.31,1775.89C1380.47,1776.09 1387.58,1771.08 1389.11,1764.91C1390.42,1759.59 1389.7,1751.86 1389.5,1745.24" style="fill:none;stroke:rgb(148,116,43);stroke-width:9.51px;"/>
                </g>
                <path d="M1320.36,1749.21C1319.71,1755.87 1319.91,1765.31 1324.23,1768.7C1328.54,1772.09 1341.96,1768.39 1349.77,1770.29C1357.78,1772.25 1363.06,1778.95 1370.26,1779.39C1384.76,1780.29 1387.58,1772.02 1389.11,1765.84C1390.42,1760.53 1389.7,1751.86 1389.5,1745.24" style="fill:rgb(156,131,54);stroke:black;stroke-width:9.51px;"/>
                <g transform="matrix(0.906062,0,0,1.05808,126.644,-106.299)">
                    <path d="M1325.45,1749.07C1325.27,1755.11 1324.17,1761.88 1327.7,1764.65C1332.01,1768.04 1345.43,1764.34 1353.24,1766.24C1361.25,1768.19 1366.53,1774.9 1373.73,1775.34C1379.93,1775.73 1384,1774.43 1386.74,1772.35C1384.37,1776.54 1379.89,1779.99 1370.26,1779.39C1363.06,1778.95 1357.78,1772.25 1349.77,1770.29C1341.96,1768.39 1328.54,1772.09 1324.23,1768.7C1319.91,1765.31 1319.71,1755.87 1320.36,1749.21L1325.45,1749.07Z" style="fill:rgb(138,116,49);"/>
                </g>
            </g>
            <g>
                <g transform="matrix(1,0,0,1,-67.0287,4.03327)">
                    <path d="M1505.42,1806.89C1504.64,1813.28 1496.38,1817.8 1487.93,1818.44C1476.16,1819.34 1460.05,1804.47 1460.25,1793.31C1460.42,1784.56 1470.34,1778.92 1474.57,1778.37C1473.85,1780.05 1472.26,1783.38 1472.26,1786.26C1472.26,1795.64 1485.63,1807.91 1496.02,1807.91C1499.8,1807.91 1502.95,1807.66 1505.42,1806.89Z" style="fill:rgb(148,116,43);"/>
                </g>
                <g transform="matrix(0.775579,0,0,0.705951,315.768,526.307)">
                    <path d="M1419.26,1785.93C1429.47,1785.93 1444.96,1799.55 1444.96,1809.67C1444.96,1819.79 1439.44,1821.84 1429.24,1821.84C1419.04,1821.84 1405.9,1808.6 1405.9,1798.48C1405.9,1788.36 1409.06,1785.93 1419.26,1785.93Z" style="fill:rgb(156,131,54);"/>
                    <path d="M1419.26,1775.94C1427.34,1775.94 1438.17,1781.89 1445.35,1789.95C1450.87,1796.15 1454.05,1803.51 1454.05,1809.67C1454.05,1817.14 1451.9,1822.03 1448.74,1825.44C1444.87,1829.62 1438.46,1831.82 1429.24,1831.82C1420.88,1831.82 1410.83,1825.83 1404.33,1817.64C1399.55,1811.62 1396.81,1804.57 1396.81,1798.48C1396.81,1789.35 1399.24,1784.08 1402.97,1780.7C1406.21,1777.77 1411.26,1775.94 1419.26,1775.94ZM1419.26,1785.93C1409.06,1785.93 1405.9,1788.36 1405.9,1798.48C1405.9,1808.6 1419.04,1821.84 1429.24,1821.84C1439.44,1821.84 1444.96,1819.79 1444.96,1809.67C1444.96,1799.55 1429.47,1785.93 1419.26,1785.93Z"/>
                </g>
                <path d="M1435.65,1808.21C1434.07,1811.62 1430.18,1812.43 1424.26,1812.43C1416.34,1812.43 1406.15,1803.09 1406.15,1795.94C1406.15,1791.1 1407.28,1788.75 1410.48,1787.74C1409.98,1789 1409.77,1790.62 1409.77,1792.71C1409.77,1799.86 1419.96,1809.2 1427.87,1809.2C1431.08,1809.2 1433.68,1808.97 1435.65,1808.21Z" style="fill:rgb(138,116,49);"/>
            </g>
            <g>
                <g transform="matrix(1.48124,0,0,1.48124,-597.383,-855.553)">
                    <path d="M1225.34,1769.36C1224.74,1770.54 1222.34,1775.82 1222.2,1777.02C1221.88,1779.8 1227.26,1780.93 1229.74,1783.18C1232.43,1785.63 1233.83,1793.55 1237.73,1792.63C1241.22,1791.8 1243.31,1792.6 1243.31,1792.6C1243.31,1792.6 1239.32,1795.46 1234.82,1796.52C1230.92,1797.44 1228.19,1789.79 1225.51,1787.34C1223.03,1785.09 1219.2,1782.7 1219.06,1779.91C1218.89,1776.45 1220.71,1771.47 1225.34,1769.36Z" style="fill:rgb(148,116,43);"/>
                </g>
                <g transform="matrix(0.798602,0,0,0.763824,250.349,421.319)">
                    <path d="M1236.38,1795.32C1242.17,1793.89 1255.61,1783.94 1257.95,1779.42C1259.92,1775.62 1253.81,1772.67 1250.35,1771.57C1247.04,1770.51 1241.09,1772.8 1237.72,1771.93C1234.06,1770.99 1227.06,1764.5 1223.09,1765.65C1219.12,1766.81 1217.35,1771.26 1216.94,1774.89C1216.54,1778.52 1223.28,1780 1226.38,1782.95C1229.75,1786.15 1231.51,1796.52 1236.38,1795.32Z" style="fill:rgb(156,131,54);"/>
                    <path d="M1240.43,1759.57C1241.96,1759.36 1245.33,1758.92 1247.12,1758.85C1249.61,1758.75 1251.9,1759.04 1253.83,1759.66C1258.55,1761.17 1265.31,1765.28 1267.92,1769.65C1270.78,1774.41 1271.35,1779.69 1268.42,1785.34C1267.02,1788.07 1263.24,1792.42 1258.29,1796.41C1251.89,1801.58 1243.62,1806.33 1239.12,1807.44C1233.14,1808.91 1228,1807 1223.8,1802.04C1221.82,1799.71 1218.66,1793.36 1217.9,1791.8C1217.27,1791.4 1216.47,1791.13 1215.78,1790.75C1213.7,1789.6 1211.8,1788.34 1210.37,1787.04C1206.23,1783.24 1204.54,1778.63 1205.12,1773.45C1206.02,1765.34 1211.03,1756.25 1219.89,1753.66C1223.24,1752.69 1227.44,1752.92 1231.84,1754.81C1234.36,1755.89 1238.68,1758.5 1240.43,1759.57ZM1236.38,1795.32C1242.17,1793.89 1255.61,1783.94 1257.95,1779.42C1259.92,1775.62 1253.81,1772.67 1250.35,1771.57C1247.04,1770.51 1241.09,1772.8 1237.72,1771.93C1234.06,1770.99 1227.06,1764.5 1223.09,1765.65C1219.12,1766.81 1217.35,1771.26 1216.94,1774.89C1216.54,1778.52 1223.28,1780 1226.38,1782.95C1229.75,1786.15 1231.51,1796.52 1236.38,1795.32Z"/>
                </g>
                <path d="M1228.19,1769.87C1226.58,1771.34 1225.78,1773.67 1225.55,1775.67C1225.23,1778.44 1230.61,1779.57 1233.08,1781.83C1235.77,1784.27 1237.18,1792.19 1241.07,1791.27C1241.11,1791.26 1241.14,1791.26 1241.17,1791.25C1239.86,1791.92 1238.67,1792.41 1237.73,1792.63C1233.83,1793.55 1232.43,1785.63 1229.74,1783.18C1227.26,1780.93 1221.88,1779.8 1222.2,1777.02C1222.53,1774.25 1223.94,1770.85 1227.11,1769.97C1227.45,1769.87 1227.81,1769.85 1228.19,1769.87Z" style="fill:rgb(138,116,49);"/>
            </g>
            <g transform="matrix(0.976679,0,0,0.958493,30.1095,69.2505)">
                <path d="M1458.09,1623.6C1451.64,1606.04 1446.5,1598.57 1428,1595.78C1419.11,1594.44 1403.73,1590.69 1388.23,1591.65C1337.54,1594.81 1341.64,1579.98 1313.38,1579.22C1288.68,1578.55 1268.36,1590.36 1240.16,1592.59C1224.41,1593.83 1212.17,1586.89 1199.52,1586.49C1177.61,1585.8 1172.9,1593.84 1158.08,1592.71C1142.72,1591.53 1121.37,1607.12 1114.92,1623.6C1112.19,1630.57 1112.05,1640.71 1112.29,1654.3C1112.44,1663.32 1115.75,1676.92 1116.25,1685.28C1116.97,1697.5 1121.98,1725.56 1125.26,1730.46C1131.65,1740.02 1142.74,1741.31 1154.6,1742.62C1184.5,1745.91 1254.81,1751.22 1301.71,1747.01C1343.34,1743.28 1396.2,1744.39 1425,1738.38C1433.73,1736.56 1446.43,1727.36 1448.86,1718.4C1450.25,1713.24 1449.89,1707.27 1450.86,1698.96C1454.49,1667.8 1464.38,1640.73 1458.09,1623.6Z" style="fill:rgb(54,119,57);"/>
                <path d="M1467.04,1620.18C1470.03,1628.32 1470.24,1638.33 1468.79,1649.8C1466.95,1664.26 1462.52,1681.45 1460.35,1700.11C1459.3,1709.04 1459.57,1715.44 1458.07,1720.98C1456.69,1726.08 1453.2,1731.39 1448.43,1735.91C1442.08,1741.94 1433.55,1746.54 1426.91,1747.92C1397.87,1753.98 1344.54,1752.95 1302.54,1756.71C1255.05,1760.97 1183.85,1755.64 1153.57,1752.3C1138.74,1750.66 1125.36,1747.89 1117.36,1735.95C1116.05,1733.98 1114.25,1729.34 1112.73,1723.23C1109.96,1711.99 1107.24,1694.85 1106.71,1685.87C1106.2,1677.39 1102.89,1663.61 1102.73,1654.47C1102.47,1639.19 1102.98,1627.83 1106.05,1619.99C1110.64,1608.26 1121.43,1596.76 1133.4,1589.85C1141.93,1584.93 1151.01,1582.4 1158.8,1583C1164.79,1583.46 1168.71,1581.89 1173.37,1580.45C1179.89,1578.43 1187.42,1576.37 1199.81,1576.76C1205.54,1576.94 1211.2,1578.24 1217.05,1579.72C1223.9,1581.45 1231.09,1583.54 1239.42,1582.88C1252.89,1581.82 1264.47,1578.41 1275.64,1575.4C1288.22,1572.01 1300.35,1569.12 1313.63,1569.48C1326.54,1569.83 1333.55,1572.69 1340.99,1575.84C1349.96,1579.62 1359.78,1583.67 1387.64,1581.93C1403.91,1580.92 1420.07,1584.74 1429.4,1586.15C1438.67,1587.55 1445.19,1590.09 1450.28,1593.8C1457.71,1599.21 1462.32,1607.34 1467.04,1620.18ZM1458.09,1623.6C1451.64,1606.04 1446.5,1598.57 1428,1595.78C1419.11,1594.44 1403.73,1590.69 1388.23,1591.65C1337.54,1594.81 1341.64,1579.98 1313.38,1579.22C1288.68,1578.55 1268.36,1590.36 1240.16,1592.59C1224.41,1593.83 1212.17,1586.89 1199.52,1586.49C1177.61,1585.8 1172.9,1593.84 1158.08,1592.71C1142.72,1591.53 1121.37,1607.12 1114.92,1623.6C1112.19,1630.57 1112.05,1640.71 1112.29,1654.3C1112.44,1663.32 1115.75,1676.92 1116.25,1685.28C1116.97,1697.5 1121.98,1725.56 1125.26,1730.46C1131.65,1740.02 1142.74,1741.31 1154.6,1742.62C1184.5,1745.91 1254.81,1751.22 1301.71,1747.01C1343.34,1743.28 1396.2,1744.39 1425,1738.38C1433.73,1736.56 1446.43,1727.36 1448.86,1718.4C1450.25,1713.24 1449.89,1707.27 1450.86,1698.96C1454.49,1667.8 1464.38,1640.73 1458.09,1623.6Z"/>
                <path d="M1298.51,1580.21C1279.94,1583.03 1262.54,1590.85 1240.16,1592.62C1235.81,1592.97 1231.72,1592.7 1227.82,1592.11C1217.61,1590.56 1208.67,1586.86 1199.52,1586.58C1194.54,1586.43 1190.45,1586.73 1186.93,1587.28C1174.94,1589.13 1169.54,1593.76 1158.07,1592.91C1153.32,1592.59 1148.01,1593.88 1142.76,1596.3C1177.64,1599.58 1162.36,1599.89 1138.84,1599.68C1138.49,1604.83 1138.13,1610.14 1137.76,1615.62C1137.74,1615.88 1137.38,1615.98 1137.19,1616.16C1134.19,1619 1131.61,1622.24 1129.8,1625.62C1130.49,1618.07 1131.19,1610.48 1131.89,1602.9C1130.73,1603.52 1129.34,1604.04 1129.24,1605.23C1125.33,1654.14 1122.51,1689.77 1120.58,1714.54C1118.48,1704.48 1116.66,1692.28 1116.25,1685.28C1115.75,1676.92 1112.44,1663.32 1112.29,1654.3C1112.05,1640.71 1112.19,1630.57 1114.92,1623.6C1121.37,1607.12 1142.72,1591.53 1158.08,1592.71C1172.9,1593.84 1177.61,1585.8 1199.52,1586.49C1212.17,1586.89 1224.41,1593.83 1240.16,1592.59C1262.53,1590.82 1279.94,1583.02 1298.51,1580.21ZM1129.8,1625.62C1128.9,1635.4 1128.02,1645.1 1127.16,1654.55L1127.09,1654.03C1126.89,1647.44 1126.77,1641.74 1127.07,1636.86C1127.26,1633.79 1127.47,1631.16 1128.27,1629.02C1128.69,1627.88 1129.2,1626.74 1129.8,1625.62ZM1127.16,1654.55L1131.29,1684.36C1131.58,1688.52 1132.46,1694.71 1133.57,1701.05C1135.03,1709.4 1134.28,1724.05 1138.53,1722.38C1138.56,1722.36 1138.59,1722.34 1138.61,1722.32C1139.79,1723.6 1141.38,1724.19 1143.03,1724.7C1147.06,1725.95 1151.6,1726.33 1156.27,1726.82C1172.14,1728.53 1199.55,1730.73 1228.68,1731.82C1240.66,1732.27 1252.94,1732.39 1264.82,1732.5C1277.41,1732.62 1289.55,1732.75 1300.42,1732.1C1320.06,1731.26 1342.05,1731.27 1362.97,1731.66C1367.14,1731.74 1371.24,1731.8 1375.29,1732.02C1394.28,1733.06 1411.18,1734.8 1424.08,1733.85C1428.93,1733.54 1435.25,1731.21 1440.41,1727.62C1444.24,1724.96 1447.37,1721.86 1448.85,1718.41C1446.42,1727.37 1433.72,1736.56 1425,1738.38C1396.2,1744.39 1343.34,1743.28 1301.71,1747.01C1254.81,1751.22 1184.5,1745.91 1154.6,1742.62C1142.74,1741.31 1131.65,1740.02 1125.26,1730.46C1124.09,1728.72 1122.7,1724.04 1121.37,1718.18C1123.01,1700.31 1125.01,1678.22 1127.16,1654.55ZM1138.61,1722.32C1138.4,1722.1 1138.21,1721.86 1138.03,1721.59C1138.14,1721.76 1138.73,1722.14 1138.61,1722.32ZM1448.85,1718.41L1448.85,1718.4L1450.84,1698.95C1453.13,1679.26 1457.92,1661.2 1459.56,1646.25C1460.51,1637.55 1460.4,1629.9 1458.09,1623.6C1464.38,1640.73 1454.49,1667.8 1450.86,1698.96C1450.7,1700.3 1450.58,1701.58 1450.48,1702.8L1448.86,1718.39C1448.86,1718.39 1448.85,1718.41 1448.85,1718.41Z" style="fill:rgb(50,100,49);fill-opacity:0;"/>
            </g>
            <path d="M1135.85,1605.03C1134.53,1607.07 1133.43,1609.17 1132.58,1611.29C1129.92,1617.97 1129.78,1627.69 1130.01,1640.71C1130.16,1649.36 1133.39,1662.4 1133.88,1670.41C1134.59,1682.12 1139.47,1709.01 1142.68,1713.72C1148.92,1722.88 1159.75,1724.12 1171.33,1725.37C1200.54,1728.53 1269.21,1733.61 1315.01,1729.58C1355.67,1726.01 1407.3,1727.07 1435.42,1721.31C1438.29,1720.72 1441.6,1719.34 1444.82,1717.42C1441.76,1725.65 1430.04,1733.81 1421.87,1735.48C1393.75,1741.24 1342.12,1740.18 1301.46,1743.75C1255.65,1747.78 1186.99,1742.7 1157.78,1739.54C1146.2,1738.28 1135.37,1737.05 1129.12,1727.89C1125.92,1723.18 1121.03,1696.29 1120.32,1684.58C1119.84,1676.57 1116.61,1663.53 1116.46,1654.88C1116.23,1641.86 1116.36,1632.14 1119.03,1625.46C1122.05,1617.89 1128.4,1610.53 1135.85,1605.03Z" style="fill:rgb(50,100,49);"/>
            <g>
                <g transform="matrix(1.03004,0,0,1.02644,-41.2714,-40.9545)">
                    <path d="M1207.9,1653.82C1203.89,1647.7 1204.13,1639.81 1209.53,1633.3C1211.77,1630.59 1215.06,1628.83 1219.03,1628.34C1224.45,1627.68 1231.43,1629.88 1234.48,1631.83C1236.71,1633.26 1238.73,1635.5 1240.15,1637.34C1241.6,1636.81 1243.39,1636.24 1245.4,1635.8C1249.67,1634.86 1254.2,1635.68 1257.01,1637.04C1259.75,1638.36 1261.48,1640.32 1262.42,1642.07C1264.02,1645.07 1265.94,1650.45 1261.53,1658.25C1260.59,1659.91 1259.22,1661.61 1257.99,1662.98C1259.41,1664.04 1260.85,1665.35 1261.89,1666.84C1266.02,1672.79 1266.7,1679.29 1263.94,1685.55C1262.37,1689.11 1258.4,1693.57 1252.46,1694.7C1248.04,1695.53 1241.69,1694.94 1234.6,1687.62C1233.46,1686.44 1232.54,1685.1 1231.83,1683.64C1230.85,1684.84 1229.85,1685.91 1228.95,1686.58C1223.64,1690.47 1217.43,1691.22 1213.07,1690.24C1209.95,1689.53 1207.5,1687.98 1205.83,1686.12C1205.39,1685.64 1204.53,1684.55 1203.75,1682.76C1202.81,1680.6 1201.21,1675.65 1200.76,1670.87C1200.16,1664.54 1201.99,1658.72 1205.47,1655.52C1206.2,1654.85 1207.01,1654.28 1207.9,1653.82ZM1216.83,1639.39C1213.84,1642.99 1214.2,1647.54 1217.43,1650.41C1220.63,1653.26 1225.53,1653.36 1224.83,1658.56C1224.63,1660.02 1223.45,1662.89 1220.81,1663.14C1217.93,1663.41 1213.52,1661.04 1211.88,1662.55C1207.75,1666.33 1212.05,1678.83 1212.87,1679.73C1214.61,1681.66 1219.42,1681.77 1223.35,1678.88C1227.62,1675.75 1228.42,1667.49 1234.19,1668.25C1240.68,1669.12 1237.79,1677.25 1241.4,1680.98C1248.98,1688.8 1254.01,1684.53 1255.26,1681.69C1256.65,1678.54 1256.18,1675.28 1254.1,1672.29C1250.91,1667.69 1246.47,1669.84 1246.33,1664.15C1246.2,1659.18 1250.36,1658.7 1253.28,1653.54C1255.18,1650.17 1254.75,1647.88 1254.06,1646.58C1253.41,1645.38 1250.29,1644.48 1247.42,1645.11C1240.67,1646.59 1240.61,1648.34 1237.9,1648.08C1233.83,1647.7 1234.33,1643.04 1229.38,1639.86C1226.78,1638.2 1219.42,1636.26 1216.83,1639.39Z" style="fill:rgb(50,100,49);"/>
                </g>
                <path d="M1216.83,1639.39C1219.42,1636.26 1226.78,1638.2 1229.38,1639.86C1234.33,1643.04 1233.83,1647.7 1237.9,1648.08C1240.61,1648.34 1240.67,1646.59 1247.42,1645.11C1250.29,1644.48 1253.41,1645.38 1254.06,1646.58C1254.75,1647.88 1255.18,1650.17 1253.28,1653.54C1250.36,1658.7 1246.2,1659.18 1246.33,1664.15C1246.47,1669.84 1250.91,1667.69 1254.1,1672.29C1256.18,1675.28 1256.65,1678.54 1255.26,1681.69C1254.01,1684.53 1248.98,1688.8 1241.4,1680.98C1237.79,1677.25 1240.68,1669.12 1234.19,1668.25C1228.42,1667.49 1227.62,1675.75 1223.35,1678.88C1219.42,1681.77 1214.61,1681.66 1212.87,1679.73C1212.05,1678.83 1207.75,1666.33 1211.88,1662.55C1213.52,1661.04 1217.93,1663.41 1220.81,1663.14C1223.45,1662.89 1224.63,1660.02 1224.83,1658.56C1225.53,1653.36 1220.63,1653.26 1217.43,1650.41C1214.2,1647.54 1213.84,1642.99 1216.83,1639.39Z" style="fill:rgb(176,45,45);"/>
                <path d="M1207.9,1653.83C1203.88,1647.72 1204.11,1639.83 1209.51,1633.32C1211.75,1630.61 1215.05,1628.85 1219.03,1628.36C1224.45,1627.69 1231.44,1629.9 1234.5,1631.86C1236.73,1633.28 1238.74,1635.51 1240.17,1637.35C1241.61,1636.82 1243.39,1636.26 1245.39,1635.82C1249.67,1634.88 1254.21,1635.69 1257.02,1637.06C1259.77,1638.38 1261.5,1640.34 1262.44,1642.09C1264.04,1645.08 1265.96,1650.45 1261.55,1658.23C1260.6,1659.9 1259.23,1661.61 1257.99,1662.98C1259.41,1664.04 1260.87,1665.36 1261.91,1666.86C1266.04,1672.8 1266.71,1679.28 1263.96,1685.53C1262.39,1689.1 1258.42,1693.56 1252.47,1694.68C1248.04,1695.51 1241.67,1694.93 1234.58,1687.6C1233.44,1686.43 1232.53,1685.1 1231.82,1683.65C1230.86,1684.84 1229.87,1685.89 1228.97,1686.55C1223.66,1690.45 1217.42,1691.21 1213.06,1690.22C1209.94,1689.51 1207.48,1687.96 1205.8,1686.1C1205.37,1685.62 1204.51,1684.53 1203.73,1682.74C1202.79,1680.58 1201.19,1675.64 1200.74,1670.87C1200.15,1664.54 1201.97,1658.73 1205.45,1655.54C1206.18,1654.87 1207,1654.29 1207.9,1653.83ZM1216.83,1639.39C1213.84,1642.99 1214.2,1647.54 1217.43,1650.41C1220.63,1653.26 1225.53,1653.36 1224.83,1658.56C1224.63,1660.02 1223.45,1662.89 1220.81,1663.14C1217.93,1663.41 1213.52,1661.04 1211.88,1662.55C1207.75,1666.33 1212.05,1678.83 1212.87,1679.73C1214.61,1681.66 1219.42,1681.77 1223.35,1678.88C1227.62,1675.75 1228.42,1667.49 1234.19,1668.25C1240.68,1669.12 1237.79,1677.25 1241.4,1680.98C1248.98,1688.8 1254.01,1684.53 1255.26,1681.69C1256.65,1678.54 1256.18,1675.28 1254.1,1672.29C1250.91,1667.69 1246.47,1669.84 1246.33,1664.15C1246.2,1659.18 1250.36,1658.7 1253.28,1653.54C1255.18,1650.17 1254.75,1647.88 1254.06,1646.58C1253.41,1645.38 1250.29,1644.48 1247.42,1645.11C1240.67,1646.59 1240.61,1648.34 1237.9,1648.08C1233.83,1647.7 1234.33,1643.04 1229.38,1639.86C1226.78,1638.2 1219.42,1636.26 1216.83,1639.39Z"/>
                <path d="M1224.03,1678.31C1223.81,1678.52 1223.59,1678.71 1223.35,1678.88C1219.42,1681.77 1214.61,1681.66 1212.87,1679.73C1212.05,1678.83 1207.75,1666.33 1211.88,1662.55C1212.51,1661.97 1213.56,1661.96 1214.78,1662.16C1212.98,1667.15 1216.3,1676.62 1217,1677.41C1218.25,1678.79 1221.08,1679.24 1224.03,1678.31ZM1224.04,1660.82C1224.5,1660.02 1224.75,1659.17 1224.83,1658.56C1225.53,1653.36 1220.63,1653.26 1217.43,1650.41C1214.2,1647.54 1213.84,1642.99 1216.83,1639.39C1217.65,1638.4 1218.95,1637.91 1220.42,1637.77C1218.03,1641.25 1218.54,1645.4 1221.56,1648.08C1224.77,1650.93 1229.66,1651.03 1228.96,1656.24C1228.77,1657.69 1227.59,1660.57 1224.95,1660.82C1224.66,1660.84 1224.36,1660.84 1224.04,1660.82ZM1254.4,1683.08C1252.38,1685.57 1247.8,1687.58 1241.4,1680.98C1237.79,1677.25 1240.68,1669.12 1234.19,1668.25C1233.93,1668.22 1233.67,1668.2 1233.43,1668.2C1234.65,1666.66 1236.13,1665.64 1238.33,1665.93C1244.82,1666.79 1241.92,1674.92 1245.54,1678.66C1249.1,1682.33 1252.1,1683.34 1254.4,1683.08Z" style="fill:rgb(155,40,39);"/>
            </g>
            <g>
                <g transform="matrix(1.05215,0,0,1.06914,-72.5672,-110.666)">
                    <path d="M1354.33,1593.97C1352.87,1600.23 1348.66,1606.4 1353.68,1611.09C1356.21,1613.45 1358.89,1613.81 1363.43,1612.88C1366.88,1612.17 1370.33,1608.96 1370.33,1608.96C1370.33,1608.96 1384.81,1623.73 1390.35,1618.3" style="fill:none;stroke:rgb(50,100,49);stroke-width:7.16px;stroke-linecap:butt;"/>
                </g>
                <path d="M1361.63,1605.17C1364.25,1606.07 1364.83,1603.87 1366.51,1602.57C1368.97,1600.67 1369.57,1598.86 1373.54,1600.55C1375.61,1601.42 1376.04,1604.61 1380.9,1608.61C1384.51,1611.58 1388.64,1614.67 1390.5,1613.45C1392.21,1612.32 1391.45,1609.07 1389.84,1606.35C1388.37,1603.88 1386.09,1601.95 1386.52,1600.24C1386.96,1598.51 1387.73,1596.6 1390.03,1595.18C1392.52,1593.64 1397.09,1595.19 1395.95,1591.85C1395.41,1590.28 1392.64,1589.08 1389.65,1589.83C1385.77,1590.8 1381.87,1591.85 1380.14,1590.86C1375.55,1588.2 1376.75,1586.06 1376.98,1583.46C1377.37,1578.99 1375.67,1576.9 1372.53,1576.71C1368.44,1576.45 1366.18,1579.14 1366.07,1582.89C1365.99,1585.48 1368.73,1589.14 1368.03,1591.71C1367.32,1594.28 1363.94,1597.24 1361.9,1598.7C1359.96,1600.1 1358.32,1604.03 1361.63,1605.17Z" style="fill:rgb(48,185,137);"/>
                <path d="M1358.03,1589.49C1357.38,1587.38 1356.52,1584.22 1356.57,1582.61C1356.7,1578.09 1358.39,1574.31 1361.02,1571.64C1363.84,1568.77 1367.84,1566.88 1373.12,1567.22C1376.89,1567.45 1379.86,1568.85 1382.11,1570.99C1384.33,1573.1 1386.17,1576.23 1386.49,1580.81C1386.79,1580.74 1387.07,1580.67 1387.33,1580.6C1392.57,1579.29 1397.47,1580.72 1400.43,1582.83C1402.75,1584.48 1404.21,1586.63 1404.95,1588.78C1406.09,1592.12 1405.66,1594.61 1405,1596.44C1404.24,1598.55 1402.95,1600.22 1401.15,1601.5C1400.64,1601.86 1399.68,1602.23 1398.61,1602.58C1400.57,1606.38 1401.29,1610.61 1400.78,1613.56C1400.19,1616.96 1398.43,1619.6 1395.73,1621.38C1393.1,1623.12 1389.56,1623.92 1385.35,1622.55C1382.44,1621.6 1378.39,1618.86 1374.86,1615.95C1373.19,1614.58 1371.71,1613.01 1370.52,1611.61C1368.92,1612.85 1366.72,1614.34 1365.03,1614.67C1363.24,1615.02 1361.12,1615.05 1358.54,1614.16C1346.62,1610.07 1349.38,1595.99 1356.35,1590.98C1356.75,1590.69 1357.43,1590.06 1358.03,1589.49ZM1361.63,1605.17C1364.25,1606.07 1364.83,1603.87 1366.51,1602.57C1368.97,1600.67 1369.57,1598.86 1373.54,1600.55C1375.61,1601.42 1376.04,1604.61 1380.9,1608.61C1384.51,1611.58 1388.64,1614.67 1390.5,1613.45C1392.21,1612.32 1391.45,1609.07 1389.84,1606.35C1388.37,1603.88 1386.09,1601.95 1386.52,1600.24C1386.96,1598.51 1387.73,1596.6 1390.03,1595.18C1392.52,1593.64 1397.09,1595.19 1395.95,1591.85C1395.41,1590.28 1392.64,1589.08 1389.65,1589.83C1385.77,1590.8 1381.87,1591.85 1380.14,1590.86C1375.55,1588.2 1376.75,1586.06 1376.98,1583.46C1377.37,1578.99 1375.67,1576.9 1372.53,1576.71C1368.44,1576.45 1366.18,1579.14 1366.07,1582.89C1365.99,1585.48 1368.73,1589.14 1368.03,1591.71C1367.32,1594.28 1363.94,1597.24 1361.9,1598.7C1359.96,1600.1 1358.32,1604.03 1361.63,1605.17Z"/>
                <path d="M1372.8,1576.73C1371.1,1577.78 1370.18,1579.72 1370.11,1582.08C1370.03,1584.67 1372.77,1588.34 1372.06,1590.9C1371.36,1593.47 1367.98,1596.43 1365.93,1597.9C1364.13,1599.19 1362.59,1602.68 1365.03,1604.08C1364.18,1605.02 1363.35,1605.76 1361.63,1605.17C1358.32,1604.03 1359.96,1600.1 1361.9,1598.7C1363.94,1597.24 1367.32,1594.28 1368.03,1591.71C1368.73,1589.14 1365.99,1585.48 1366.07,1582.89C1366.18,1579.14 1368.44,1576.45 1372.53,1576.71C1372.62,1576.71 1372.71,1576.72 1372.8,1576.73ZM1372.44,1600.14C1373.69,1599.08 1374.82,1598.57 1377.58,1599.74C1379.64,1600.62 1380.08,1603.8 1384.94,1607.81C1387.08,1609.57 1389.4,1611.37 1391.33,1612.29C1391.18,1612.78 1390.91,1613.17 1390.5,1613.45C1388.64,1614.67 1384.51,1611.58 1380.9,1608.61C1376.04,1604.61 1375.61,1601.42 1373.54,1600.55C1373.14,1600.38 1372.78,1600.24 1372.44,1600.14ZM1394.43,1594.17C1394.79,1594 1395.18,1593.88 1395.58,1593.79C1395.28,1593.98 1394.89,1594.09 1394.43,1594.17ZM1391.36,1589.6C1389.99,1589.93 1388.68,1590.21 1387.53,1590.36C1388.23,1590.18 1388.94,1590 1389.65,1589.83C1390.23,1589.68 1390.81,1589.61 1391.36,1589.6Z" style="fill:rgb(19,159,116);"/>
            </g>
        </g>
    </g>
</svg>
