<?xml version="1.0" encoding="UTF-8" standalone="no"?>
<!DOCTYPE svg PUBLIC "-//W3C//DTD SVG 1.1//EN" "http://www.w3.org/Graphics/SVG/1.1/DTD/svg11.dtd">
<svg width="100%" height="100%" viewBox="0 0 1252 452" version="1.1" xmlns="http://www.w3.org/2000/svg" xmlns:xlink="http://www.w3.org/1999/xlink" xml:space="preserve" xmlns:serif="http://www.serif.com/" style="fill-rule:evenodd;clip-rule:evenodd;stroke-linecap:round;stroke-linejoin:round;stroke-miterlimit:2;">
    <g transform="matrix(1,0,0,1,-614.234,-1072.39)">
        <g id="platform_long">
            <g>
                <path d="M633.028,1171.19C633.47,1169.82 676.138,1157.01 698.528,1157.33C717.501,1157.61 742.429,1170.64 785.06,1169.69C897.169,1167.21 970.014,1137.35 989.214,1136.46C1021.18,1134.98 1025.02,1157.03 1082.11,1160.58C1114.9,1162.62 1160.94,1153.34 1185.8,1153.36C1228.54,1153.39 1286.35,1179.4 1337.78,1180.14C1409.62,1181.18 1445.72,1155.27 1494.5,1153.53C1515.6,1152.77 1543.32,1171.99 1630.53,1171.27C1681.29,1170.85 1763.12,1170.35 1798.09,1178.17C1817.03,1182.4 1837.64,1198.98 1840.36,1218.19C1842.48,1233.15 1848.44,1291.61 1847.72,1296.68C1840.54,1347.22 1869,1430.69 1847.73,1446.04C1808.76,1474.16 1737.12,1425.78 1686.7,1445.76C1626.26,1469.72 1613.62,1514.59 1586.8,1514.54C1552.82,1514.49 1508.3,1456.94 1465.83,1459.28C1443.8,1460.49 1412.61,1460.38 1404.2,1460.17C1380.2,1459.56 1392.21,1450.25 1337.17,1446.99C1320.87,1446.02 1278.04,1448.26 1261.85,1450.44C1234.32,1454.14 1211.11,1437.17 1172.08,1441.21C1137.4,1444.81 1134.81,1445.01 1091.14,1441.33C1078.02,1440.22 1048.75,1449.87 1002.45,1447.71C973.867,1446.38 937.649,1466.29 920.037,1473.99C895.834,1484.56 893.837,1498.66 861.994,1495.9C809.226,1491.33 813.827,1439.35 778.835,1438.53C723.912,1437.25 693.053,1425.68 654.507,1418.48C630.503,1413.99 629.337,1303.33 628.879,1281.47C628.349,1256.1 625.598,1194.19 633.028,1171.19Z" style="fill:rgb(170,133,46);"/>
                <path d="M623.979,1168.26C624.254,1167.41 625.614,1163.78 630.735,1161.67C638.607,1158.42 677.335,1147.51 698.667,1147.83C706.855,1147.94 716.089,1150.16 727.144,1152.84C741.89,1156.41 760.31,1160.73 784.85,1160.19C896.835,1157.7 969.596,1127.85 988.774,1126.96C1003.46,1126.28 1013.01,1129.81 1023.34,1134.69C1036.09,1140.71 1050.33,1149.07 1082.7,1151.09C1115.31,1153.12 1161.09,1143.83 1185.81,1143.85C1207.85,1143.87 1233.8,1150.46 1260.85,1157.26C1286.35,1163.68 1312.9,1170.27 1337.92,1170.63C1379.88,1171.24 1409.31,1162.32 1436.4,1154.79C1455.69,1149.42 1473.88,1144.75 1494.16,1144.03C1501.26,1143.77 1509.04,1145.38 1519.07,1147.95C1539.5,1153.18 1570.71,1162.25 1630.45,1161.76C1681.87,1161.34 1764.74,1160.97 1800.17,1168.89C1822.61,1173.91 1846.55,1194.08 1849.78,1216.85C1851.97,1232.33 1857.88,1292.77 1857.13,1298.02C1852.17,1332.95 1864.64,1383.81 1865.26,1416.38C1865.44,1426.2 1864.56,1434.58 1862.36,1440.88C1860.38,1446.57 1857.3,1450.86 1853.3,1453.75C1835.78,1466.39 1812.49,1466.15 1787.09,1461.7C1770.26,1458.75 1752.44,1454.13 1735.06,1451.75C1719.27,1449.58 1703.87,1449.19 1690.21,1454.6C1655.54,1468.34 1637.43,1489.43 1622.86,1503.98C1610.55,1516.27 1599.79,1524.07 1586.78,1524.05C1578.69,1524.04 1570.05,1521.47 1561.08,1517.1C1549.41,1511.41 1536.96,1502.61 1524.14,1493.87C1505.27,1481 1485.73,1467.71 1466.35,1468.77C1444.05,1470 1412.47,1469.89 1403.96,1469.67C1392.43,1469.38 1387.83,1467.39 1382.21,1464.89C1375.69,1461.98 1367.38,1458.3 1336.61,1456.48C1320.7,1455.54 1278.91,1457.74 1263.11,1459.86C1250.96,1461.5 1239.56,1459.62 1227.5,1456.9C1212,1453.4 1195.23,1448.37 1173.06,1450.67C1137.62,1454.35 1134.97,1454.57 1090.35,1450.8C1077.27,1449.7 1048.12,1459.36 1002.01,1457.21C974.84,1455.94 940.584,1475.38 923.845,1482.7C914.85,1486.63 909.189,1491.14 903.701,1494.9C893.322,1502.03 883.555,1507.31 861.173,1505.37C831.108,1502.77 817.216,1486.93 806.026,1471.35C802.292,1466.16 798.919,1461.01 795.123,1456.71C790.871,1451.88 786.066,1448.21 778.613,1448.04C723.022,1446.74 691.775,1435.11 652.761,1427.82C647.732,1426.88 642.948,1423.72 639.001,1418.03C635.1,1412.41 631.777,1403.77 629.232,1393.28C620.466,1357.17 619.699,1297.26 619.373,1281.67C618.828,1255.58 616.338,1191.92 623.979,1168.26ZM633.028,1171.19C625.598,1194.19 628.349,1256.1 628.879,1281.47C629.337,1303.33 630.503,1413.99 654.507,1418.48C693.053,1425.68 723.912,1437.25 778.835,1438.53C813.827,1439.35 809.226,1491.33 861.994,1495.9C893.837,1498.66 895.834,1484.56 920.037,1473.99C937.649,1466.29 973.867,1446.38 1002.45,1447.71C1048.75,1449.87 1078.02,1440.22 1091.14,1441.33C1134.81,1445.01 1137.4,1444.81 1172.08,1441.21C1211.11,1437.17 1234.32,1454.14 1261.85,1450.44C1278.04,1448.26 1320.87,1446.02 1337.17,1446.99C1392.21,1450.25 1380.2,1459.56 1404.2,1460.17C1412.61,1460.38 1443.8,1460.49 1465.83,1459.28C1508.3,1456.94 1552.82,1514.49 1586.8,1514.54C1613.62,1514.59 1626.26,1469.72 1686.7,1445.76C1737.12,1425.78 1808.76,1474.16 1847.73,1446.04C1869,1430.69 1840.54,1347.22 1847.72,1296.68C1848.44,1291.61 1842.48,1233.15 1840.36,1218.19C1837.64,1198.98 1817.03,1182.4 1798.09,1178.17C1763.12,1170.35 1681.29,1170.85 1630.53,1171.27C1543.32,1171.99 1515.6,1152.77 1494.5,1153.53C1445.72,1155.27 1409.62,1181.18 1337.78,1180.14C1286.35,1179.4 1228.54,1153.39 1185.8,1153.36C1160.94,1153.34 1114.9,1162.62 1082.11,1160.58C1025.02,1157.03 1021.18,1134.98 989.214,1136.46C970.014,1137.35 897.169,1167.21 785.06,1169.69C742.429,1170.64 717.501,1157.61 698.528,1157.33C676.138,1157.01 633.47,1169.82 633.028,1171.19Z"/>
                <path d="M1855.45,1409.21C1856.53,1426.94 1855.18,1440.67 1847.73,1446.04C1808.76,1474.16 1737.12,1425.78 1686.7,1445.76C1626.26,1469.72 1613.62,1514.59 1586.8,1514.54C1552.82,1514.49 1508.3,1456.94 1465.83,1459.28C1443.8,1460.49 1412.61,1460.38 1404.2,1460.17C1380.2,1459.56 1392.21,1450.25 1337.17,1446.99C1320.87,1446.02 1278.04,1448.26 1261.85,1450.44C1234.32,1454.14 1211.11,1437.17 1172.08,1441.21C1137.4,1444.81 1134.81,1445.01 1091.14,1441.33C1078.02,1440.22 1048.75,1449.87 1002.45,1447.71C973.867,1446.38 937.649,1466.29 920.037,1473.99C895.834,1484.56 893.837,1498.66 861.994,1495.9C809.226,1491.33 813.827,1439.35 778.835,1438.53C723.912,1437.25 693.053,1425.68 654.507,1418.48C630.503,1413.99 629.337,1303.33 628.879,1281.47C628.349,1256.1 625.598,1194.19 633.028,1171.19C633.182,1170.71 638.457,1168.84 646.214,1166.63C642.45,1194.76 644.447,1242.05 644.887,1263.42C645.339,1285.28 646.49,1395.94 670.181,1400.43C708.223,1407.63 738.68,1419.2 792.886,1420.48C827.421,1421.3 822.881,1473.28 874.961,1477.85C906.388,1480.61 908.359,1466.51 932.247,1455.94C949.628,1448.24 985.373,1428.33 1013.59,1429.67C1059.28,1431.82 1088.16,1422.17 1101.12,1423.28C1144.21,1426.96 1146.77,1426.76 1181,1423.17C1219.52,1419.12 1242.43,1436.09 1269.6,1432.39C1285.57,1430.21 1327.85,1427.97 1343.94,1428.94C1398.26,1432.2 1386.4,1441.51 1410.09,1442.12C1418.39,1442.34 1449.18,1442.45 1470.92,1441.23C1512.84,1438.89 1556.77,1496.44 1590.31,1496.5C1616.78,1496.54 1629.25,1451.67 1688.91,1427.71C1738.67,1407.74 1809.38,1456.12 1847.84,1427.99C1852.43,1424.63 1854.67,1418.02 1855.45,1409.21ZM1847.17,1284.41C1847.66,1290.83 1847.9,1295.42 1847.72,1296.68C1847.3,1299.63 1847,1302.69 1846.81,1305.84C1846.52,1298.36 1846.59,1291.15 1847.17,1284.41Z" style="fill:rgb(148,116,43);"/>
            </g>
            <g>
                <g transform="matrix(1.034,0,0,1.18502,-42.827,-244.483)">
                    <path d="M1123.98,1339.67C1121.25,1344.75 1118.92,1348.86 1116.38,1351.98C1112.64,1356.56 1108.34,1359.4 1102.63,1360.72C1096.11,1362.22 1091.2,1361.61 1083.77,1363.97C1079.35,1365.38 1068.36,1365.52 1058.47,1363.83C1054.65,1363.17 1051.13,1361.26 1047.85,1358.63C1045.72,1356.93 1043.88,1354.57 1041.25,1353.63C1040.35,1353.32 1039.19,1353.64 1038.1,1353.69C1035.98,1353.8 1033.92,1353.89 1032.19,1353.77C1027.41,1353.42 1024.02,1351.59 1021.98,1348.83C1020.67,1347.05 1019.44,1343.58 1018.93,1339.45C1018.13,1332.96 1018.46,1324.43 1018.46,1324.43C1018.62,1320.31 1022.33,1316.97 1027.05,1316.7C1027.05,1316.7 1111.45,1311.99 1128,1313.78C1132.71,1314.29 1135.29,1316.02 1136.22,1316.89C1138.4,1318.91 1139.03,1321.17 1138.76,1323.42C1138.45,1325.99 1136.69,1329.18 1133.41,1332.16C1130.65,1334.67 1124.86,1339.01 1123.98,1339.67ZM1027.65,1324.71C1027.65,1324.71 1027,1340.81 1029.71,1344.49C1031.78,1347.29 1039.86,1344.49 1044.7,1346.2C1050.71,1348.33 1054.6,1354.99 1060.24,1355.95C1068.2,1357.32 1077.06,1357.57 1080.62,1356.44C1088.37,1353.96 1093.47,1354.53 1100.29,1352.96C1107.51,1351.3 1110.8,1345.32 1115.92,1335.77C1117.69,1332.47 1129.12,1326.66 1129.61,1322.59C1130.06,1318.88 1027.65,1324.71 1027.65,1324.71Z" style="fill:rgb(148,116,43);"/>
                </g>
                <path d="M1027.65,1324.71C1027.65,1324.71 1027,1340.81 1029.71,1344.49C1031.78,1347.29 1039.86,1344.49 1044.7,1346.2C1050.71,1348.33 1054.6,1354.99 1060.24,1355.95C1068.2,1357.32 1077.06,1357.57 1080.62,1356.44C1088.37,1353.96 1093.47,1354.53 1100.29,1352.96C1107.51,1351.3 1110.8,1345.32 1115.92,1335.77C1117.69,1332.47 1129.12,1326.66 1129.61,1322.59C1130.06,1318.88 1027.65,1324.71 1027.65,1324.71Z" style="fill:rgb(156,131,54);"/>
                <path d="M1123.9,1341C1117.26,1353.27 1111.87,1360.05 1102.42,1362.23C1095.87,1363.73 1090.96,1363.12 1083.5,1365.5C1079.16,1366.88 1068.35,1366.99 1058.63,1365.33C1054.84,1364.68 1051.39,1362.75 1048.12,1360.14C1046.01,1358.45 1044.14,1356.09 1041.53,1355.16C1040.54,1354.81 1039.26,1355.12 1038.05,1355.18C1035.97,1355.28 1033.96,1355.38 1032.26,1355.25C1027.49,1354.91 1024.09,1352.89 1022.06,1350.13C1020.61,1348.15 1019.2,1344.34 1018.63,1339.76C1017.81,1333.09 1018.14,1324.33 1018.14,1324.33C1018.34,1319.44 1022.22,1315.49 1027.11,1315.21C1027.11,1315.21 1111.37,1310.5 1127.89,1312.29C1132.5,1312.79 1135.08,1314.56 1135.99,1315.41C1138.73,1317.96 1139.39,1320.88 1139.05,1323.72C1138.71,1326.58 1136.83,1330.31 1133.17,1333.64C1130.5,1336.07 1124.94,1340.23 1123.9,1341ZM1027.65,1324.71C1027.65,1324.71 1027,1340.81 1029.71,1344.49C1031.78,1347.29 1039.86,1344.49 1044.7,1346.2C1050.71,1348.33 1054.6,1354.99 1060.24,1355.95C1068.2,1357.32 1077.06,1357.57 1080.62,1356.44C1088.37,1353.96 1093.47,1354.53 1100.29,1352.96C1107.51,1351.3 1110.8,1345.32 1115.92,1335.77C1117.69,1332.47 1129.12,1326.66 1129.61,1322.59C1130.06,1318.88 1027.65,1324.71 1027.65,1324.71Z"/>
                <path d="M1027.65,1324.71C1027.65,1324.71 1027,1340.81 1029.71,1344.49C1031.78,1347.29 1039.86,1344.49 1044.7,1346.2C1050.71,1348.33 1054.6,1354.99 1060.24,1355.95C1068.2,1357.32 1077.06,1357.57 1080.62,1356.44C1088.37,1353.96 1093.47,1354.53 1100.29,1352.96C1107.51,1351.3 1110.8,1345.32 1115.92,1335.77C1117.69,1332.47 1129.12,1326.66 1129.61,1322.59C1130.06,1318.88 1027.65,1324.71 1027.65,1324.71Z" style="fill:rgb(138,116,49);"/>
                <g transform="matrix(1,0,0,1,4.79434,-4.28967)">
                    <path d="M1027.65,1324.71C1027.65,1324.71 1027,1340.81 1029.71,1344.49C1031.78,1347.29 1039.86,1344.49 1044.7,1346.2C1050.71,1348.33 1054.6,1354.99 1060.24,1355.95C1068.2,1357.32 1077.06,1357.57 1080.62,1356.44C1088.37,1353.96 1093.47,1354.53 1100.29,1352.96C1107.51,1351.3 1110.8,1345.32 1115.92,1335.77C1117.69,1332.47 1129.12,1326.66 1129.61,1322.59C1130.06,1318.88 1027.65,1324.71 1027.65,1324.71Z" style="fill:rgb(156,131,54);"/>
                </g>
            </g>
            <g transform="matrix(0.976557,0.215257,-0.215257,0.976557,-201.219,-674.293)">
                <g transform="matrix(1.05785,0,0,1.08111,-83.1771,-139.034)">
                    <path d="M1320.36,1749.21C1319.71,1755.87 1319.91,1765.31 1324.23,1768.7C1328.54,1772.09 1341.96,1768.39 1349.77,1770.29C1357.78,1772.25 1367.1,1775.66 1374.31,1775.89C1380.47,1776.09 1387.58,1771.08 1389.11,1764.91C1390.42,1759.59 1389.7,1751.86 1389.5,1745.24" style="fill:none;stroke:rgb(148,116,43);stroke-width:9.51px;"/>
                </g>
                <path d="M1320.36,1749.21C1319.71,1755.87 1319.91,1765.31 1324.23,1768.7C1328.54,1772.09 1341.96,1768.39 1349.77,1770.29C1357.78,1772.25 1363.06,1778.95 1370.26,1779.39C1384.76,1780.29 1387.58,1772.02 1389.11,1765.84C1390.42,1760.53 1389.7,1751.86 1389.5,1745.24" style="fill:rgb(156,131,54);stroke:black;stroke-width:9.51px;"/>
                <g transform="matrix(0.906062,0,0,1.05808,126.644,-106.299)">
                    <path d="M1325.45,1749.07C1325.27,1755.11 1324.17,1761.88 1327.7,1764.65C1332.01,1768.04 1345.43,1764.34 1353.24,1766.24C1361.25,1768.19 1366.53,1774.9 1373.73,1775.34C1379.93,1775.73 1384,1774.43 1386.74,1772.35C1384.37,1776.54 1379.89,1779.99 1370.26,1779.39C1363.06,1778.95 1357.78,1772.25 1349.77,1770.29C1341.96,1768.39 1328.54,1772.09 1324.23,1768.7C1319.91,1765.31 1319.71,1755.87 1320.36,1749.21L1325.45,1749.07Z" style="fill:rgb(138,116,49);"/>
                </g>
            </g>
            <g>
                <path d="M633.028,1171.19C633.47,1169.82 676.138,1157.01 698.528,1157.33C717.501,1157.61 742.429,1170.64 785.06,1169.69C897.169,1167.21 970.014,1137.35 989.214,1136.46C1021.18,1134.98 1025.02,1157.03 1082.11,1160.58C1114.9,1162.62 1160.94,1153.34 1185.8,1153.36C1228.54,1153.39 1286.35,1179.4 1337.78,1180.14C1409.62,1181.18 1445.72,1155.27 1494.5,1153.53C1515.6,1152.77 1543.32,1171.99 1630.53,1171.27C1681.29,1170.85 1763.12,1170.35 1798.09,1178.17C1817.03,1182.4 1837.64,1198.98 1840.36,1218.19C1842.48,1233.15 1848.06,1291.57 1847.72,1296.68C1846.27,1318.46 1756.33,1324.32 1722.08,1324.64C1654.4,1325.28 1495.71,1304.25 1440.67,1300.98C1424.36,1300.02 1408.02,1302.87 1391.83,1305.05C1364.31,1308.75 1314.74,1321.77 1275.52,1323.19C1231.76,1324.76 1178.09,1314.34 1129.25,1314.51C1060.02,1314.76 932.377,1325.26 860.153,1324.68C805.217,1324.24 734.451,1318.24 695.906,1311.04C671.901,1306.55 638.7,1303.83 628.879,1281.47C618.676,1258.24 625.598,1194.19 633.028,1171.19Z" style="fill:rgb(54,119,57);"/>
                <path d="M623.979,1168.26C624.254,1167.41 625.614,1163.78 630.735,1161.67C638.607,1158.42 677.335,1147.51 698.667,1147.83C706.855,1147.94 716.089,1150.16 727.144,1152.84C741.89,1156.41 760.31,1160.73 784.85,1160.19C896.835,1157.7 969.596,1127.85 988.774,1126.96C1003.46,1126.28 1013.01,1129.81 1023.34,1134.69C1036.09,1140.71 1050.33,1149.07 1082.7,1151.09C1115.31,1153.12 1161.09,1143.83 1185.81,1143.85C1207.85,1143.87 1233.8,1150.46 1260.85,1157.26C1286.35,1163.68 1312.9,1170.27 1337.92,1170.63C1379.88,1171.24 1409.31,1162.32 1436.4,1154.79C1455.69,1149.42 1473.88,1144.75 1494.16,1144.03C1501.26,1143.77 1509.04,1145.38 1519.07,1147.95C1539.5,1153.18 1570.71,1162.25 1630.45,1161.76C1681.87,1161.34 1764.74,1160.97 1800.17,1168.89C1822.61,1173.91 1846.55,1194.08 1849.78,1216.85C1851.95,1232.19 1857.55,1292.07 1857.2,1297.32C1856.88,1302.23 1854.54,1306.92 1849.9,1311C1845.43,1314.92 1838.29,1318.48 1829.28,1321.33C1799.41,1330.79 1746.78,1333.91 1722.17,1334.15C1654.33,1334.79 1495.28,1313.75 1440.11,1310.48C1424.41,1309.54 1408.68,1312.38 1393.1,1314.47C1365.36,1318.2 1315.39,1331.27 1275.87,1332.69C1232.01,1334.27 1178.23,1323.84 1129.28,1324.02C1060.03,1324.27 932.33,1334.77 860.077,1334.19C804.582,1333.75 733.097,1327.66 694.159,1320.38C679.114,1317.57 660.642,1315.29 646.03,1308.97C634.4,1303.94 625.073,1296.44 620.174,1285.29C615.701,1275.11 613.918,1257.81 614.285,1239.05C614.808,1212.34 619.341,1182.62 623.979,1168.26ZM633.028,1171.19C625.598,1194.19 618.676,1258.24 628.879,1281.47C638.7,1303.83 671.901,1306.55 695.906,1311.04C734.451,1318.24 805.217,1324.24 860.153,1324.68C932.377,1325.26 1060.02,1314.76 1129.25,1314.51C1178.09,1314.34 1231.76,1324.76 1275.52,1323.19C1314.74,1321.77 1364.31,1308.75 1391.83,1305.05C1408.02,1302.87 1424.36,1300.02 1440.67,1300.98C1495.71,1304.25 1654.4,1325.28 1722.08,1324.64C1756.33,1324.32 1846.27,1318.46 1847.72,1296.68C1848.06,1291.57 1842.48,1233.15 1840.36,1218.19C1837.64,1198.98 1817.03,1182.4 1798.09,1178.17C1763.12,1170.35 1681.29,1170.85 1630.53,1171.27C1543.32,1171.99 1515.6,1152.77 1494.5,1153.53C1445.72,1155.27 1409.62,1181.18 1337.78,1180.14C1286.35,1179.4 1228.54,1153.39 1185.8,1153.36C1160.94,1153.34 1114.9,1162.62 1082.11,1160.58C1025.02,1157.03 1021.18,1134.98 989.214,1136.46C970.014,1137.35 897.169,1167.21 785.06,1169.69C742.429,1170.64 717.501,1157.61 698.528,1157.33C676.138,1157.01 633.47,1169.82 633.028,1171.19Z"/>
                <path d="M1847.69,1294.62C1847.73,1295.59 1847.74,1296.29 1847.72,1296.68C1846.27,1318.46 1756.33,1324.32 1722.08,1324.64C1654.4,1325.28 1495.71,1304.25 1440.67,1300.98C1424.36,1300.02 1408.02,1302.87 1391.83,1305.05C1364.31,1308.75 1314.74,1321.77 1275.52,1323.19C1231.76,1324.76 1178.09,1314.34 1129.25,1314.51C1060.02,1314.76 932.377,1325.26 860.153,1324.68C805.217,1324.24 734.451,1318.24 695.906,1311.04C671.901,1306.55 638.7,1303.83 628.879,1281.47C618.676,1258.24 625.598,1194.19 633.028,1171.19C633.221,1170.59 641.469,1167.81 652.563,1164.89C646.564,1193.16 642.655,1243.42 651.44,1263.42C661.261,1285.78 694.462,1288.5 718.466,1292.99C757.012,1300.19 827.778,1306.19 882.714,1306.64C954.937,1307.21 1082.58,1296.71 1151.81,1296.46C1200.65,1296.29 1254.32,1306.71 1298.08,1305.14C1337.3,1303.73 1386.87,1290.7 1414.39,1287C1430.58,1284.83 1446.92,1281.97 1463.23,1282.93C1518.27,1286.2 1676.96,1307.23 1744.64,1306.59C1768.27,1306.37 1818.4,1303.51 1847.69,1294.62Z" style="fill:rgb(50,100,49);"/>
            </g>
            <g>
                <g transform="matrix(1.07248,0,0,1.17741,-99.797,-239.52)">
                    <path d="M1320.34,1353.04C1330.13,1352.28 1340.91,1356.84 1339.36,1370.9C1338.45,1379.09 1331.48,1388.79 1316.1,1388.95C1305.05,1389.07 1307.32,1377.84 1307.31,1373.63C1307.31,1370.62 1304.87,1371.55 1304.75,1367.41C1304.56,1360.57 1315.24,1353.44 1320.34,1353.04Z" style="fill:rgb(156,131,54);"/>
                    <path d="M1298.41,1375.07C1297.36,1373.6 1295.99,1371.04 1295.89,1367.61C1295.76,1363 1298.13,1358.13 1302.1,1354.11C1307.3,1348.84 1315.06,1345.35 1319.58,1345C1328.39,1344.31 1337.55,1346.9 1343.11,1353.32C1346.74,1357.5 1349.09,1363.45 1348.18,1371.7C1346.92,1383.07 1337.52,1396.8 1316.2,1397.03C1310.62,1397.09 1306.83,1395.42 1304.13,1393.19C1301.43,1390.98 1299.73,1388.01 1298.91,1384.67C1298.11,1381.39 1298.32,1377.67 1298.41,1375.07ZM1320.34,1353.04C1315.24,1353.44 1304.56,1360.57 1304.75,1367.41C1304.87,1371.55 1307.31,1370.62 1307.31,1373.63C1307.32,1377.84 1305.05,1389.07 1316.1,1388.95C1331.48,1388.79 1338.45,1379.09 1339.36,1370.9C1340.91,1356.84 1330.13,1352.28 1320.34,1353.04Z" style="fill:rgb(148,116,43);"/>
                </g>
                <path d="M1320.34,1353.04C1330.13,1352.28 1340.91,1356.84 1339.36,1370.9C1338.45,1379.09 1331.48,1388.79 1316.1,1388.95C1305.05,1389.07 1307.32,1377.84 1307.31,1373.63C1307.31,1370.62 1304.87,1371.55 1304.75,1367.41C1304.56,1360.57 1315.24,1353.44 1320.34,1353.04Z" style="fill:rgb(156,131,54);"/>
                <path d="M1297.74,1375.64C1296.62,1373.92 1295.35,1371.2 1295.25,1367.67C1295.11,1362.63 1297.59,1357.22 1301.92,1352.83C1307.2,1347.49 1315.01,1343.92 1319.6,1343.56C1328.49,1342.87 1337.73,1345.62 1343.34,1352.09C1347.26,1356.62 1349.79,1363.02 1348.81,1371.94C1347.52,1383.64 1338.15,1398.23 1316.2,1398.46C1310.84,1398.52 1307.12,1396.94 1304.43,1394.87C1300.32,1391.7 1298.27,1386.91 1297.77,1381.81C1297.55,1379.63 1297.66,1377.42 1297.74,1375.64ZM1320.34,1353.04C1315.24,1353.44 1304.56,1360.57 1304.75,1367.41C1304.87,1371.55 1307.31,1370.62 1307.31,1373.63C1307.32,1377.84 1305.05,1389.07 1316.1,1388.95C1331.48,1388.79 1338.45,1379.09 1339.36,1370.9C1340.91,1356.84 1330.13,1352.28 1320.34,1353.04Z"/>
                <path d="M1331.03,1384.64C1327.38,1387.19 1322.46,1388.88 1316.1,1388.95C1305.05,1389.07 1307.32,1377.84 1307.31,1373.63C1307.31,1370.62 1304.87,1371.55 1304.75,1367.41C1304.59,1361.4 1312.8,1355.17 1318.25,1353.48C1314.1,1356.27 1310.32,1360.47 1310.43,1364.57C1310.55,1368.71 1312.98,1367.78 1312.99,1370.79C1313,1375 1310.73,1386.23 1321.78,1386.11C1325.29,1386.08 1328.37,1385.54 1331.03,1384.64Z" style="fill:rgb(138,116,49);"/>
            </g>
            <g transform="matrix(1,0,0,1,566.033,-409.78)">
                <g transform="matrix(1.48124,0,0,1.48124,-597.383,-855.553)">
                    <path d="M1225.34,1769.36C1224.74,1770.54 1222.34,1775.82 1222.2,1777.02C1221.88,1779.8 1227.26,1780.93 1229.74,1783.18C1232.43,1785.63 1233.83,1793.55 1237.73,1792.63C1241.22,1791.8 1243.31,1792.6 1243.31,1792.6C1243.31,1792.6 1239.32,1795.46 1234.82,1796.52C1230.92,1797.44 1228.19,1789.79 1225.51,1787.34C1223.03,1785.09 1219.2,1782.7 1219.06,1779.91C1218.89,1776.45 1220.71,1771.47 1225.34,1769.36Z" style="fill:rgb(148,116,43);"/>
                </g>
                <g transform="matrix(0.798602,0,0,0.763824,250.349,421.319)">
                    <path d="M1236.38,1795.32C1242.17,1793.89 1255.61,1783.94 1257.95,1779.42C1259.92,1775.62 1253.81,1772.67 1250.35,1771.57C1247.04,1770.51 1241.09,1772.8 1237.72,1771.93C1234.06,1770.99 1227.06,1764.5 1223.09,1765.65C1219.12,1766.81 1217.35,1771.26 1216.94,1774.89C1216.54,1778.52 1223.28,1780 1226.38,1782.95C1229.75,1786.15 1231.51,1796.52 1236.38,1795.32Z" style="fill:rgb(156,131,54);"/>
                    <path d="M1240.43,1759.57C1241.96,1759.36 1245.33,1758.92 1247.12,1758.85C1249.61,1758.75 1251.9,1759.04 1253.83,1759.66C1258.55,1761.17 1265.31,1765.28 1267.92,1769.65C1270.78,1774.41 1271.35,1779.69 1268.42,1785.34C1267.02,1788.07 1263.24,1792.42 1258.29,1796.41C1251.89,1801.58 1243.62,1806.33 1239.12,1807.44C1233.14,1808.91 1228,1807 1223.8,1802.04C1221.82,1799.71 1218.66,1793.36 1217.9,1791.8C1217.27,1791.4 1216.47,1791.13 1215.78,1790.75C1213.7,1789.6 1211.8,1788.34 1210.37,1787.04C1206.23,1783.24 1204.54,1778.63 1205.12,1773.45C1206.02,1765.34 1211.03,1756.25 1219.89,1753.66C1223.24,1752.69 1227.44,1752.92 1231.84,1754.81C1234.36,1755.89 1238.68,1758.5 1240.43,1759.57ZM1236.38,1795.32C1242.17,1793.89 1255.61,1783.94 1257.95,1779.42C1259.92,1775.62 1253.81,1772.67 1250.35,1771.57C1247.04,1770.51 1241.09,1772.8 1237.72,1771.93C1234.06,1770.99 1227.06,1764.5 1223.09,1765.65C1219.12,1766.81 1217.35,1771.26 1216.94,1774.89C1216.54,1778.52 1223.28,1780 1226.38,1782.95C1229.75,1786.15 1231.51,1796.52 1236.38,1795.32Z"/>
                </g>
                <path d="M1228.19,1769.87C1226.58,1771.34 1225.78,1773.67 1225.55,1775.67C1225.23,1778.44 1230.61,1779.57 1233.08,1781.83C1235.77,1784.27 1237.18,1792.19 1241.07,1791.27C1241.11,1791.26 1241.14,1791.26 1241.17,1791.25C1239.86,1791.92 1238.67,1792.41 1237.73,1792.63C1233.83,1793.55 1232.43,1785.63 1229.74,1783.18C1227.26,1780.93 1221.88,1779.8 1222.2,1777.02C1222.53,1774.25 1223.94,1770.85 1227.11,1769.97C1227.45,1769.87 1227.81,1769.85 1228.19,1769.87Z" style="fill:rgb(138,116,49);"/>
            </g>
            <g>
                <g transform="matrix(1,0,0,1.05324,-5.50402,-70.2519)">
                    <path d="M1617.52,1364.82C1623.14,1361.45 1627.21,1357 1630.94,1354.58C1635.48,1351.62 1639.91,1350.5 1644.27,1351.17C1649.81,1352.02 1655.98,1355.37 1661.44,1360.42C1668.44,1366.89 1674.36,1376.04 1676.62,1383.48C1679.37,1392.53 1676.75,1399.75 1671.29,1403.3C1665.14,1407.3 1646.69,1415.82 1632.32,1419.38C1624.47,1421.32 1617.54,1421.58 1613.25,1420.29C1610.34,1419.4 1605.23,1416.47 1599.86,1414C1598.33,1413.3 1596.78,1412.65 1595.27,1412.2C1594.54,1411.99 1593.28,1411.81 1592.99,1411.77C1587.69,1413.43 1583.37,1412.59 1579.84,1410.52C1575.93,1408.24 1572.73,1403.69 1571.24,1397.62C1569.53,1390.65 1569.84,1381.41 1571.07,1375.29C1571.83,1371.53 1573.09,1368.68 1574.17,1367.17C1586.65,1349.62 1608.05,1356.74 1613.04,1360.21C1614.95,1361.54 1616.39,1363.12 1617.52,1364.82ZM1616.14,1411.68C1626.49,1414.82 1657.81,1401.13 1665.92,1395.85C1674.79,1390.08 1656.8,1362.24 1642.75,1360.08C1635.64,1358.99 1629.08,1370.68 1615.98,1375.68C1610.39,1377.82 1612.2,1370.82 1607.41,1367.49C1604.16,1365.23 1590.2,1360.75 1582.05,1372.22C1578.58,1377.1 1576.72,1407.56 1590.16,1403.14C1597.73,1400.65 1610.83,1410.08 1616.14,1411.68Z" style="fill:rgb(148,116,43);"/>
                </g>
                <path d="M1616.14,1411.68C1626.49,1414.82 1657.81,1401.13 1665.92,1395.85C1674.79,1390.08 1656.8,1362.24 1642.75,1360.08C1635.64,1358.99 1629.08,1370.68 1615.98,1375.68C1610.39,1377.82 1612.2,1370.82 1607.41,1367.49C1604.16,1365.23 1590.2,1360.75 1582.05,1372.22C1578.58,1377.1 1576.72,1407.56 1590.16,1403.14C1597.73,1400.65 1610.83,1410.08 1616.14,1411.68Z" style="fill:rgb(156,131,54);"/>
                <path d="M1617.22,1364.58C1623.09,1361.18 1627.29,1356.55 1631.13,1354.05C1635.59,1351.15 1639.92,1350.03 1644.2,1350.68C1649.71,1351.53 1655.83,1354.88 1661.26,1359.9C1668.33,1366.44 1674.29,1375.7 1676.58,1383.22C1679.44,1392.64 1676.79,1400.13 1671.1,1403.82C1664.96,1407.82 1646.55,1416.32 1632.2,1419.87C1624.45,1421.79 1617.62,1422.07 1613.39,1420.79C1610.48,1419.9 1605.38,1416.98 1600.03,1414.52C1598.49,1413.81 1596.92,1413.15 1595.4,1412.7C1594.58,1412.46 1593.17,1412.28 1592.92,1412.24C1587.72,1413.9 1583.49,1413.06 1580.03,1411.05C1576.03,1408.71 1572.79,1404.06 1571.26,1397.84C1569.52,1390.74 1569.83,1381.34 1571.09,1375.11C1571.87,1371.21 1573.18,1368.28 1574.3,1366.71C1586.68,1349.29 1607.9,1356.25 1612.85,1359.69C1614.5,1360.84 1616.02,1362.74 1617.22,1364.58ZM1616.14,1411.68C1626.49,1414.82 1657.81,1401.13 1665.92,1395.85C1674.79,1390.08 1656.8,1362.24 1642.75,1360.08C1635.64,1358.99 1629.08,1370.68 1615.98,1375.68C1610.39,1377.82 1612.2,1370.82 1607.41,1367.49C1604.16,1365.23 1590.2,1360.75 1582.05,1372.22C1578.58,1377.1 1576.72,1407.56 1590.16,1403.14C1597.73,1400.65 1610.83,1410.08 1616.14,1411.68Z"/>
                <path d="M1586.86,1367.51C1586.71,1367.71 1586.55,1367.93 1586.4,1368.14C1582.94,1373.17 1581.07,1404.58 1594.52,1400.03C1602.09,1397.46 1615.19,1407.17 1620.5,1408.83C1629.89,1411.76 1656.55,1400.41 1667.46,1394.22C1667.09,1394.87 1666.58,1395.42 1665.92,1395.85C1657.81,1401.13 1626.49,1414.82 1616.14,1411.68C1610.83,1410.08 1597.73,1400.65 1590.16,1403.14C1576.72,1407.56 1578.58,1377.1 1582.05,1372.22C1583.5,1370.18 1585.13,1368.64 1586.86,1367.51Z" style="fill:rgb(138,116,49);"/>
            </g>
            <g>
                <g transform="matrix(1.11439,0,0,1.00253,-109.206,-6.4088)">
                    <path d="M903.088,1483.94C894.679,1473.26 900.873,1468.79 902.351,1456.96C903.83,1445.13 892.495,1436.75 900.38,1429.36C905.089,1424.94 912.433,1421.23 918.741,1420.01" style="fill:none;stroke:rgb(148,116,43);stroke-width:8.97px;stroke-linecap:butt;"/>
                </g>
                <path d="M906.723,1481.38C898.314,1470.71 906.929,1466.55 908.407,1454.73C909.886,1442.9 898.551,1434.52 906.436,1427.13C914.321,1419.74 929.599,1414.31 935.021,1419.24C940.442,1424.17 945.863,1424.17 954.734,1422.2C963.605,1420.23 977.405,1424.66 975.926,1431.07C974.448,1437.48 990.94,1447.54 990.94,1447.54C969.922,1448.11 952.562,1461.09 946.609,1463.28C935.378,1467.4 912.229,1477.03 906.723,1481.38Z" style="fill:rgb(156,131,54);"/>
                <path d="M985.545,1430.77L995.891,1439.42C999.488,1441.61 1001.21,1445.91 1000.13,1449.98C999.044,1454.06 995.409,1456.93 991.198,1457.04C980.172,1457.34 970.337,1461.68 963.077,1465.41C957.071,1468.5 952.472,1471.25 949.889,1472.2C939.425,1476.05 917.753,1484.78 912.624,1488.84C910.644,1490.41 908.121,1491.12 905.613,1490.83C903.105,1490.53 900.817,1489.25 899.254,1487.27C892.176,1478.28 892.672,1471.96 894.839,1465.47C895.96,1462.12 898.328,1458.7 898.972,1453.55C899.299,1450.93 898.4,1448.63 897.605,1446.49C896.64,1443.9 895.618,1441.46 894.983,1439.16C893.085,1432.28 893.606,1426.12 899.933,1420.19C906.975,1413.59 918.698,1408.35 927.434,1407.88C933.305,1407.56 938.163,1409.25 941.417,1412.21C944.484,1414.99 947.653,1414.03 952.671,1412.92C961.558,1410.94 973.835,1413.78 979.715,1418.61C983.88,1422.03 985.808,1426.29 985.545,1430.77ZM906.723,1481.38C912.229,1477.03 935.378,1467.4 946.609,1463.28C952.562,1461.09 969.922,1448.11 990.94,1447.54C990.94,1447.54 974.448,1437.48 975.926,1431.07C977.405,1424.66 963.605,1420.23 954.734,1422.2C945.863,1424.17 940.442,1424.17 935.021,1419.24C929.599,1414.31 914.321,1419.74 906.436,1427.13C898.551,1434.52 909.886,1442.9 908.407,1454.73C906.929,1466.55 898.314,1470.71 906.723,1481.38Z"/>
                <path d="M909.493,1479.56C908.34,1480.24 907.399,1480.85 906.723,1481.38C898.314,1470.71 906.929,1466.55 908.407,1454.73C909.886,1442.9 898.551,1434.52 906.436,1427.13C909.685,1424.08 914.189,1421.37 918.741,1419.58C916.145,1421.17 913.739,1423.04 911.789,1425.05C903.954,1433.09 915.216,1442.2 913.747,1455.07C912.484,1466.13 905.977,1471.02 909.493,1479.56Z" style="fill:rgb(138,116,49);"/>
            </g>
            <g>
                <g transform="matrix(1.0734,0,0,1.10006,-91.6381,-121.841)">
                    <path d="M1186.01,1236.31C1185.35,1233.49 1184.98,1229.82 1185.82,1225.77C1188.15,1214.45 1196.19,1208.86 1203.48,1209.04C1205.9,1209.1 1209.89,1210.21 1213.44,1212.9C1218.28,1216.58 1222.3,1222.84 1220.67,1230.96C1220.53,1231.67 1220.51,1232.8 1220.54,1233.93C1220.62,1233.91 1220.7,1233.89 1220.79,1233.88C1222.32,1233.57 1223.77,1233.49 1225.12,1233.63C1228.74,1234.01 1232.43,1235.44 1235.01,1241.13C1240.01,1252.12 1232.1,1263.59 1227.65,1267.72C1221.95,1273.01 1212.31,1273.81 1204.14,1267.08C1202.72,1265.91 1201.4,1264.21 1200.23,1262.22C1199.89,1262.77 1199.57,1263.27 1199.32,1263.67C1198.08,1265.6 1196.72,1267.15 1195.38,1268.2C1186.24,1275.31 1179.04,1271.52 1175.16,1269.78C1172.11,1268.41 1169.64,1265.77 1168.25,1262.29C1166.91,1258.91 1166.68,1254.69 1167.26,1251.7C1169.09,1242.29 1174.23,1239.41 1180.08,1237.46C1181.89,1236.85 1184.07,1236.51 1186.01,1236.31ZM1178.87,1261.93C1180.97,1262.87 1184.9,1265.3 1189.85,1261.44C1193.11,1258.9 1195.32,1249.52 1200.51,1249.82C1205.71,1250.11 1206.76,1257.93 1209.86,1260.48C1213.93,1263.83 1218.7,1264.1 1221.55,1261.46C1224.39,1258.82 1230.11,1251.66 1226.92,1244.64C1224.38,1239.04 1220.12,1245.18 1214.22,1242.8C1211.43,1241.67 1211.1,1233.7 1211.98,1229.31C1213.42,1222.09 1206.18,1217.75 1203.25,1217.68C1199.31,1217.58 1195.77,1221.35 1194.5,1227.48C1192.62,1236.6 1198.09,1238.38 1196.31,1241.74C1193.78,1246.53 1189.2,1243.55 1182.94,1245.64C1179.78,1246.69 1176.95,1248.22 1175.96,1253.31C1175.43,1256.06 1176.14,1260.7 1178.87,1261.93Z" style="fill:rgb(50,100,49);"/>
                </g>
                <path d="M1178.87,1261.93C1180.97,1262.87 1184.9,1265.3 1189.85,1261.44C1193.11,1258.9 1195.32,1249.52 1200.51,1249.82C1205.71,1250.11 1206.76,1257.93 1209.86,1260.48C1213.93,1263.83 1218.7,1264.1 1221.55,1261.46C1224.39,1258.82 1230.11,1251.66 1226.92,1244.64C1224.38,1239.04 1220.12,1245.18 1214.22,1242.8C1211.43,1241.67 1211.1,1233.7 1211.98,1229.31C1213.42,1222.09 1206.18,1217.75 1203.25,1217.68C1199.31,1217.58 1195.77,1221.35 1194.5,1227.48C1192.62,1236.6 1198.09,1238.38 1196.31,1241.74C1193.78,1246.53 1189.2,1243.55 1182.94,1245.64C1179.78,1246.69 1176.95,1248.22 1175.96,1253.31C1175.43,1256.06 1176.14,1260.7 1178.87,1261.93Z" style="fill:rgb(48,185,137);"/>
                <path d="M1185.17,1235.54C1184.63,1232.76 1184.41,1229.31 1185.19,1225.56C1187.62,1213.79 1195.91,1207.99 1203.49,1208.17C1205.98,1208.24 1210.1,1209.37 1213.75,1212.15C1218.84,1216.01 1223.01,1222.63 1221.3,1231.17C1221.21,1231.62 1221.17,1232.25 1221.16,1232.93C1222.57,1232.69 1223.91,1232.63 1225.16,1232.77C1228.99,1233.17 1232.84,1234.7 1235.57,1240.7C1237.92,1245.86 1237.78,1251.05 1236.28,1255.74C1234.48,1261.36 1230.52,1266.1 1228.02,1268.42C1222.15,1273.87 1212.22,1274.75 1203.81,1267.81C1202.51,1266.74 1201.29,1265.31 1200.21,1263.58C1200.07,1263.82 1199.93,1264.03 1199.81,1264.22C1198.52,1266.24 1197.1,1267.85 1195.69,1268.95C1186.32,1276.24 1178.94,1272.39 1174.97,1270.6C1171.74,1269.15 1169.14,1266.36 1167.68,1262.67C1166.26,1259.11 1166.02,1254.65 1166.63,1251.5C1168.53,1241.7 1173.85,1238.65 1179.94,1236.62C1181.54,1236.08 1183.42,1235.75 1185.17,1235.54ZM1178.87,1261.93C1180.97,1262.87 1184.9,1265.3 1189.85,1261.44C1193.11,1258.9 1195.32,1249.52 1200.51,1249.82C1205.71,1250.11 1206.76,1257.93 1209.86,1260.48C1213.93,1263.83 1218.7,1264.1 1221.55,1261.46C1224.39,1258.82 1230.11,1251.66 1226.92,1244.64C1224.38,1239.04 1220.12,1245.18 1214.22,1242.8C1211.43,1241.67 1211.1,1233.7 1211.98,1229.31C1213.42,1222.09 1206.18,1217.75 1203.25,1217.68C1199.31,1217.58 1195.77,1221.35 1194.5,1227.48C1192.62,1236.6 1198.09,1238.38 1196.31,1241.74C1193.78,1246.53 1189.2,1243.55 1182.94,1245.64C1179.78,1246.69 1176.95,1248.22 1175.96,1253.31C1175.43,1256.06 1176.14,1260.7 1178.87,1261.93Z"/>
                <path d="M1179.28,1247.42C1178.81,1248.31 1178.44,1249.38 1178.18,1250.69C1177.65,1253.43 1178.36,1258.08 1181.09,1259.3C1183.16,1260.24 1187.02,1262.62 1191.89,1258.96C1191.23,1260 1190.57,1260.89 1189.85,1261.44C1184.9,1265.3 1180.97,1262.87 1178.87,1261.93C1176.14,1260.7 1175.43,1256.06 1175.96,1253.31C1176.54,1250.33 1177.75,1248.58 1179.28,1247.42ZM1197.27,1251.02C1198.74,1248.81 1200.45,1247.06 1202.73,1247.19C1207.94,1247.49 1208.98,1255.3 1212.08,1257.85C1216.15,1261.21 1220.92,1261.47 1223.77,1258.83C1223.97,1258.65 1224.18,1258.44 1224.4,1258.22C1223.4,1259.59 1222.36,1260.71 1221.55,1261.46C1218.7,1264.1 1213.93,1263.83 1209.86,1260.48C1206.76,1257.93 1205.71,1250.11 1200.51,1249.82C1199.28,1249.75 1198.22,1250.22 1197.27,1251.02ZM1198.82,1219.34C1197.89,1220.84 1197.17,1222.7 1196.72,1224.85C1194.84,1233.97 1200.31,1235.75 1198.53,1239.12C1197.96,1240.2 1197.28,1240.89 1196.5,1241.33C1197.64,1238.21 1192.7,1236.21 1194.5,1227.48C1195.26,1223.81 1196.83,1220.99 1198.82,1219.34Z" style="fill:rgb(19,159,116);"/>
            </g>
            <g transform="matrix(1,0,0,1,585.96,-433.61)">
                <g transform="matrix(1.03004,0,0,1.02644,-41.2714,-40.9545)">
                    <path d="M1207.9,1653.82C1203.89,1647.7 1204.13,1639.81 1209.53,1633.3C1211.77,1630.59 1215.06,1628.83 1219.03,1628.34C1224.45,1627.68 1231.43,1629.88 1234.48,1631.83C1236.71,1633.26 1238.73,1635.5 1240.15,1637.34C1241.6,1636.81 1243.39,1636.24 1245.4,1635.8C1249.67,1634.86 1254.2,1635.68 1257.01,1637.04C1259.75,1638.36 1261.48,1640.32 1262.42,1642.07C1264.02,1645.07 1265.94,1650.45 1261.53,1658.25C1260.59,1659.91 1259.22,1661.61 1257.99,1662.98C1259.41,1664.04 1260.85,1665.35 1261.89,1666.84C1266.02,1672.79 1266.7,1679.29 1263.94,1685.55C1262.37,1689.11 1258.4,1693.57 1252.46,1694.7C1248.04,1695.53 1241.69,1694.94 1234.6,1687.62C1233.46,1686.44 1232.54,1685.1 1231.83,1683.64C1230.85,1684.84 1229.85,1685.91 1228.95,1686.58C1223.64,1690.47 1217.43,1691.22 1213.07,1690.24C1209.95,1689.53 1207.5,1687.98 1205.83,1686.12C1205.39,1685.64 1204.53,1684.55 1203.75,1682.76C1202.81,1680.6 1201.21,1675.65 1200.76,1670.87C1200.16,1664.54 1201.99,1658.72 1205.47,1655.52C1206.2,1654.85 1207.01,1654.28 1207.9,1653.82ZM1216.83,1639.39C1213.84,1642.99 1214.2,1647.54 1217.43,1650.41C1220.63,1653.26 1225.53,1653.36 1224.83,1658.56C1224.63,1660.02 1223.45,1662.89 1220.81,1663.14C1217.93,1663.41 1213.52,1661.04 1211.88,1662.55C1207.75,1666.33 1212.05,1678.83 1212.87,1679.73C1214.61,1681.66 1219.42,1681.77 1223.35,1678.88C1227.62,1675.75 1228.42,1667.49 1234.19,1668.25C1240.68,1669.12 1237.79,1677.25 1241.4,1680.98C1248.98,1688.8 1254.01,1684.53 1255.26,1681.69C1256.65,1678.54 1256.18,1675.28 1254.1,1672.29C1250.91,1667.69 1246.47,1669.84 1246.33,1664.15C1246.2,1659.18 1250.36,1658.7 1253.28,1653.54C1255.18,1650.17 1254.75,1647.88 1254.06,1646.58C1253.41,1645.38 1250.29,1644.48 1247.42,1645.11C1240.67,1646.59 1240.61,1648.34 1237.9,1648.08C1233.83,1647.7 1234.33,1643.04 1229.38,1639.86C1226.78,1638.2 1219.42,1636.26 1216.83,1639.39Z" style="fill:rgb(50,100,49);"/>
                </g>
                <path d="M1216.83,1639.39C1219.42,1636.26 1226.78,1638.2 1229.38,1639.86C1234.33,1643.04 1233.83,1647.7 1237.9,1648.08C1240.61,1648.34 1240.67,1646.59 1247.42,1645.11C1250.29,1644.48 1253.41,1645.38 1254.06,1646.58C1254.75,1647.88 1255.18,1650.17 1253.28,1653.54C1250.36,1658.7 1246.2,1659.18 1246.33,1664.15C1246.47,1669.84 1250.91,1667.69 1254.1,1672.29C1256.18,1675.28 1256.65,1678.54 1255.26,1681.69C1254.01,1684.53 1248.98,1688.8 1241.4,1680.98C1237.79,1677.25 1240.68,1669.12 1234.19,1668.25C1228.42,1667.49 1227.62,1675.75 1223.35,1678.88C1219.42,1681.77 1214.61,1681.66 1212.87,1679.73C1212.05,1678.83 1207.75,1666.33 1211.88,1662.55C1213.52,1661.04 1217.93,1663.41 1220.81,1663.14C1223.45,1662.89 1224.63,1660.02 1224.83,1658.56C1225.53,1653.36 1220.63,1653.26 1217.43,1650.41C1214.2,1647.54 1213.84,1642.99 1216.83,1639.39Z" style="fill:rgb(176,45,45);"/>
                <path d="M1207.9,1653.83C1203.88,1647.72 1204.11,1639.83 1209.51,1633.32C1211.75,1630.61 1215.05,1628.85 1219.03,1628.36C1224.45,1627.69 1231.44,1629.9 1234.5,1631.86C1236.73,1633.28 1238.74,1635.51 1240.17,1637.35C1241.61,1636.82 1243.39,1636.26 1245.39,1635.82C1249.67,1634.88 1254.21,1635.69 1257.02,1637.06C1259.77,1638.38 1261.5,1640.34 1262.44,1642.09C1264.04,1645.08 1265.96,1650.45 1261.55,1658.23C1260.6,1659.9 1259.23,1661.61 1257.99,1662.98C1259.41,1664.04 1260.87,1665.36 1261.91,1666.86C1266.04,1672.8 1266.71,1679.28 1263.96,1685.53C1262.39,1689.1 1258.42,1693.56 1252.47,1694.68C1248.04,1695.51 1241.67,1694.93 1234.58,1687.6C1233.44,1686.43 1232.53,1685.1 1231.82,1683.65C1230.86,1684.84 1229.87,1685.89 1228.97,1686.55C1223.66,1690.45 1217.42,1691.21 1213.06,1690.22C1209.94,1689.51 1207.48,1687.96 1205.8,1686.1C1205.37,1685.62 1204.51,1684.53 1203.73,1682.74C1202.79,1680.58 1201.19,1675.64 1200.74,1670.87C1200.15,1664.54 1201.97,1658.73 1205.45,1655.54C1206.18,1654.87 1207,1654.29 1207.9,1653.83ZM1216.83,1639.39C1213.84,1642.99 1214.2,1647.54 1217.43,1650.41C1220.63,1653.26 1225.53,1653.36 1224.83,1658.56C1224.63,1660.02 1223.45,1662.89 1220.81,1663.14C1217.93,1663.41 1213.52,1661.04 1211.88,1662.55C1207.75,1666.33 1212.05,1678.83 1212.87,1679.73C1214.61,1681.66 1219.42,1681.77 1223.35,1678.88C1227.62,1675.75 1228.42,1667.49 1234.19,1668.25C1240.68,1669.12 1237.79,1677.25 1241.4,1680.98C1248.98,1688.8 1254.01,1684.53 1255.26,1681.69C1256.65,1678.54 1256.18,1675.28 1254.1,1672.29C1250.91,1667.69 1246.47,1669.84 1246.33,1664.15C1246.2,1659.18 1250.36,1658.7 1253.28,1653.54C1255.18,1650.17 1254.75,1647.88 1254.06,1646.58C1253.41,1645.38 1250.29,1644.48 1247.42,1645.11C1240.67,1646.59 1240.61,1648.34 1237.9,1648.08C1233.83,1647.7 1234.33,1643.04 1229.38,1639.86C1226.78,1638.2 1219.42,1636.26 1216.83,1639.39Z"/>
                <path d="M1224.03,1678.31C1223.81,1678.52 1223.59,1678.71 1223.35,1678.88C1219.42,1681.77 1214.61,1681.66 1212.87,1679.73C1212.05,1678.83 1207.75,1666.33 1211.88,1662.55C1212.51,1661.97 1213.56,1661.96 1214.78,1662.16C1212.98,1667.15 1216.3,1676.62 1217,1677.41C1218.25,1678.79 1221.08,1679.24 1224.03,1678.31ZM1224.04,1660.82C1224.5,1660.02 1224.75,1659.17 1224.83,1658.56C1225.53,1653.36 1220.63,1653.26 1217.43,1650.41C1214.2,1647.54 1213.84,1642.99 1216.83,1639.39C1217.65,1638.4 1218.95,1637.91 1220.42,1637.77C1218.03,1641.25 1218.54,1645.4 1221.56,1648.08C1224.77,1650.93 1229.66,1651.03 1228.96,1656.24C1228.77,1657.69 1227.59,1660.57 1224.95,1660.82C1224.66,1660.84 1224.36,1660.84 1224.04,1660.82ZM1254.4,1683.08C1252.38,1685.57 1247.8,1687.58 1241.4,1680.98C1237.79,1677.25 1240.68,1669.12 1234.19,1668.25C1233.93,1668.22 1233.67,1668.2 1233.43,1668.2C1234.65,1666.66 1236.13,1665.64 1238.33,1665.93C1244.82,1666.79 1241.92,1674.92 1245.54,1678.66C1249.1,1682.33 1252.1,1683.34 1254.4,1683.08Z" style="fill:rgb(155,40,39);"/>
            </g>
            <g transform="matrix(1,0,0,1,193.351,-429.213)">
                <g transform="matrix(1.05215,0,0,1.06914,-72.5672,-110.666)">
                    <path d="M1354.33,1593.97C1352.87,1600.23 1348.66,1606.4 1353.68,1611.09C1356.21,1613.45 1358.89,1613.81 1363.43,1612.88C1366.88,1612.17 1370.33,1608.96 1370.33,1608.96C1370.33,1608.96 1384.81,1623.73 1390.35,1618.3" style="fill:none;stroke:rgb(50,100,49);stroke-width:7.16px;stroke-linecap:butt;"/>
                </g>
                <path d="M1361.63,1605.17C1364.25,1606.07 1364.83,1603.87 1366.51,1602.57C1368.97,1600.67 1369.57,1598.86 1373.54,1600.55C1375.61,1601.42 1376.04,1604.61 1380.9,1608.61C1384.51,1611.58 1388.64,1614.67 1390.5,1613.45C1392.21,1612.32 1391.45,1609.07 1389.84,1606.35C1388.37,1603.88 1386.09,1601.95 1386.52,1600.24C1386.96,1598.51 1387.73,1596.6 1390.03,1595.18C1392.52,1593.64 1397.09,1595.19 1395.95,1591.85C1395.41,1590.28 1392.64,1589.08 1389.65,1589.83C1385.77,1590.8 1381.87,1591.85 1380.14,1590.86C1375.55,1588.2 1376.75,1586.06 1376.98,1583.46C1377.37,1578.99 1375.67,1576.9 1372.53,1576.71C1368.44,1576.45 1366.18,1579.14 1366.07,1582.89C1365.99,1585.48 1368.73,1589.14 1368.03,1591.71C1367.32,1594.28 1363.94,1597.24 1361.9,1598.7C1359.96,1600.1 1358.32,1604.03 1361.63,1605.17Z" style="fill:rgb(198,212,44);"/>
                <path d="M1358.03,1589.49C1357.38,1587.38 1356.52,1584.22 1356.57,1582.61C1356.7,1578.09 1358.39,1574.31 1361.02,1571.64C1363.84,1568.77 1367.84,1566.88 1373.12,1567.22C1376.89,1567.45 1379.86,1568.85 1382.11,1570.99C1384.33,1573.1 1386.17,1576.23 1386.49,1580.81C1386.79,1580.74 1387.07,1580.67 1387.33,1580.6C1392.57,1579.29 1397.47,1580.72 1400.43,1582.83C1402.75,1584.48 1404.21,1586.63 1404.95,1588.78C1406.09,1592.12 1405.66,1594.61 1405,1596.44C1404.24,1598.55 1402.95,1600.22 1401.15,1601.5C1400.64,1601.86 1399.68,1602.23 1398.61,1602.58C1400.57,1606.38 1401.29,1610.61 1400.78,1613.56C1400.19,1616.96 1398.43,1619.6 1395.73,1621.38C1393.1,1623.12 1389.56,1623.92 1385.35,1622.55C1382.44,1621.6 1378.39,1618.86 1374.86,1615.95C1373.19,1614.58 1371.71,1613.01 1370.52,1611.61C1368.92,1612.85 1366.72,1614.34 1365.03,1614.67C1363.24,1615.02 1361.12,1615.05 1358.54,1614.16C1346.62,1610.07 1349.38,1595.99 1356.35,1590.98C1356.75,1590.69 1357.43,1590.06 1358.03,1589.49ZM1361.63,1605.17C1364.25,1606.07 1364.83,1603.87 1366.51,1602.57C1368.97,1600.67 1369.57,1598.86 1373.54,1600.55C1375.61,1601.42 1376.04,1604.61 1380.9,1608.61C1384.51,1611.58 1388.64,1614.67 1390.5,1613.45C1392.21,1612.32 1391.45,1609.07 1389.84,1606.35C1388.37,1603.88 1386.09,1601.95 1386.52,1600.24C1386.96,1598.51 1387.73,1596.6 1390.03,1595.18C1392.52,1593.64 1397.09,1595.19 1395.95,1591.85C1395.41,1590.28 1392.64,1589.08 1389.65,1589.83C1385.77,1590.8 1381.87,1591.85 1380.14,1590.86C1375.55,1588.2 1376.75,1586.06 1376.98,1583.46C1377.37,1578.99 1375.67,1576.9 1372.53,1576.71C1368.44,1576.45 1366.18,1579.14 1366.07,1582.89C1365.99,1585.48 1368.73,1589.14 1368.03,1591.71C1367.32,1594.28 1363.94,1597.24 1361.9,1598.7C1359.96,1600.1 1358.32,1604.03 1361.63,1605.17Z"/>
                <path d="M1372.8,1576.73C1371.1,1577.78 1370.18,1579.72 1370.11,1582.08C1370.03,1584.67 1372.77,1588.34 1372.06,1590.9C1371.36,1593.47 1367.98,1596.43 1365.93,1597.9C1364.13,1599.19 1362.59,1602.68 1365.03,1604.08C1364.18,1605.02 1363.35,1605.76 1361.63,1605.17C1358.32,1604.03 1359.96,1600.1 1361.9,1598.7C1363.94,1597.24 1367.32,1594.28 1368.03,1591.71C1368.73,1589.14 1365.99,1585.48 1366.07,1582.89C1366.18,1579.14 1368.44,1576.45 1372.53,1576.71C1372.62,1576.71 1372.71,1576.72 1372.8,1576.73ZM1372.44,1600.14C1373.69,1599.08 1374.82,1598.57 1377.58,1599.74C1379.64,1600.62 1380.08,1603.8 1384.94,1607.81C1387.08,1609.57 1389.4,1611.37 1391.33,1612.29C1391.18,1612.78 1390.91,1613.17 1390.5,1613.45C1388.64,1614.67 1384.51,1611.58 1380.9,1608.61C1376.04,1604.61 1375.61,1601.42 1373.54,1600.55C1373.14,1600.38 1372.78,1600.24 1372.44,1600.14ZM1394.43,1594.17C1394.79,1594 1395.18,1593.88 1395.58,1593.79C1395.28,1593.98 1394.89,1594.09 1394.43,1594.17ZM1391.36,1589.6C1389.99,1589.93 1388.68,1590.21 1387.53,1590.36C1388.23,1590.18 1388.94,1590 1389.65,1589.83C1390.23,1589.68 1390.81,1589.61 1391.36,1589.6Z" style="fill:rgb(169,181,55);"/>
            </g>
            <g transform="matrix(0.991859,0.127337,-0.127337,0.991859,439.936,-147.996)">
                <path d="M1424.63,1221.36L1424.49,1236.21" style="fill:none;stroke:black;stroke-width:9.51px;"/>
                <path d="M1447.96,1155.5C1447.82,1174.37 1425.29,1214.31 1423.87,1213.32C1412.32,1205.29 1408.84,1191.49 1408.19,1185.82C1406.74,1173.08 1406.31,1158.45 1409.03,1144.84C1412.67,1126.63 1428.58,1090.86 1435.02,1092.59C1438.91,1093.63 1446.69,1113.37 1448.39,1135.35C1448.87,1141.56 1448.02,1148 1447.96,1155.5Z" style="fill:rgb(125,176,65);"/>
                <path d="M1457.47,1155.57C1457.33,1174.26 1437.5,1211.84 1432.34,1218.35C1426.82,1225.32 1419.95,1222.17 1418.44,1221.13C1404.04,1211.11 1399.55,1193.98 1398.75,1186.89C1397.19,1173.24 1396.79,1157.57 1399.7,1142.97C1402.88,1127.12 1414.78,1099.11 1422.93,1089.47C1428.11,1083.35 1433.91,1082.45 1437.48,1083.41C1439.64,1083.99 1442.94,1085.84 1445.74,1090.19C1450.23,1097.19 1456.36,1115.07 1457.87,1134.62C1458.37,1141.07 1457.53,1147.77 1457.47,1155.57ZM1447.96,1155.5C1448.02,1148 1448.87,1141.56 1448.39,1135.35C1446.69,1113.37 1438.91,1093.63 1435.02,1092.59C1428.58,1090.86 1412.67,1126.63 1409.03,1144.84C1406.31,1158.45 1406.74,1173.08 1408.19,1185.82C1408.84,1191.49 1412.32,1205.29 1423.87,1213.32C1425.29,1214.31 1447.82,1174.37 1447.96,1155.5Z"/>
                <g transform="matrix(1,0,0,1,-91.8488,99.8272)">
                    <path d="M1518.94,1109.37C1517.22,1112.14 1516.01,1113.7 1515.72,1113.49C1504.17,1105.46 1500.69,1091.67 1500.04,1085.99C1498.59,1073.25 1498.15,1058.62 1500.88,1045.01C1504.2,1028.4 1517.74,997.157 1524.97,993.133C1518.05,1004.66 1509.69,1028.3 1507.44,1042.17C1505.1,1056.58 1505.94,1071.97 1507.75,1085.35C1508.42,1090.32 1511.22,1101.17 1518.94,1109.37Z" style="fill:rgb(107,152,63);"/>
                </g>
            </g>
            <g transform="matrix(0.952721,-0.303848,0.303848,0.952721,-37.3972,514.604)">
                <path d="M1424.63,1221.36L1424.49,1236.21" style="fill:none;stroke:black;stroke-width:9.51px;"/>
                <path d="M1447.96,1155.5C1447.82,1174.37 1425.29,1214.31 1423.87,1213.32C1412.32,1205.29 1408.84,1191.49 1408.19,1185.82C1406.74,1173.08 1406.31,1158.45 1409.03,1144.84C1412.67,1126.63 1428.58,1090.86 1435.02,1092.59C1438.91,1093.63 1446.69,1113.37 1448.39,1135.35C1448.87,1141.56 1448.02,1148 1447.96,1155.5Z" style="fill:rgb(125,176,65);"/>
                <path d="M1457.47,1155.57C1457.33,1174.26 1437.5,1211.84 1432.34,1218.35C1426.82,1225.32 1419.95,1222.17 1418.44,1221.13C1404.04,1211.11 1399.55,1193.98 1398.75,1186.89C1397.19,1173.24 1396.79,1157.57 1399.7,1142.97C1402.88,1127.12 1414.78,1099.11 1422.93,1089.47C1428.11,1083.35 1433.91,1082.45 1437.48,1083.41C1439.64,1083.99 1442.94,1085.84 1445.74,1090.19C1450.23,1097.19 1456.36,1115.07 1457.87,1134.62C1458.37,1141.07 1457.53,1147.77 1457.47,1155.57ZM1447.96,1155.5C1448.02,1148 1448.87,1141.56 1448.39,1135.35C1446.69,1113.37 1438.91,1093.63 1435.02,1092.59C1428.58,1090.86 1412.67,1126.63 1409.03,1144.84C1406.31,1158.45 1406.74,1173.08 1408.19,1185.82C1408.84,1191.49 1412.32,1205.29 1423.87,1213.32C1425.29,1214.31 1447.82,1174.37 1447.96,1155.5Z"/>
                <g transform="matrix(1,0,0,1,-91.8488,99.8272)">
                    <path d="M1518.94,1109.37C1517.22,1112.14 1516.01,1113.7 1515.72,1113.49C1504.17,1105.46 1500.69,1091.67 1500.04,1085.99C1498.59,1073.25 1498.15,1058.62 1500.88,1045.01C1504.2,1028.4 1517.74,997.157 1524.97,993.133C1518.05,1004.66 1509.69,1028.3 1507.44,1042.17C1505.1,1056.58 1505.94,1071.97 1507.75,1085.35C1508.42,1090.32 1511.22,1101.17 1518.94,1109.37Z" style="fill:rgb(107,152,63);"/>
                </g>
            </g>
            <g transform="matrix(1,0,0,1,719.747,-195.117)">
                <g transform="matrix(1,0,0,1,-154.932,143.325)">
                    <path d="M429.422,1133.7C466.835,1134.2 495.281,1164.23 495.281,1212.4C495.281,1260.57 466.331,1299.68 421.348,1299.68C376.365,1299.68 327.357,1265.52 328.237,1217.36C329.246,1162.12 384.443,1133.09 429.422,1133.7Z" style="fill:rgb(76,129,60);"/>
                    <path d="M429.551,1124.19C471.818,1124.76 504.79,1157.98 504.79,1212.4C504.79,1266.22 471.603,1309.19 421.348,1309.19C371.464,1309.19 317.754,1270.6 318.73,1217.18C319.842,1156.32 379.989,1123.52 429.551,1124.19ZM429.422,1133.7C384.443,1133.09 329.246,1162.12 328.237,1217.36C327.357,1265.52 376.365,1299.68 421.348,1299.68C466.331,1299.68 495.281,1260.57 495.281,1212.4C495.281,1164.23 466.835,1134.2 429.422,1133.7Z"/>
                </g>
                <path d="M299.509,1434.82C289.858,1440.07 278.738,1443.01 266.416,1443.01C221.433,1443.01 172.425,1408.85 173.305,1360.68C173.808,1333.14 187.784,1312.11 207.247,1298.03C193.179,1311.86 183.816,1330.2 183.399,1352.82C182.485,1402.26 233.344,1437.33 280.025,1437.33C286.894,1437.33 293.403,1436.46 299.509,1434.82Z" style="fill:rgb(61,101,47);"/>
            </g>
        </g>
    </g>
</svg>
